SplineFontDB: 3.2
FontName: ATM058-Regular
FullName: ATM058-Regular
FamilyName: ATM 058
Weight: Book
Copyright: AzhaguThamizh
Version: 1.001
ItalicAngle: -11
UnderlinePosition: -271
UnderlineWidth: 102
Ascent: 1600
Descent: 400
InvalidEm: 0
sfntRevision: 0x00010042
LayerCount: 2
Layer: 0 1 "Back" 1
Layer: 1 1 "Fore" 0
XUID: [1021 192 2086997156 26548]
StyleMap: 0x0040
FSType: 8
OS2Version: 3
OS2_WeightWidthSlopeOnly: 0
OS2_UseTypoMetrics: 0
CreationTime: 1536306135
ModificationTime: 1545738324
PfmFamily: 17
TTFWeight: 400
TTFWidth: 5
LineGap: 0
VLineGap: 0
Panose: 2 11 6 4 2 2 2 2 2 4
OS2TypoAscent: 2000
OS2TypoAOffset: 0
OS2TypoDescent: -1320
OS2TypoDOffset: 0
OS2TypoLinegap: 0
OS2WinAscent: 2000
OS2WinAOffset: 0
OS2WinDescent: 744
OS2WinDOffset: 0
HheadAscent: 2000
HheadAOffset: 0
HheadDescent: -1320
HheadDOffset: 0
OS2SubXSize: 1400
OS2SubYSize: 1300
OS2SubXOff: 0
OS2SubYOff: 0
OS2SupXSize: 1400
OS2SupYSize: 1300
OS2SupXOff: 0
OS2SupYOff: 0
OS2StrikeYSize: 100
OS2StrikeYPos: 518
OS2CapHeight: 1586
OS2XHeight: -200
OS2Vendor: '    '
OS2CodePages: 00000001.00000000
OS2UnicodeRanges: 00100003.00000000.00000000.00000000
Lookup: 4 0 0 "'akhn' Akhand in Tamil2 lookup 0" { "'akhn' Akhand in Tamil2 lookup 0 subtable"  } ['akhn' ('tml2' <'dflt' > ) ]
Lookup: 4 0 0 "'akhn' Akhand in Tamil lookup 1" { "'akhn' Akhand in Tamil lookup 1 subtable"  } ['akhn' ('taml' <'dflt' > ) ]
Lookup: 4 0 0 "'half' Half Forms in Tamil lookup 2" { "'half' Half Forms in Tamil lookup 2 subtable"  } ['half' ('taml' <'dflt' > ) ]
Lookup: 4 0 0 "'haln' Halant Forms in Tamil2 lookup 3" { "'haln' Halant Forms in Tamil2 lookup 3 subtable"  } ['haln' ('tml2' <'dflt' > ) ]
Lookup: 4 0 0 "'haln' Halant Forms in Tamil lookup 4" { "'haln' Halant Forms in Tamil lookup 4 subtable"  } ['haln' ('taml' <'dflt' > ) ]
Lookup: 4 0 0 "'abvs' Above Base Substitutions lookup 5" { "'abvs' Above Base Substitutions lookup 5 subtable"  } ['abvs' ('taml' <'dflt' > 'tml2' <'dflt' > ) ]

StartChar: .notdef
Encoding: 65536 -1 0
Width: 1000
Flags: W
LayerCount: 2
Fore
SplineSet
126 0 m 1,0,-1
 126 1600 l 1,1,-1
 876 1600 l 1,2,-1
 876 0 l 1,3,-1
 126 0 l 1,0,-1
250 126 m 1,4,-1
 750 126 l 1,5,-1
 750 1476 l 1,6,-1
 250 1476 l 1,7,-1
 250 126 l 1,4,-1
EndSplineSet
EndChar

StartChar: exclam
Encoding: 33 33 4
Width: 588
GlyphClass: 2
Flags: W
LayerCount: 2
Fore
SplineSet
548 1332 m 2,0,-1
 542 1252 l 1,1,-1
 498 1010 l 1,2,-1
 488 910 l 1,3,-1
 472 582 l 1,4,-1
 466 538 l 1,5,-1
 456 490 l 1,6,-1
 456 454 l 1,7,-1
 448 426 l 1,8,-1
 436 360 l 2,9,10
 430 330 430 330 386 330 c 0,11,12
 358 330 358 330 340 356 c 1,13,-1
 304 642 l 1,14,-1
 284 922 l 2,15,16
 278 1000 278 1000 254 1124 c 0,17,18
 224 1276 224 1276 224 1334 c 0,19,20
 224 1422 224 1422 284 1492 c 1,21,22
 328 1532 328 1532 384 1532 c 0,23,24
 442 1532 442 1532 488 1492 c 0,25,26
 556 1434 556 1434 548 1332 c 2,0,-1
538 114 m 0,27,28
 538 52 538 52 493 4 c 128,-1,29
 448 -44 448 -44 386 -44 c 0,30,31
 326 -44 326 -44 284 -4 c 0,32,33
 232 44 232 44 232 114 c 0,34,35
 232 180 232 180 276 225 c 128,-1,36
 320 270 320 270 386 270 c 0,37,38
 446 270 446 270 492 222 c 128,-1,39
 538 174 538 174 538 114 c 0,27,28
EndSplineSet
EndChar

StartChar: quotedbl
Encoding: 34 34 5
Width: 884
GlyphClass: 2
Flags: W
LayerCount: 2
Fore
SplineSet
772 1540 m 1,0,-1
 766 1498 l 1,1,-1
 762 1416 l 2,2,3
 760 1338 760 1338 750 1212 c 1,4,5
 716 1092 716 1092 688 950 c 0,6,7
 682 922 682 922 642 922 c 0,8,9
 606 922 606 922 590 950 c 1,10,-1
 514 1210 l 1,11,12
 508 1246 508 1246 508 1330 c 2,13,-1
 508 1416 l 2,14,15
 508 1532 508 1532 512 1540 c 0,16,17
 528 1554 528 1554 548 1584 c 1,18,-1
 640 1604 l 1,19,20
 678 1604 678 1604 730 1584 c 1,21,-1
 762 1552 l 1,22,-1
 772 1540 l 1,0,-1
392 1540 m 1,23,-1
 386 1498 l 1,24,-1
 382 1416 l 2,25,26
 380 1338 380 1338 370 1212 c 1,27,28
 336 1092 336 1092 308 950 c 0,29,30
 302 922 302 922 262 922 c 0,31,32
 226 922 226 922 210 950 c 1,33,-1
 134 1210 l 1,34,35
 128 1246 128 1246 128 1330 c 2,36,-1
 128 1416 l 2,37,38
 128 1532 128 1532 132 1540 c 0,39,40
 148 1554 148 1554 168 1584 c 1,41,-1
 260 1604 l 1,42,43
 298 1604 298 1604 350 1584 c 1,44,-1
 382 1552 l 1,45,-1
 392 1540 l 1,23,-1
EndSplineSet
EndChar

StartChar: numbersign
Encoding: 35 35 6
Width: 1068
GlyphClass: 2
Flags: W
LayerCount: 2
Fore
SplineSet
998 278 m 1,0,-1
 746 278 l 1,1,-1
 680 -36 l 1,2,-1
 584 -36 l 1,3,-1
 650 278 l 1,4,-1
 320 278 l 1,5,-1
 254 -36 l 1,6,-1
 158 -36 l 1,7,-1
 224 278 l 1,8,-1
 68 278 l 1,9,-1
 68 374 l 1,10,-1
 244 374 l 1,11,-1
 304 664 l 1,12,-1
 68 664 l 1,13,-1
 68 760 l 1,14,-1
 324 760 l 1,15,-1
 384 1024 l 1,16,-1
 480 1024 l 1,17,-1
 420 760 l 1,18,-1
 748 760 l 1,19,-1
 806 1024 l 1,20,-1
 902 1024 l 1,21,-1
 844 760 l 1,22,-1
 998 760 l 1,23,-1
 998 664 l 1,24,-1
 826 664 l 1,25,-1
 764 374 l 1,26,-1
 998 374 l 1,27,-1
 998 278 l 1,0,-1
730 664 m 1,28,-1
 400 664 l 1,29,-1
 340 374 l 1,30,-1
 668 374 l 1,31,-1
 730 664 l 1,28,-1
EndSplineSet
EndChar

StartChar: dollar
Encoding: 36 36 7
Width: 932
GlyphClass: 2
Flags: W
LayerCount: 2
Fore
SplineSet
792 288 m 0,0,1
 792 54 792 54 500 -16 c 1,2,-1
 500 -90 l 1,3,-1
 438 -90 l 1,4,-1
 438 -20 l 1,5,6
 298 -20 298 -20 122 58 c 1,7,-1
 144 144 l 1,8,9
 206 92 206 92 290 58 c 1,10,-1
 354 46 l 1,11,-1
 438 42 l 1,12,-1
 438 464 l 1,13,14
 270 522 270 522 210 582 c 1,15,16
 116 660 116 660 116 776 c 0,17,18
 116 902 116 902 218 984 c 0,19,20
 304 1054 304 1054 438 1074 c 1,21,-1
 438 1134 l 1,22,-1
 500 1134 l 1,23,-1
 500 1074 l 1,24,-1
 532 1076 l 2,25,26
 618 1082 618 1082 706 1028 c 2,27,-1
 788 978 l 1,28,-1
 740 910 l 1,29,30
 686 960 686 960 624 998 c 1,31,-1
 572 1008 l 1,32,-1
 500 1012 l 1,33,-1
 498 570 l 1,34,35
 646 514 646 514 680 488 c 1,36,37
 792 422 792 422 792 288 c 0,0,1
438 1010 m 1,38,39
 356 996 356 996 288 942 c 0,40,41
 210 878 210 878 210 802 c 0,42,43
 210 752 210 752 264 686 c 1,44,45
 306 646 306 646 436 586 c 1,46,-1
 438 1010 l 1,38,39
692 238 m 0,47,48
 692 312 692 312 642 358 c 0,49,50
 604 392 604 392 500 438 c 1,51,-1
 500 42 l 1,52,53
 692 72 692 72 692 238 c 0,47,48
EndSplineSet
EndChar

StartChar: percent
Encoding: 37 37 8
Width: 866
GlyphClass: 2
Flags: W
LayerCount: 2
Fore
SplineSet
384 1044 m 0,0,1
 384 968 384 968 336 906 c 128,-1,2
 288 844 288 844 214 844 c 0,3,4
 146 844 146 844 95 903 c 128,-1,5
 44 962 44 962 44 1044 c 0,6,7
 44 1118 44 1118 93 1181 c 128,-1,8
 142 1244 142 1244 214 1244 c 0,9,10
 284 1244 284 1244 334 1180 c 128,-1,11
 384 1116 384 1116 384 1044 c 0,0,1
834 528 m 0,12,13
 834 452 834 452 786 390 c 128,-1,14
 738 328 738 328 664 328 c 0,15,16
 596 328 596 328 545 387 c 128,-1,17
 494 446 494 446 494 528 c 0,18,19
 494 602 494 602 543 665 c 128,-1,20
 592 728 592 728 664 728 c 0,21,22
 734 728 734 728 784 664 c 128,-1,23
 834 600 834 600 834 528 c 0,12,13
744 1372 m 1,24,-1
 258 142 l 1,25,-1
 110 142 l 1,26,-1
 598 1372 l 1,27,-1
 744 1372 l 1,24,-1
298 1044 m 0,28,29
 298 1080 298 1080 273 1112 c 128,-1,30
 248 1144 248 1144 214 1144 c 0,31,32
 184 1144 184 1144 156 1113 c 128,-1,33
 128 1082 128 1082 128 1044 c 0,34,35
 128 1016 128 1016 152 974 c 1,36,37
 176 944 176 944 214 944 c 0,38,39
 298 944 298 944 298 1044 c 0,28,29
750 528 m 0,40,41
 750 564 750 564 724 596 c 128,-1,42
 698 628 698 628 664 628 c 0,43,44
 634 628 634 628 606 597 c 128,-1,45
 578 566 578 566 578 528 c 0,46,47
 578 500 578 500 602 458 c 1,48,49
 626 428 626 428 664 428 c 0,50,51
 692 428 692 428 726 458 c 1,52,53
 750 488 750 488 750 528 c 0,40,41
EndSplineSet
EndChar

StartChar: ampersand
Encoding: 38 38 9
Width: 1034
GlyphClass: 2
Flags: W
LayerCount: 2
Fore
SplineSet
902 8 m 1,0,-1
 810 2 l 1,1,-1
 754 -4 l 1,2,-1
 676 98 l 1,3,4
 562 -2 562 -2 376 -2 c 0,5,6
 252 -2 252 -2 170 79 c 128,-1,7
 88 160 88 160 88 284 c 0,8,9
 88 496 88 496 260 586 c 2,10,-1
 310 612 l 1,11,-1
 248 730 l 1,12,-1
 232 778 l 1,13,-1
 226 828 l 1,14,15
 226 936 226 936 326 1008 c 0,16,17
 418 1076 418 1076 528 1076 c 0,18,19
 602 1076 602 1076 649 1029 c 128,-1,20
 696 982 696 982 696 908 c 0,21,22
 696 812 696 812 626 740 c 0,23,24
 578 692 578 692 470 634 c 1,25,-1
 450 614 l 1,26,-1
 512 514 l 1,27,-1
 598 390 l 1,28,-1
 720 218 l 1,29,-1
 772 314 l 2,30,31
 806 378 806 378 806 444 c 0,32,33
 806 484 806 484 784 506 c 1,34,-1
 796 544 l 1,35,-1
 902 544 l 1,36,-1
 896 506 l 1,37,38
 850 488 850 488 814 346 c 0,39,40
 774 186 774 186 766 176 c 1,41,-1
 902 8 l 1,0,-1
590 890 m 0,42,43
 590 1010 590 1010 468 1010 c 0,44,45
 416 1010 416 1010 369 974 c 128,-1,46
 322 938 322 938 322 886 c 0,47,48
 322 844 322 844 352 762 c 0,49,50
 360 740 360 740 406 662 c 1,51,52
 590 760 590 760 590 890 c 0,42,43
652 124 m 1,53,-1
 570 232 l 1,54,-1
 490 344 l 1,55,-1
 340 572 l 1,56,-1
 242 494 l 1,57,58
 178 424 178 424 178 326 c 0,59,60
 178 208 178 208 274 124 c 0,61,62
 354 54 354 54 468 54 c 0,63,64
 516 54 516 54 580 78 c 0,65,66
 606 88 606 88 610 94 c 2,67,-1
 652 124 l 1,53,-1
EndSplineSet
EndChar

StartChar: quotesingle
Encoding: 39 39 10
Width: 520
GlyphClass: 2
Flags: W
LayerCount: 2
Fore
SplineSet
392 1540 m 1,0,-1
 386 1498 l 1,1,-1
 382 1416 l 2,2,3
 380 1338 380 1338 370 1212 c 1,4,5
 336 1092 336 1092 308 950 c 0,6,7
 302 922 302 922 262 922 c 0,8,9
 226 922 226 922 210 950 c 1,10,-1
 134 1210 l 1,11,12
 128 1246 128 1246 128 1330 c 2,13,-1
 128 1416 l 2,14,15
 128 1532 128 1532 132 1540 c 0,16,17
 148 1554 148 1554 168 1584 c 1,18,-1
 260 1604 l 1,19,20
 298 1604 298 1604 350 1584 c 1,21,-1
 382 1552 l 1,22,-1
 392 1540 l 1,0,-1
EndSplineSet
EndChar

StartChar: parenleft
Encoding: 40 40 11
Width: 544
GlyphClass: 2
Flags: W
LayerCount: 2
Fore
SplineSet
512 -488 m 1,0,-1
 368 -488 l 1,1,2
 20 -80 20 -80 20 476 c 0,3,4
 20 748 20 748 111 1019 c 128,-1,5
 202 1290 202 1290 368 1496 c 1,6,-1
 512 1496 l 1,7,8
 376 1304 376 1304 300 1042 c 0,9,10
 250 870 250 870 240 772 c 2,11,-1
 226 638 l 1,12,-1
 220 494 l 2,13,14
 198 -32 198 -32 512 -488 c 1,0,-1
EndSplineSet
EndChar

StartChar: parenright
Encoding: 41 41 12
Width: 540
GlyphClass: 2
Flags: W
LayerCount: 2
Fore
SplineSet
498 476 m 0,0,1
 498 -76 498 -76 152 -488 c 1,2,-1
 8 -488 l 1,3,4
 298 -66 298 -66 298 494 c 0,5,6
 298 624 298 624 280 768 c 2,7,-1
 272 832 l 1,8,-1
 258 902 l 1,9,-1
 222 1036 l 2,10,11
 154 1292 154 1292 8 1496 c 1,12,-1
 152 1496 l 1,13,14
 318 1292 318 1292 410 1014 c 0,15,16
 498 748 498 748 498 476 c 0,0,1
EndSplineSet
EndChar

StartChar: asterisk
Encoding: 42 42 13
Width: 868
GlyphClass: 2
Flags: W
LayerCount: 2
Fore
SplineSet
792 700 m 1,0,1
 792 628 792 628 710 590 c 1,2,-1
 566 578 l 1,3,-1
 446 540 l 1,4,-1
 446 516 l 1,5,-1
 566 480 l 1,6,-1
 710 468 l 1,7,8
 786 440 786 440 786 368 c 0,9,10
 786 326 786 326 755 292 c 128,-1,11
 724 258 724 258 684 258 c 0,12,13
 652 258 652 258 626 274 c 1,14,-1
 540 394 l 1,15,-1
 446 492 l 1,16,-1
 430 492 l 1,17,-1
 430 446 l 1,18,-1
 446 430 l 1,19,-1
 446 372 l 1,20,-1
 504 226 l 1,21,-1
 504 176 l 2,22,23
 504 148 504 148 474 106 c 1,24,25
 444 82 444 82 404 82 c 0,26,27
 382 82 382 82 336 106 c 1,28,29
 308 130 308 130 308 176 c 2,30,-1
 308 226 l 1,31,-1
 382 372 l 1,32,-1
 382 430 l 1,33,-1
 394 446 l 1,34,-1
 394 492 l 1,35,-1
 382 492 l 1,36,-1
 286 394 l 1,37,-1
 204 274 l 1,38,-1
 150 260 l 1,39,40
 114 260 114 260 82 283 c 128,-1,41
 50 306 50 306 32 360 c 1,42,43
 32 438 32 438 118 468 c 1,44,-1
 262 480 l 1,45,-1
 382 516 l 1,46,-1
 382 540 l 1,47,-1
 262 578 l 1,48,-1
 118 590 l 1,49,50
 32 626 32 626 32 700 c 1,51,52
 38 738 38 738 74 767 c 128,-1,53
 110 796 110 796 148 796 c 0,54,55
 182 796 182 796 204 782 c 1,56,-1
 286 660 l 1,57,-1
 382 566 l 1,58,-1
 394 566 l 1,59,-1
 394 614 l 1,60,-1
 382 626 l 1,61,-1
 382 684 l 1,62,-1
 308 832 l 1,63,-1
 308 878 l 2,64,65
 308 914 308 914 338 943 c 128,-1,66
 368 972 368 972 404 972 c 0,67,68
 444 972 444 972 474 945 c 128,-1,69
 504 918 504 918 504 878 c 2,70,-1
 504 832 l 1,71,-1
 446 684 l 1,72,-1
 446 626 l 1,73,-1
 430 614 l 1,74,-1
 430 566 l 1,75,-1
 446 566 l 1,76,-1
 540 660 l 1,77,-1
 626 782 l 1,78,79
 648 796 648 796 678 796 c 0,80,81
 718 798 718 798 750 772 c 1,82,83
 780 754 780 754 792 700 c 1,0,1
EndSplineSet
EndChar

StartChar: plus
Encoding: 43 43 14
Width: 1062
GlyphClass: 2
Flags: W
LayerCount: 2
Fore
SplineSet
1002 724 m 1,0,-1
 578 724 l 1,1,-1
 578 298 l 1,2,-1
 480 298 l 1,3,-1
 480 722 l 1,4,-1
 54 722 l 1,5,-1
 54 820 l 1,6,-1
 478 820 l 1,7,-1
 478 1246 l 1,8,-1
 576 1246 l 1,9,-1
 576 822 l 1,10,-1
 1002 822 l 1,11,-1
 1002 724 l 1,0,-1
EndSplineSet
EndChar

StartChar: comma
Encoding: 44 44 15
Width: 510
GlyphClass: 2
Flags: W
LayerCount: 2
Fore
SplineSet
406 80 m 0,0,1
 406 36 406 36 398 0 c 2,2,-1
 384 -64 l 2,3,4
 346 -236 346 -236 104 -320 c 1,5,-1
 104 -222 l 1,6,7
 162 -222 162 -222 218 -179 c 128,-1,8
 274 -136 274 -136 274 -80 c 0,9,10
 274 -34 274 -34 218 -16 c 1,11,12
 192 -16 192 -16 176 -26 c 1,13,-1
 132 -36 l 1,14,15
 110 -36 110 -36 70 6 c 1,16,-1
 54 40 l 1,17,-1
 48 82 l 1,18,19
 48 154 48 154 97 207 c 128,-1,20
 146 260 146 260 218 260 c 0,21,22
 298 260 298 260 352 209 c 128,-1,23
 406 158 406 158 406 80 c 0,0,1
EndSplineSet
EndChar

StartChar: hyphen
Encoding: 45 45 16
Width: 1140
GlyphClass: 2
Flags: W
LayerCount: 2
Fore
SplineSet
1090 404 m 1,0,-1
 50 410 l 1,1,-1
 54 540 l 1,2,-1
 1090 542 l 1,3,-1
 1090 404 l 1,0,-1
EndSplineSet
EndChar

StartChar: period
Encoding: 46 46 17
Width: 450
GlyphClass: 2
Flags: W
LayerCount: 2
Fore
SplineSet
372 114 m 0,0,1
 372 50 372 50 325 1 c 128,-1,2
 278 -48 278 -48 214 -48 c 0,3,4
 146 -48 146 -48 100 -1 c 128,-1,5
 54 46 54 46 54 114 c 0,6,7
 54 174 54 174 104 224 c 128,-1,8
 154 274 154 274 214 274 c 0,9,10
 280 274 280 274 326 227 c 128,-1,11
 372 180 372 180 372 114 c 0,0,1
EndSplineSet
EndChar

StartChar: slash
Encoding: 47 47 18
Width: 484
GlyphClass: 2
Flags: W
LayerCount: 2
Fore
SplineSet
530 1496 m 1,0,-1
 -2 -292 l 1,1,-1
 -150 -292 l 1,2,-1
 384 1496 l 1,3,-1
 530 1496 l 1,0,-1
EndSplineSet
EndChar

StartChar: zero
Encoding: 48 48 19
Width: 894
GlyphClass: 2
Flags: W
LayerCount: 2
Fore
SplineSet
820 590 m 0,0,1
 820 478 820 478 798 380.5 c 128,-1,2
 776 283 776 283 734 202 c 0,3,4
 679 102 679 102 600.5 49 c 128,-1,5
 522 -4 522 -4 422 -4 c 0,6,7
 211 -4 211 -4 119 190 c 2,8,-1
 78 273 l 1,9,-1
 48 350 l 1,10,11
 26 431 26 431 21 550 c 2,12,-1
 19 595 l 2,13,14
 15 696 15 696 42 795 c 128,-1,15
 69 894 69 894 121 986 c 0,16,17
 177 1081 177 1081 253.5 1133.5 c 128,-1,18
 330 1186 330 1186 422 1186 c 0,19,20
 613 1186 613 1186 727 979 c 0,21,22
 820 806 820 806 820 590 c 0,0,1
686 565 m 1,23,-1
 685 590 l 2,24,25
 681 638 681 638 675.5 684 c 128,-1,26
 670 730 670 730 663 771.5 c 128,-1,27
 656 813 656 813 647.5 847.5 c 128,-1,28
 639 882 639 882 630 906 c 0,29,30
 598 998 598 998 545.5 1042.5 c 128,-1,31
 493 1087 493 1087 422 1087 c 0,32,33
 356 1087 356 1087 302 1040.5 c 128,-1,34
 248 994 248 994 210 906 c 0,35,36
 199 880 199 880 190 843.5 c 128,-1,37
 181 807 181 807 171 762 c 0,38,39
 163 724 163 724 159.5 680 c 128,-1,40
 156 636 156 636 156 590 c 2,41,-1
 156 545 l 2,42,43
 156 94 156 94 422 94 c 0,44,45
 686 94 686 94 686 543 c 2,46,-1
 686 565 l 1,23,-1
EndSplineSet
EndChar

StartChar: one
Encoding: 49 49 20
Width: 484
GlyphClass: 2
Flags: W
LayerCount: 2
Fore
SplineSet
423 -4 m 1,0,-1
 288 -4 l 1,1,-1
 288 814 l 1,2,-1
 16 814 l 1,3,-1
 16 911 l 1,4,-1
 103 911 l 2,5,6
 145 911 145 911 182 925 c 128,-1,7
 219 939 219 939 254 966 c 0,8,9
 325 1019 325 1019 325 1097 c 2,10,-1
 325 1144 l 1,11,-1
 423 1144 l 1,12,-1
 423 -4 l 1,0,-1
EndSplineSet
EndChar

StartChar: two
Encoding: 50 50 21
Width: 878
GlyphClass: 2
Flags: W
LayerCount: 2
Fore
SplineSet
804 -4 m 1,0,-1
 5 -4 l 1,1,2
 5 210 5 210 180 370 c 1,3,-1
 497 568 l 2,4,5
 581 622 581 622 624.5 677 c 128,-1,6
 668 732 668 732 668 785 c 0,7,8
 668 881 668 881 585 958 c 0,9,10
 501 1037 501 1037 405 1037 c 0,11,12
 310 1037 310 1037 244 968 c 0,13,14
 209 931 209 931 191.5 890.5 c 128,-1,15
 174 850 174 850 174 803 c 0,16,17
 174 768 174 768 187 735 c 1,18,-1
 46 735 l 1,19,-1
 39 806 l 1,20,21
 39 948 39 948 150 1047 c 0,22,23
 207 1097 207 1097 270 1120.5 c 128,-1,24
 333 1144 333 1144 405 1144 c 0,25,26
 489 1144 489 1144 558 1121 c 128,-1,27
 627 1098 627 1098 684 1050 c 0,28,29
 804 948 804 948 804 785 c 0,30,31
 804 701 804 701 761 634.5 c 128,-1,32
 718 568 718 568 635 522 c 2,33,-1
 330 350 l 2,34,35
 166 258 166 258 160 132 c 1,36,-1
 804 132 l 1,37,-1
 804 -4 l 1,0,-1
EndSplineSet
EndChar

StartChar: three
Encoding: 51 51 22
Width: 878
GlyphClass: 2
Flags: W
LayerCount: 2
Fore
SplineSet
804 346 m 0,0,1
 804 205 804 205 674 93 c 0,2,3
 558 -4 558 -4 405 -4 c 0,4,5
 247 -4 247 -4 134 94 c 0,6,7
 76 146 76 146 46 213.5 c 128,-1,8
 16 281 16 281 16 366 c 1,9,-1
 123 366 l 1,10,11
 123 306 123 306 144 256 c 128,-1,12
 165 206 165 206 204 169 c 0,13,14
 246 133 246 133 296 113.5 c 128,-1,15
 346 94 346 94 405 94 c 0,16,17
 503 94 503 94 582 168 c 0,18,19
 660 240 660 240 660 337 c 0,20,21
 660 417 660 417 608 492 c 0,22,23
 554 570 554 570 474 570 c 2,24,-1
 325 570 l 1,25,-1
 325 680 l 1,26,-1
 480 680 l 1,27,28
 549 706 549 706 588.5 753.5 c 128,-1,29
 628 801 628 801 628 864 c 0,30,31
 628 952 628 952 563 1013 c 0,32,33
 529 1045 529 1045 489.5 1061.5 c 128,-1,34
 450 1078 450 1078 405 1078 c 0,35,36
 307 1078 307 1078 236 993 c 0,37,38
 176 924 176 924 147 804 c 1,39,-1
 33 804 l 1,40,41
 33 884 33 884 61.5 952.5 c 128,-1,42
 90 1021 90 1021 146 1078 c 0,43,44
 254 1186 254 1186 405 1186 c 0,45,46
 544 1186 544 1186 648 1103 c 0,47,48
 763 1010 763 1010 763 874 c 0,49,50
 763 805 763 805 726 743.5 c 128,-1,51
 689 682 689 682 620 631 c 1,52,53
 657 614 657 614 690.5 585.5 c 128,-1,54
 724 557 724 557 748 524 c 0,55,56
 775 483 775 483 789.5 438 c 128,-1,57
 804 393 804 393 804 346 c 0,0,1
EndSplineSet
EndChar

StartChar: four
Encoding: 52 52 23
Width: 894
GlyphClass: 2
Flags: W
LayerCount: 2
Fore
SplineSet
820 279 m 1,0,-1
 662 279 l 1,1,-1
 662 -4 l 1,2,-1
 527 -4 l 1,3,-1
 527 279 l 1,4,-1
 21 279 l 1,5,-1
 21 438 l 1,6,-1
 533 1107 l 1,7,-1
 662 1107 l 1,8,-1
 662 404 l 1,9,-1
 820 404 l 1,10,-1
 820 279 l 1,0,-1
527 404 m 1,11,-1
 527 929 l 1,12,-1
 311 639 l 1,13,-1
 156 430 l 1,14,-1
 156 404 l 1,15,-1
 527 404 l 1,11,-1
EndSplineSet
EndChar

StartChar: five
Encoding: 53 53 24
Width: 855
GlyphClass: 2
Flags: W
LayerCount: 2
Fore
SplineSet
784 378 m 0,0,1
 784 222 784 222 667 107 c 0,2,3
 550 -4 550 -4 386 -4 c 0,4,5
 252 -4 252 -4 142 75 c 0,6,7
 80 120 80 120 48 176 c 128,-1,8
 16 232 16 232 16 299 c 1,9,-1
 129 299 l 1,10,11
 141 207 141 207 231 152 c 0,12,13
 308 104 308 104 396 104 c 0,14,15
 444 104 444 104 488.5 126.5 c 128,-1,16
 533 149 533 149 571 190 c 0,17,18
 608 232 608 232 628 279.5 c 128,-1,19
 648 327 648 327 648 378 c 0,20,21
 648 491 648 491 575 570 c 0,22,23
 505 650 505 650 394 650 c 0,24,25
 266 650 266 650 145 531 c 1,26,-1
 31 531 l 1,27,-1
 122 1133 l 1,28,-1
 733 1133 l 1,29,-1
 733 1008 l 1,30,-1
 209 1008 l 1,31,-1
 153 680 l 1,32,33
 209 718 209 718 267.5 735.5 c 128,-1,34
 326 753 326 753 397 753 c 0,35,36
 481 753 481 753 549 727 c 128,-1,37
 617 701 617 701 674 650 c 0,38,39
 784 545 784 545 784 378 c 0,0,1
EndSplineSet
EndChar

StartChar: six
Encoding: 54 54 25
Width: 855
GlyphClass: 2
Flags: W
LayerCount: 2
Fore
SplineSet
784 383 m 0,0,1
 784 213 784 213 677 107 c 0,2,3
 640 72 640 72 595.5 48 c 128,-1,4
 551 24 551 24 494 12 c 0,5,6
 476 10 476 10 457 9 c 128,-1,7
 438 8 438 8 415 8 c 0,8,9
 319 8 319 8 239 59 c 128,-1,10
 159 110 159 110 103 196 c 0,11,12
 61 267 61 267 38.5 349.5 c 128,-1,13
 16 432 16 432 16 522 c 0,14,15
 16 635 16 635 41.5 744 c 128,-1,16
 67 853 67 853 115 949 c 0,17,18
 172 1056 172 1056 252.5 1114 c 128,-1,19
 333 1172 333 1172 434 1172 c 0,20,21
 729 1172 729 1172 765 873 c 1,22,-1
 648 873 l 1,23,24
 641 968 641 968 581 1018 c 0,25,26
 552 1042 552 1042 515.5 1055 c 128,-1,27
 479 1068 479 1068 434 1068 c 0,28,29
 362 1068 362 1068 306.5 1026.5 c 128,-1,30
 251 985 251 985 210 905 c 1,31,-1
 211 905 l 1,32,33
 183 846 183 846 165.5 776 c 128,-1,34
 148 706 148 706 144 635 c 1,35,36
 251 742 251 742 410 742 c 0,37,38
 484 742 484 742 550 715 c 128,-1,39
 616 688 616 688 673 640 c 1,40,41
 727 587 727 587 755.5 522.5 c 128,-1,42
 784 458 784 458 784 383 c 0,0,1
660 387 m 0,43,44
 660 434 660 434 640.5 476.5 c 128,-1,45
 621 519 621 519 584 557 c 0,46,47
 511 636 511 636 415 636 c 0,48,49
 313 636 313 636 238 558 c 1,50,51
 160 487 160 487 160 387 c 0,52,53
 160 336 160 336 181 288 c 128,-1,54
 202 240 202 240 238 198 c 0,55,56
 274 160 274 160 320 136.5 c 128,-1,57
 366 113 366 113 415 113 c 0,58,59
 462 113 462 113 505.5 134 c 128,-1,60
 549 155 549 155 585 193 c 0,61,62
 597 208 597 208 611 228 c 128,-1,63
 625 248 625 248 638 276 c 1,64,-1
 638 275 l 1,65,66
 649 313 649 313 654.5 341 c 128,-1,67
 660 369 660 369 660 387 c 0,43,44
EndSplineSet
EndChar

StartChar: seven
Encoding: 55 55 26
Width: 761
GlyphClass: 2
Flags: W
LayerCount: 2
Fore
SplineSet
775 994 m 1,0,1
 671 887 671 887 584.5 760.5 c 128,-1,2
 498 634 498 634 436 505 c 1,3,-1
 402 409 l 1,4,-1
 402 410 l 1,5,-1
 359 274 l 2,6,7
 336 198 336 198 316 8 c 1,8,-1
 161 8 l 1,9,-1
 162 67 l 2,10,11
 162 87 162 87 170 119 c 2,12,-1
 182 194 l 1,13,-1
 204 253 l 2,14,15
 224 309 224 309 255.5 380.5 c 128,-1,16
 287 452 287 452 330 538 c 0,17,18
 396 663 396 663 472 777 c 128,-1,19
 548 891 548 891 624 979 c 1,20,-1
 57 979 l 1,21,-1
 54 1107 l 1,22,-1
 775 1107 l 1,23,-1
 775 994 l 1,0,1
EndSplineSet
EndChar

StartChar: eight
Encoding: 56 56 27
Width: 878
GlyphClass: 2
Flags: W
LayerCount: 2
Fore
SplineSet
804 346 m 0,0,1
 804 187 804 187 676 80 c 0,2,3
 560 -12 560 -12 405 -12 c 0,4,5
 327 -12 327 -12 257.5 13 c 128,-1,6
 188 38 188 38 129 85 c 0,7,8
 70 137 70 137 37.5 203.5 c 128,-1,9
 5 270 5 270 5 346 c 0,10,11
 5 391 5 391 21.5 437.5 c 128,-1,12
 38 484 38 484 70 529 c 0,13,14
 99 566 99 566 133.5 595.5 c 128,-1,15
 168 625 168 625 206 642 c 1,16,17
 134 688 134 688 94.5 749 c 128,-1,18
 55 810 55 810 55 882 c 0,19,20
 55 945 55 945 83 997.5 c 128,-1,21
 111 1050 111 1050 165 1094 c 0,22,23
 268 1172 268 1172 396 1172 c 0,24,25
 466 1172 466 1172 527 1155 c 128,-1,26
 588 1138 588 1138 639 1102 c 0,27,28
 696 1060 696 1060 724.5 1006.5 c 128,-1,29
 753 953 753 953 753 882 c 0,30,31
 753 846 753 846 738.5 808 c 128,-1,32
 724 770 724 770 698 732 c 0,33,34
 676 703 676 703 651 682 c 128,-1,35
 626 661 626 661 596 643 c 1,36,37
 634 630 634 630 668.5 601.5 c 128,-1,38
 703 573 703 573 732 535 c 0,39,40
 767 486 767 486 785.5 437.5 c 128,-1,41
 804 389 804 389 804 346 c 0,0,1
618 882 m 0,42,43
 618 924 618 924 602 958.5 c 128,-1,44
 586 993 586 993 558 1019 c 1,45,46
 530 1036 530 1036 490 1050.5 c 128,-1,47
 450 1065 450 1065 412 1065 c 0,48,49
 309 1065 309 1065 249 1011 c 1,50,51
 181 958 181 958 181 861 c 0,52,53
 181 820 181 820 196.5 787 c 128,-1,54
 212 754 212 754 239 731 c 0,55,56
 268 709 268 709 305 696.5 c 128,-1,57
 342 684 342 684 384 684 c 0,58,59
 478 684 478 684 547 736 c 0,60,61
 618 791 618 791 618 882 c 0,42,43
660 337 m 0,62,63
 660 377 660 377 637 418.5 c 128,-1,64
 614 460 614 460 574 500 c 0,65,66
 532 538 532 538 489.5 559 c 128,-1,67
 447 580 447 580 405 580 c 0,68,69
 301 580 301 580 221 504 c 0,70,71
 140 429 140 429 140 326 c 0,72,73
 140 227 140 227 216 166 c 0,74,75
 251 140 251 140 294.5 125.5 c 128,-1,76
 338 111 338 111 392 111 c 0,77,78
 501 111 501 111 577 169 c 0,79,80
 619 201 619 201 639.5 241.5 c 128,-1,81
 660 282 660 282 660 337 c 0,62,63
EndSplineSet
EndChar

StartChar: nine
Encoding: 57 57 28
Width: 855
GlyphClass: 2
Flags: W
LayerCount: 2
Fore
SplineSet
784 646 m 0,0,1
 784 410 784 410 684 222 c 0,2,3
 624 116 624 116 543.5 56 c 128,-1,4
 463 -4 463 -4 368 -4 c 0,5,6
 227 -4 227 -4 144 71 c 128,-1,7
 61 146 61 146 31 299 c 1,8,-1
 149 299 l 1,9,10
 149 104 149 104 368 104 c 0,11,12
 438 104 438 104 493.5 145.5 c 128,-1,13
 549 187 549 187 591 265 c 1,14,-1
 590 265 l 1,15,16
 617 325 617 325 634.5 395.5 c 128,-1,17
 652 466 652 466 656 535 c 1,18,19
 600 478 600 478 535 451.5 c 128,-1,20
 470 425 470 425 392 425 c 0,21,22
 239 425 239 425 127 530 c 0,23,24
 16 636 16 636 16 788 c 0,25,26
 16 957 16 957 117 1058 c 1,27,-1
 117 1057 l 1,28,29
 166 1111 166 1111 233.5 1137 c 128,-1,30
 301 1163 301 1163 386 1163 c 0,31,32
 484 1163 484 1163 561.5 1114.5 c 128,-1,33
 639 1066 639 1066 696 974 c 0,34,35
 739 901 739 901 761.5 818.5 c 128,-1,36
 784 736 784 736 784 646 c 0,0,1
636 785 m 0,37,38
 636 836 636 836 616 884 c 128,-1,39
 596 932 596 932 561 974 c 0,40,41
 524 1014 524 1014 479 1036 c 128,-1,42
 434 1058 434 1058 386 1058 c 0,43,44
 335 1058 335 1058 291 1036 c 128,-1,45
 247 1014 247 1014 212 975 c 1,46,47
 182 935 182 935 161 884 c 128,-1,48
 140 833 140 833 140 785 c 0,49,50
 140 735 140 735 159.5 690.5 c 128,-1,51
 179 646 179 646 215 607 c 0,52,53
 251 570 251 570 294 550.5 c 128,-1,54
 337 531 337 531 386 531 c 0,55,56
 478 531 478 531 558 609 c 1,57,-1
 558 608 l 1,58,59
 596 649 596 649 616 692 c 128,-1,60
 636 735 636 735 636 785 c 0,37,38
EndSplineSet
EndChar

StartChar: colon
Encoding: 58 58 29
Width: 480
GlyphClass: 2
Flags: W
LayerCount: 2
Fore
SplineSet
392 1014 m 0,0,1
 392 958 392 958 344 898 c 1,2,3
 294 854 294 854 232 854 c 0,4,5
 166 854 166 854 120 901 c 128,-1,6
 74 948 74 948 74 1014 c 0,7,8
 74 1078 74 1078 121 1127 c 128,-1,9
 168 1176 168 1176 232 1176 c 0,10,11
 320 1176 320 1176 368 1100 c 0,12,13
 392 1064 392 1064 392 1014 c 0,0,1
392 152 m 0,14,15
 392 96 392 96 344 36 c 1,16,17
 294 -8 294 -8 232 -8 c 0,18,19
 166 -8 166 -8 120 39 c 128,-1,20
 74 86 74 86 74 152 c 0,21,22
 74 216 74 216 121 265 c 128,-1,23
 168 314 168 314 232 314 c 0,24,25
 320 314 320 314 368 238 c 0,26,27
 392 202 392 202 392 152 c 0,14,15
EndSplineSet
EndChar

StartChar: semicolon
Encoding: 59 59 30
Width: 480
GlyphClass: 2
Flags: W
LayerCount: 2
Fore
SplineSet
372 960 m 0,0,1
 372 904 372 904 324 844 c 1,2,3
 274 800 274 800 212 800 c 0,4,5
 146 800 146 800 100 848 c 128,-1,6
 54 896 54 896 54 962 c 0,7,8
 54 1022 54 1022 104 1072 c 128,-1,9
 154 1122 154 1122 214 1122 c 0,10,11
 300 1122 300 1122 348 1046 c 0,12,13
 372 1010 372 1010 372 960 c 0,0,1
396 94 m 1,14,-1
 380 -44 l 2,15,16
 352 -282 352 -282 104 -320 c 1,17,-1
 104 -222 l 1,18,19
 158 -222 158 -222 209 -173 c 128,-1,20
 260 -124 260 -124 260 -70 c 0,21,22
 260 -12 260 -12 220 -12 c 1,23,-1
 176 -24 l 2,24,25
 146 -36 146 -36 130 -36 c 0,26,27
 90 -36 90 -36 70 6 c 2,28,-1
 54 40 l 1,29,-1
 48 82 l 1,30,31
 48 156 48 156 97 209 c 128,-1,32
 146 262 146 262 220 262 c 256,33,34
 294 262 294 262 345 215 c 128,-1,35
 396 168 396 168 396 94 c 1,14,-1
EndSplineSet
EndChar

StartChar: less
Encoding: 60 60 31
Width: 1834
GlyphClass: 2
Flags: W
LayerCount: 2
Fore
SplineSet
1240 286 m 1,0,-1
 1124 164 l 1,1,-1
 480 804 l 1,2,-1
 1120 1442 l 1,3,-1
 1240 1326 l 1,4,-1
 722 804 l 1,5,-1
 1240 286 l 1,0,-1
EndSplineSet
EndChar

StartChar: equal
Encoding: 61 61 32
Width: 970
GlyphClass: 2
Flags: W
LayerCount: 2
Fore
SplineSet
928 864 m 1,0,-1
 54 862 l 1,1,-1
 54 1000 l 1,2,-1
 928 1002 l 1,3,-1
 928 864 l 1,0,-1
928 524 m 1,4,-1
 54 522 l 1,5,-1
 54 660 l 1,6,-1
 928 662 l 1,7,-1
 928 524 l 1,4,-1
EndSplineSet
EndChar

StartChar: greater
Encoding: 62 62 33
Width: 1834
GlyphClass: 2
Flags: W
LayerCount: 2
Fore
SplineSet
1334 764 m 1,0,-1
 692 124 l 1,1,-1
 574 246 l 1,2,-1
 1092 764 l 1,3,-1
 574 1286 l 1,4,-1
 694 1402 l 1,5,-1
 1334 764 l 1,0,-1
EndSplineSet
EndChar

StartChar: question
Encoding: 63 63 34
Width: 1414
GlyphClass: 2
Flags: W
LayerCount: 2
Fore
SplineSet
1324 1110 m 0,0,1
 1324 966 1324 966 1226 866 c 2,2,-1
 1044 682 l 2,3,4
 938 574 938 574 946 450 c 2,5,-1
 950 394 l 1,6,-1
 778 394 l 1,7,-1
 772 458 l 1,8,9
 772 598 772 598 864 694 c 2,10,-1
 1036 874 l 2,11,12
 1128 970 1128 970 1128 1102 c 0,13,14
 1128 1208 1128 1208 1059 1286 c 128,-1,15
 990 1364 990 1364 886 1364 c 0,16,17
 766 1364 766 1364 688 1267 c 128,-1,18
 610 1170 610 1170 610 1046 c 1,19,-1
 454 1046 l 1,20,-1
 450 1104 l 2,21,22
 438 1268 438 1268 590 1392 c 0,23,24
 716 1496 716 1496 898 1496 c 0,25,26
 1070 1496 1070 1496 1194 1390 c 0,27,28
 1324 1278 1324 1278 1324 1110 c 0,0,1
1018 98 m 0,29,30
 1018 38 1018 38 977 -4 c 128,-1,31
 936 -46 936 -46 876 -46 c 256,32,33
 816 -46 816 -46 774 -4 c 128,-1,34
 732 38 732 38 732 98 c 256,35,36
 732 158 732 158 774 200 c 128,-1,37
 816 242 816 242 876 242 c 0,38,39
 932 242 932 242 975 198 c 128,-1,40
 1018 154 1018 154 1018 98 c 0,29,30
EndSplineSet
EndChar

StartChar: at
Encoding: 64 64 35
Width: 2030
GlyphClass: 2
Flags: W
LayerCount: 2
Fore
SplineSet
1958 18 m 1,0,1
 1868 -208 1868 -208 1500 -358 c 1,2,-1
 1316 -404 l 1,3,-1
 1216 -416 l 1,4,-1
 1096 -420 l 2,5,6
 908 -426 908 -426 726 -372 c 0,7,8
 528 -314 528 -314 394 -202 c 0,9,10
 116 32 116 32 108 458 c 0,11,12
 104 702 104 702 220 940 c 0,13,14
 472 1456 472 1456 1076 1458 c 0,15,16
 1218 1458 1218 1458 1304 1434 c 2,17,-1
 1408 1404 l 2,18,19
 1420 1400 1420 1400 1456 1384 c 0,20,21
 1470 1378 1470 1378 1510 1358 c 0,22,23
 1696 1260 1696 1260 1802 1084 c 128,-1,24
 1908 908 1908 908 1910 696 c 0,25,26
 1912 424 1912 424 1710 194 c 0,27,28
 1536 -4 1536 -4 1322 -4 c 2,29,-1
 1296 -4 l 1,30,-1
 1258 0 l 2,31,32
 1198 6 1198 6 1152 76 c 0,33,34
 1140 94 1140 94 1134 160 c 1,35,36
 1012 2 1012 2 834 -2 c 0,37,38
 642 -6 642 -6 534 204 c 0,39,40
 480 310 480 310 480 436 c 0,41,42
 480 588 480 588 555 737 c 128,-1,43
 630 886 630 886 753 971 c 128,-1,44
 876 1056 876 1056 988 1058 c 0,45,46
 1166 1060 1166 1060 1282 878 c 1,47,-1
 1316 1030 l 1,48,-1
 1490 1030 l 1,49,-1
 1320 224 l 1,50,51
 1320 172 1320 172 1388 160 c 1,52,53
 1482 160 1482 160 1602 288 c 0,54,55
 1764 462 1764 462 1766 700 c 0,56,57
 1768 870 1768 870 1674 1012 c 0,58,59
 1588 1144 1588 1144 1432 1230 c 0,60,61
 1382 1258 1382 1258 1260 1294 c 1,62,-1
 1170 1310 l 1,63,-1
 1068 1316 l 2,64,65
 864 1328 864 1328 650 1212 c 0,66,67
 462 1110 462 1110 354 898 c 0,68,69
 254 702 254 702 252 474 c 0,70,71
 250 248 250 248 346 78 c 0,72,73
 450 -104 450 -104 653 -189 c 128,-1,74
 856 -274 856 -274 1094 -276 c 0,75,76
 1558 -280 1558 -280 1782 18 c 1,77,-1
 1958 18 l 1,0,1
1226 634 m 0,78,79
 1226 746 1226 746 1170 824 c 0,80,81
 1108 914 1108 914 1000 914 c 0,82,83
 886 914 886 914 792 800 c 0,84,85
 722 716 722 716 682 578 c 0,86,87
 664 514 664 514 662 424 c 0,88,89
 660 314 660 314 710 236 c 0,90,91
 766 144 766 144 870 142 c 0,92,93
 976 138 976 138 1070 238 c 0,94,95
 1148 320 1148 320 1190 436 c 0,96,97
 1226 536 1226 536 1226 634 c 0,78,79
EndSplineSet
EndChar

StartChar: bracketleft
Encoding: 91 91 36
Width: 556
GlyphClass: 2
Flags: W
LayerCount: 2
Fore
SplineSet
524 -398 m 1,0,-1
 136 -398 l 1,1,-1
 136 1432 l 1,2,-1
 524 1432 l 1,3,-1
 524 1286 l 1,4,-1
 312 1286 l 1,5,-1
 312 -252 l 1,6,-1
 524 -252 l 1,7,-1
 524 -398 l 1,0,-1
EndSplineSet
EndChar

StartChar: backslash
Encoding: 92 92 37
Width: 556
GlyphClass: 2
Flags: W
LayerCount: 2
Fore
SplineSet
556 -24 m 1,0,-1
 416 -24 l 1,1,-1
 0 1456 l 1,2,-1
 142 1456 l 1,3,-1
 556 -24 l 1,0,-1
EndSplineSet
EndChar

StartChar: bracketright
Encoding: 93 93 38
Width: 556
GlyphClass: 2
Flags: W
LayerCount: 2
Fore
SplineSet
426 -398 m 1,0,-1
 38 -398 l 1,1,-1
 38 -252 l 1,2,-1
 250 -252 l 1,3,-1
 250 1286 l 1,4,-1
 38 1286 l 1,5,-1
 38 1432 l 1,6,-1
 426 1432 l 1,7,-1
 426 -398 l 1,0,-1
EndSplineSet
EndChar

StartChar: asciicircum
Encoding: 94 94 39
Width: 938
GlyphClass: 2
Flags: W
LayerCount: 2
Fore
SplineSet
886 674 m 1,0,-1
 708 674 l 1,1,-1
 468 1256 l 1,2,-1
 234 674 l 1,3,-1
 52 674 l 1,4,-1
 398 1456 l 1,5,-1
 540 1456 l 1,6,-1
 886 674 l 1,0,-1
EndSplineSet
EndChar

StartChar: underscore
Encoding: 95 95 40
Width: 1112
GlyphClass: 2
Flags: W
LayerCount: 2
Fore
SplineSet
1134 -398 m 1,0,-1
 -30 -398 l 1,1,-1
 -30 -270 l 1,2,-1
 1134 -270 l 1,3,-1
 1134 -398 l 1,0,-1
EndSplineSet
EndChar

StartChar: grave
Encoding: 96 96 41
Width: 672
GlyphClass: 2
Flags: W
LayerCount: 2
Fore
SplineSet
690 990 m 1,0,-1
 626 960 l 1,1,-1
 450 1276 l 2,2,3
 444 1292 444 1292 444 1308 c 256,4,5
 444 1324 444 1324 448 1338 c 0,6,7
 460 1368 460 1368 492 1388 c 0,8,9
 504 1394 504 1394 528 1398 c 1,10,11
 586 1398 586 1398 610 1336 c 1,12,-1
 690 990 l 1,0,-1
EndSplineSet
EndChar

StartChar: braceleft
Encoding: 123 123 42
Width: 668
GlyphClass: 2
Flags: W
LayerCount: 2
Fore
SplineSet
622 -420 m 1,0,-1
 566 -420 l 2,1,2
 460 -420 460 -420 426 -404 c 1,3,4
 380 -392 380 -392 328 -334 c 0,5,6
 310 -314 310 -314 270 -206 c 1,7,8
 258 -128 258 -128 258 48 c 0,9,10
 258 246 258 246 242 292 c 1,11,12
 218 426 218 426 56 438 c 1,13,-1
 56 598 l 1,14,15
 204 598 204 598 242 744 c 1,16,-1
 252 854 l 1,17,-1
 258 974 l 2,18,19
 258 1034 258 1034 264 1200 c 0,20,21
 268 1316 268 1316 348 1396 c 0,22,23
 372 1420 372 1420 446 1446 c 1,24,-1
 516 1454 l 1,25,-1
 566 1456 l 1,26,-1
 622 1456 l 1,27,-1
 622 1302 l 1,28,-1
 590 1302 l 2,29,30
 494 1302 494 1302 454 1264 c 1,31,32
 422 1226 422 1226 422 1102 c 2,33,-1
 420 824 l 2,34,35
 420 792 420 792 412 780 c 1,36,37
 394 682 394 682 348 624 c 0,38,39
 310 574 310 574 218 518 c 1,40,41
 350 470 350 470 392 338 c 0,42,43
 418 256 418 256 422 78 c 2,44,-1
 426 -148 l 2,45,46
 428 -208 428 -208 466 -242 c 1,47,-1
 506 -258 l 1,48,49
 556 -268 556 -268 590 -268 c 2,50,-1
 622 -268 l 1,51,-1
 622 -420 l 1,0,-1
EndSplineSet
EndChar

StartChar: bar
Encoding: 124 124 43
Width: 520
GlyphClass: 2
Flags: W
LayerCount: 2
Fore
SplineSet
336 -420 m 1,0,-1
 184 -420 l 1,1,-1
 184 1456 l 1,2,-1
 336 1456 l 1,3,-1
 336 -420 l 1,0,-1
EndSplineSet
EndChar

StartChar: braceright
Encoding: 125 125 44
Width: 668
GlyphClass: 2
Flags: W
LayerCount: 2
Fore
SplineSet
612 438 m 1,0,1
 462 438 462 438 424 290 c 1,2,-1
 414 200 l 1,3,-1
 410 -34 l 2,4,5
 410 -86 410 -86 404 -154 c 0,6,7
 400 -234 400 -234 373 -282 c 128,-1,8
 346 -330 346 -330 312 -364 c 1,9,-1
 276 -386 l 1,10,-1
 222 -410 l 1,11,-1
 176 -418 l 1,12,-1
 100 -420 l 1,13,-1
 46 -420 l 1,14,-1
 46 -268 l 1,15,-1
 76 -268 l 2,16,17
 182 -268 182 -268 216 -218 c 0,18,19
 242 -180 242 -180 244 -66 c 2,20,-1
 246 124 l 1,21,-1
 252 244 l 2,22,23
 256 338 256 338 316 416 c 0,24,25
 366 484 366 484 448 518 c 1,26,27
 320 574 320 574 274 698 c 0,28,29
 244 780 244 780 244 958 c 2,30,-1
 244 1078 l 1,31,-1
 238 1200 l 2,32,33
 232 1302 232 1302 76 1302 c 2,34,-1
 46 1302 l 1,35,-1
 46 1456 l 1,36,-1
 100 1456 l 2,37,38
 204 1456 204 1456 250 1436 c 1,39,40
 346 1406 346 1406 396 1240 c 1,41,-1
 406 1138 l 1,42,-1
 410 988 l 2,43,44
 412 896 412 896 424 738 c 1,45,46
 438 652 438 652 544 608 c 1,47,-1
 576 600 l 1,48,-1
 612 598 l 1,49,-1
 612 438 l 1,0,1
EndSplineSet
EndChar

StartChar: asciitilde
Encoding: 126 126 45
Width: 1168
GlyphClass: 2
Flags: W
LayerCount: 2
Fore
SplineSet
1084 658 m 1,0,1
 1024 604 1024 604 960 572 c 1,2,3
 862 544 862 544 814 546 c 2,4,-1
 758 548 l 1,5,-1
 726 548 l 1,6,-1
 704 556 l 2,7,8
 666 566 666 566 524 628 c 0,9,10
 416 676 416 676 340 676 c 0,11,12
 276 676 276 676 222 650 c 1,13,-1
 162 612 l 1,14,-1
 136 592 l 1,15,-1
 84 544 l 1,16,-1
 84 744 l 1,17,18
 186 856 186 856 356 862 c 0,19,20
 380 862 380 862 480 844 c 1,21,22
 506 832 506 832 664 776 c 2,23,-1
 764 740 l 1,24,-1
 806 730 l 1,25,-1
 832 730 l 2,26,27
 948 730 948 730 1084 864 c 1,28,-1
 1084 658 l 1,0,1
EndSplineSet
EndChar

StartChar: cent
Encoding: 162 162 46
Width: 721
GlyphClass: 2
Flags: W
LayerCount: 2
Fore
SplineSet
598 156 m 1,0,1
 537 71 537 71 467 31 c 128,-1,2
 397 -9 397 -9 304 -17 c 1,3,-1
 228 -265 l 1,4,-1
 187 -265 l 1,5,-1
 262 -17 l 1,6,7
 177 -8 177 -8 128.5 47 c 128,-1,8
 80 102 80 102 80 188 c 0,9,10
 80 345 80 345 191.5 478.5 c 128,-1,11
 303 612 303 612 457 638 c 1,12,-1
 541 917 l 1,13,-1
 580 917 l 1,14,-1
 499 638 l 1,15,16
 580 638 580 638 616.5 607 c 128,-1,17
 653 576 653 576 653 523 c 0,18,19
 653 482 653 482 631.5 455.5 c 128,-1,20
 610 429 610 429 580 429 c 0,21,22
 557 429 557 429 544 442 c 128,-1,23
 531 455 531 455 531 476 c 0,24,25
 531 491 531 491 536 502 c 128,-1,26
 541 513 541 513 560.5 534.5 c 128,-1,27
 580 556 580 556 580 570 c 0,28,29
 580 578 580 578 575 585 c 0,30,31
 565 596 565 596 549.5 601 c 128,-1,32
 534 606 534 606 489 606 c 1,33,-1
 322 49 l 1,34,-1
 352 47 l 1,35,36
 470 47 470 47 580 173 c 1,37,-1
 598 156 l 1,0,1
284 57 m 1,38,-1
 445 598 l 1,39,40
 383 570 383 570 342 533 c 0,41,42
 274 467 274 467 237 380.5 c 128,-1,43
 200 294 200 294 200 205 c 0,44,45
 200 146 200 146 224 108 c 0,46,47
 243 81 243 81 284 57 c 1,38,-1
EndSplineSet
EndChar

StartChar: multiply
Encoding: 215 215 47
Width: 1242
GlyphClass: 2
Flags: W
LayerCount: 2
Fore
SplineSet
1012 400 m 1,0,-1
 926 314 l 1,1,-1
 630 608 l 1,2,-1
 334 314 l 1,3,-1
 248 400 l 1,4,-1
 542 696 l 1,5,-1
 248 990 l 1,6,-1
 336 1078 l 1,7,-1
 630 784 l 1,8,-1
 924 1078 l 1,9,-1
 1012 990 l 1,10,-1
 718 696 l 1,11,-1
 1012 400 l 1,0,-1
EndSplineSet
EndChar

StartChar: divide
Encoding: 247 247 48
Width: 1222
GlyphClass: 2
Flags: W
LayerCount: 2
Fore
SplineSet
740 986 m 0,0,1
 740 942 740 942 711 909 c 128,-1,2
 682 876 682 876 640 876 c 0,3,4
 592 876 592 876 556 903 c 128,-1,5
 520 930 520 930 520 976 c 256,6,7
 520 1022 520 1022 552 1054 c 128,-1,8
 584 1086 584 1086 630 1086 c 0,9,10
 674 1086 674 1086 707 1057 c 128,-1,11
 740 1028 740 1028 740 986 c 0,0,1
1052 630 m 1,12,-1
 214 630 l 1,13,-1
 214 754 l 1,14,-1
 1052 754 l 1,15,-1
 1052 630 l 1,12,-1
740 408 m 0,16,17
 740 364 740 364 711 331 c 128,-1,18
 682 298 682 298 640 298 c 0,19,20
 592 298 592 298 556 325 c 128,-1,21
 520 352 520 352 520 398 c 256,22,23
 520 444 520 444 552 476 c 128,-1,24
 584 508 584 508 630 508 c 0,25,26
 674 508 674 508 707 479 c 128,-1,27
 740 450 740 450 740 408 c 0,16,17
EndSplineSet
EndChar

StartChar: tm_visarga
Encoding: 2947 2947 49
Width: 1288
GlyphClass: 2
Flags: W
LayerCount: 2
Fore
SplineSet
776 814 m 256,0,1
 776 736 776 736 721 680 c 128,-1,2
 666 624 666 624 588 624 c 0,3,4
 508 624 508 624 454 679 c 128,-1,5
 400 734 400 734 400 814 c 0,6,7
 400 892 400 892 455 947 c 128,-1,8
 510 1002 510 1002 588 1002 c 256,9,10
 666 1002 666 1002 721 947 c 128,-1,11
 776 892 776 892 776 814 c 256,0,1
1196 214 m 256,12,13
 1196 136 1196 136 1141 80 c 128,-1,14
 1086 24 1086 24 1008 24 c 0,15,16
 928 24 928 24 874 79 c 128,-1,17
 820 134 820 134 820 214 c 0,18,19
 820 292 820 292 875 347 c 128,-1,20
 930 402 930 402 1008 402 c 256,21,22
 1086 402 1086 402 1141 347 c 128,-1,23
 1196 292 1196 292 1196 214 c 256,12,13
396 214 m 256,24,25
 396 136 396 136 341 80 c 128,-1,26
 286 24 286 24 208 24 c 0,27,28
 128 24 128 24 74 79 c 128,-1,29
 20 134 20 134 20 214 c 0,30,31
 20 292 20 292 75 347 c 128,-1,32
 130 402 130 402 208 402 c 256,33,34
 286 402 286 402 341 347 c 128,-1,35
 396 292 396 292 396 214 c 256,24,25
708 814 m 256,36,37
 708 864 708 864 673 899 c 128,-1,38
 638 934 638 934 588 934 c 0,39,40
 540 934 540 934 504 898 c 128,-1,41
 468 862 468 862 468 814 c 0,42,43
 468 764 468 764 503 728 c 128,-1,44
 538 692 538 692 588 692 c 256,45,46
 638 692 638 692 673 728 c 128,-1,47
 708 764 708 764 708 814 c 256,36,37
1128 214 m 256,48,49
 1128 264 1128 264 1093 299 c 128,-1,50
 1058 334 1058 334 1008 334 c 0,51,52
 960 334 960 334 924 298 c 128,-1,53
 888 262 888 262 888 214 c 0,54,55
 888 164 888 164 923 128 c 128,-1,56
 958 92 958 92 1008 92 c 256,57,58
 1058 92 1058 92 1093 128 c 128,-1,59
 1128 164 1128 164 1128 214 c 256,48,49
328 214 m 256,60,61
 328 264 328 264 293 299 c 128,-1,62
 258 334 258 334 208 334 c 0,63,64
 160 334 160 334 124 298 c 128,-1,65
 88 262 88 262 88 214 c 0,66,67
 88 164 88 164 123 128 c 128,-1,68
 158 92 158 92 208 92 c 256,69,70
 258 92 258 92 293 128 c 128,-1,71
 328 164 328 164 328 214 c 256,60,61
EndSplineSet
EndChar

StartChar: tm_a
Encoding: 2949 2949 50
Width: 1916
GlyphClass: 2
Flags: W
LayerCount: 2
Fore
SplineSet
1834 -232 m 1,0,-1
 1662 -232 l 1,1,-1
 1662 156 l 1,2,-1
 1468 156 l 1,3,4
 1384 -46 1384 -46 1158 -148 c 0,5,6
 970 -234 970 -234 724 -234 c 0,7,8
 442 -234 442 -234 246 -86 c 0,9,10
 72 44 72 44 72 188 c 0,11,12
 72 258 72 258 188 258 c 2,13,-1
 1322 258 l 1,14,-1
 1332 320 l 1,15,-1
 1336 396 l 2,16,17
 1344 554 1344 554 1241 675 c 128,-1,18
 1138 796 1138 796 966 792 c 2,19,-1
 884 790 l 2,20,21
 954 790 954 790 1006 731 c 128,-1,22
 1058 672 1058 672 1058 602 c 0,23,24
 1058 500 1058 500 991 441 c 128,-1,25
 924 382 924 382 820 382 c 0,26,27
 718 382 718 382 656 444 c 128,-1,28
 594 506 594 506 594 608 c 0,29,30
 594 738 594 738 716 820 c 0,31,32
 824 894 824 894 960 894 c 0,33,34
 1200 894 1200 894 1352 766 c 0,35,36
 1514 630 1514 630 1514 394 c 0,37,38
 1514 326 1514 326 1500 258 c 1,39,-1
 1662 258 l 1,40,-1
 1662 882 l 1,41,-1
 1834 882 l 1,42,-1
 1834 -232 l 1,0,-1
914 592 m 0,43,44
 914 640 914 640 883 673 c 128,-1,45
 852 706 852 706 804 706 c 0,46,47
 736 706 736 706 704 638 c 1,48,-1
 696 592 l 1,49,50
 696 546 696 546 727 512 c 128,-1,51
 758 478 758 478 804 478 c 0,52,53
 846 478 846 478 880 514 c 128,-1,54
 914 550 914 550 914 592 c 0,43,44
1290 156 m 1,55,-1
 258 156 l 2,56,57
 214 156 214 156 214 124 c 0,58,59
 212 4 212 4 406 -74 c 0,60,61
 554 -134 554 -134 700 -134 c 0,62,63
 1156 -134 1156 -134 1290 156 c 1,55,-1
EndSplineSet
EndChar

StartChar: tm_aa
Encoding: 2950 2950 51
Width: 2270
GlyphClass: 2
Flags: W
LayerCount: 2
Fore
SplineSet
2234 -132 m 0,0,1
 2234 -336 2234 -336 2066 -440 c 0,2,3
 1924 -528 1924 -528 1708 -528 c 0,4,5
 1560 -528 1560 -528 1428 -464 c 0,6,7
 1264 -384 1264 -384 1264 -252 c 0,8,9
 1264 -206 1264 -206 1301 -179 c 128,-1,10
 1338 -152 1338 -152 1382 -152 c 2,11,-1
 1554 -152 l 1,12,-1
 1554 -252 l 1,13,-1
 1414 -252 l 1,14,15
 1402 -260 1402 -260 1398 -266 c 1,16,17
 1398 -348 1398 -348 1514 -394 c 0,18,19
 1600 -428 1600 -428 1698 -428 c 0,20,21
 2078 -428 2078 -428 2078 -134 c 0,22,23
 2078 -80 2078 -80 2041 -45 c 128,-1,24
 2004 -10 2004 -10 1950 -10 c 0,25,26
 1898 -10 1898 -10 1866 -48 c 128,-1,27
 1834 -86 1834 -86 1834 -138 c 2,28,-1
 1834 -232 l 1,29,-1
 1662 -232 l 1,30,-1
 1662 156 l 1,31,-1
 1468 156 l 1,32,33
 1384 -46 1384 -46 1158 -148 c 0,34,35
 970 -234 970 -234 724 -234 c 0,36,37
 442 -234 442 -234 246 -86 c 0,38,39
 72 44 72 44 72 188 c 0,40,41
 72 258 72 258 188 258 c 2,42,-1
 1322 258 l 1,43,-1
 1332 320 l 1,44,-1
 1336 396 l 2,45,46
 1344 554 1344 554 1241 675 c 128,-1,47
 1138 796 1138 796 966 792 c 2,48,-1
 884 790 l 2,49,50
 954 790 954 790 1006 731 c 128,-1,51
 1058 672 1058 672 1058 602 c 0,52,53
 1058 500 1058 500 991 441 c 128,-1,54
 924 382 924 382 820 382 c 0,55,56
 718 382 718 382 656 444 c 128,-1,57
 594 506 594 506 594 608 c 0,58,59
 594 738 594 738 716 820 c 0,60,61
 824 894 824 894 960 894 c 0,62,63
 1200 894 1200 894 1352 766 c 0,64,65
 1514 630 1514 630 1514 394 c 0,66,67
 1514 326 1514 326 1500 258 c 1,68,-1
 1662 258 l 1,69,-1
 1662 882 l 1,70,-1
 1834 882 l 1,71,-1
 1834 44 l 1,72,73
 1870 92 1870 92 1958 92 c 0,74,75
 2070 92 2070 92 2146 36 c 0,76,77
 2234 -26 2234 -26 2234 -132 c 0,0,1
914 592 m 0,78,79
 914 640 914 640 883 673 c 128,-1,80
 852 706 852 706 804 706 c 0,81,82
 736 706 736 706 704 638 c 1,83,-1
 696 592 l 1,84,85
 696 546 696 546 727 512 c 128,-1,86
 758 478 758 478 804 478 c 0,87,88
 846 478 846 478 880 514 c 128,-1,89
 914 550 914 550 914 592 c 0,78,79
1290 156 m 1,90,-1
 258 156 l 2,91,92
 214 156 214 156 214 124 c 0,93,94
 212 4 212 4 406 -74 c 0,95,96
 554 -134 554 -134 700 -134 c 0,97,98
 1156 -134 1156 -134 1290 156 c 1,90,-1
EndSplineSet
EndChar

StartChar: tm_i
Encoding: 2951 2951 52
Width: 1712
GlyphClass: 2
Flags: W
LayerCount: 2
Fore
SplineSet
1626 -248 m 1,0,-1
 1526 -248 l 1,1,-1
 1526 352 l 2,2,3
 1526 1144 1526 1144 876 1144 c 0,4,5
 590 1144 590 1144 410 944 c 0,6,7
 250 766 250 766 250 480 c 0,8,9
 250 318 250 318 304 192 c 1,10,11
 526 306 526 306 816 306 c 2,12,-1
 886 306 l 2,13,14
 910 306 910 306 940 302 c 2,15,-1
 1032 290 l 1,16,-1
 1042 354 l 1,17,-1
 1046 426 l 2,18,19
 1050 492 1050 492 1032 572 c 0,20,21
 1014 640 1014 640 980 694 c 0,22,23
 916 794 916 794 782 794 c 0,24,25
 752 794 752 794 718 782 c 1,26,27
 798 782 798 782 848 727 c 128,-1,28
 898 672 898 672 898 592 c 0,29,30
 898 498 898 498 836 445 c 128,-1,31
 774 392 774 392 678 392 c 256,32,33
 582 392 582 392 526 448 c 128,-1,34
 470 504 470 504 470 600 c 0,35,36
 470 722 470 722 572 808 c 0,37,38
 666 886 666 886 796 886 c 0,39,40
 994 886 994 886 1110 752 c 0,41,42
 1220 626 1220 626 1220 426 c 0,43,44
 1220 318 1220 318 1198 252 c 1,45,46
 1432 168 1432 168 1432 -2 c 256,47,48
 1432 -172 1432 -172 1272 -250 c 0,49,50
 1146 -312 1146 -312 962 -312 c 0,51,52
 786 -312 786 -312 640 -254 c 1,53,54
 480 -294 480 -294 330 -294 c 0,55,56
 44 -294 44 -294 44 -118 c 0,57,58
 44 28 44 28 222 146 c 1,59,60
 156 302 156 302 156 490 c 0,61,62
 156 830 156 830 350 1058 c 0,63,64
 554 1298 554 1298 888 1298 c 0,65,66
 1244 1298 1244 1298 1444 1044 c 0,67,68
 1626 814 1626 814 1626 446 c 2,69,-1
 1626 -248 l 1,0,-1
720 600 m 0,70,71
 720 702 720 702 638 702 c 0,72,73
 602 702 602 702 581 668 c 128,-1,74
 560 634 560 634 560 594 c 0,75,76
 560 492 560 492 638 492 c 0,77,78
 720 492 720 492 720 600 c 0,70,71
1268 -4 m 0,79,80
 1268 90 1268 90 1164 156 c 1,81,82
 1056 -80 1056 -80 770 -208 c 1,83,84
 864 -232 864 -232 962 -232 c 0,85,86
 1086 -232 1086 -232 1168 -182 c 0,87,88
 1268 -122 1268 -122 1268 -4 c 0,79,80
1010 206 m 1,89,-1
 924 216 l 1,90,-1
 816 220 l 2,91,92
 700 224 700 224 570 198 c 0,93,94
 458 174 458 174 340 116 c 1,95,96
 442 -70 442 -70 642 -162 c 1,97,98
 918 -60 918 -60 1010 206 c 1,89,-1
524 -196 m 1,99,100
 356 -100 356 -100 260 68 c 1,101,102
 134 -16 134 -16 134 -110 c 0,103,104
 134 -214 134 -214 334 -214 c 0,105,106
 424 -214 424 -214 524 -196 c 1,99,100
EndSplineSet
EndChar

StartChar: tm_ii
Encoding: 2952 2952 53
Width: 1010
GlyphClass: 2
Flags: W
LayerCount: 2
Fore
SplineSet
944 438 m 0,0,1
 944 400 944 400 919 370 c 128,-1,2
 894 340 894 340 856 340 c 0,3,4
 822 340 822 340 794 371 c 128,-1,5
 766 402 766 402 766 438 c 0,6,7
 766 478 766 478 791 506 c 128,-1,8
 816 534 816 534 856 534 c 0,9,10
 890 534 890 534 917 503 c 128,-1,11
 944 472 944 472 944 438 c 0,0,1
932 782 m 1,12,-1
 680 782 l 1,13,-1
 680 0 l 1,14,-1
 508 0 l 1,15,-1
 508 782 l 1,16,-1
 200 782 l 1,17,-1
 200 0 l 1,18,-1
 100 0 l 1,19,-1
 100 882 l 1,20,-1
 932 882 l 1,21,-1
 932 782 l 1,12,-1
456 438 m 0,22,23
 456 400 456 400 431 370 c 128,-1,24
 406 340 406 340 368 340 c 0,25,26
 334 340 334 340 306 371 c 128,-1,27
 278 402 278 402 278 438 c 0,28,29
 278 478 278 478 303 506 c 128,-1,30
 328 534 328 534 368 534 c 0,31,32
 402 534 402 534 429 503 c 128,-1,33
 456 472 456 472 456 438 c 0,22,23
EndSplineSet
EndChar

StartChar: tm_u
Encoding: 2953 2953 54
Width: 2076
GlyphClass: 2
Flags: W
LayerCount: 2
Fore
SplineSet
1996 0 m 1,0,-1
 238 0 l 2,1,2
 58 0 58 0 58 144 c 0,3,4
 58 286 58 286 204 286 c 2,5,-1
 472 286 l 2,6,7
 802 286 802 286 802 544 c 0,8,9
 802 812 802 812 486 812 c 0,10,11
 430 812 430 812 402 798 c 1,12,13
 478 786 478 786 529 731 c 128,-1,14
 580 676 580 676 580 600 c 0,15,16
 580 500 580 500 516 445 c 128,-1,17
 452 390 452 390 350 390 c 0,18,19
 122 390 122 390 122 612 c 0,20,21
 122 752 122 752 244 836 c 0,22,23
 352 910 352 910 498 910 c 0,24,25
 702 910 702 910 824 838 c 0,26,27
 978 750 978 750 978 560 c 0,28,29
 978 396 978 396 868 296 c 128,-1,30
 758 196 758 196 594 196 c 2,31,-1
 292 196 l 2,32,33
 232 196 232 196 232 148 c 0,34,35
 232 102 232 102 286 102 c 2,36,-1
 1996 102 l 1,37,-1
 1996 0 l 1,0,-1
422 600 m 0,38,39
 422 644 422 644 396 676 c 128,-1,40
 370 708 370 708 326 708 c 0,41,42
 286 708 286 708 257 675 c 128,-1,43
 228 642 228 642 228 600 c 0,44,45
 228 560 228 560 259 526 c 128,-1,46
 290 492 290 492 326 492 c 0,47,48
 366 492 366 492 394 526 c 128,-1,49
 422 560 422 560 422 600 c 0,38,39
EndSplineSet
EndChar

StartChar: tm_uu
Encoding: 2954 2954 55
Width: 2306
GlyphClass: 2
Flags: W
LayerCount: 2
Fore
SplineSet
2222 782 m 1,0,-1
 2098 782 l 1,1,-1
 2098 168 l 1,2,-1
 1948 168 l 1,3,-1
 1948 782 l 1,4,-1
 1788 782 l 1,5,-1
 1788 168 l 1,6,-1
 1638 168 l 1,7,-1
 1638 488 l 2,8,9
 1638 790 1638 790 1392 790 c 0,10,11
 1300 790 1300 790 1238 716 c 0,12,13
 1184 652 1184 652 1172 554 c 1,14,15
 1234 612 1234 612 1300 612 c 0,16,17
 1422 612 1422 612 1480 498 c 0,18,19
 1498 462 1498 462 1498 406 c 0,20,21
 1498 308 1498 308 1450 238 c 0,22,23
 1396 158 1396 158 1302 158 c 0,24,25
 1190 158 1190 158 1134 278 c 0,26,27
 1092 368 1092 368 1092 496 c 0,28,29
 1092 652 1092 652 1180 768 c 0,30,31
 1276 896 1276 896 1426 896 c 0,32,33
 1624 896 1624 896 1692 762 c 1,34,-1
 1692 882 l 1,35,-1
 2222 882 l 1,36,-1
 2222 782 l 1,0,-1
2200 0 m 1,37,-1
 238 0 l 2,38,39
 58 0 58 0 58 144 c 0,40,41
 58 286 58 286 204 286 c 2,42,-1
 472 286 l 2,43,44
 802 286 802 286 802 544 c 0,45,46
 802 812 802 812 486 812 c 0,47,48
 430 812 430 812 402 798 c 1,49,50
 478 786 478 786 529 731 c 128,-1,51
 580 676 580 676 580 600 c 0,52,53
 580 500 580 500 516 445 c 128,-1,54
 452 390 452 390 350 390 c 0,55,56
 122 390 122 390 122 612 c 0,57,58
 122 752 122 752 244 836 c 0,59,60
 352 910 352 910 498 910 c 0,61,62
 702 910 702 910 824 838 c 0,63,64
 978 750 978 750 978 560 c 0,65,66
 978 396 978 396 868 296 c 128,-1,67
 758 196 758 196 594 196 c 2,68,-1
 292 196 l 2,69,70
 232 196 232 196 232 148 c 0,71,72
 232 102 232 102 286 102 c 2,73,-1
 2200 102 l 1,74,-1
 2200 0 l 1,37,-1
1370 384 m 0,75,76
 1370 430 1370 430 1350 468 c 0,77,78
 1326 514 1326 514 1284 514 c 0,79,80
 1250 514 1250 514 1224 476 c 1,81,-1
 1210 448 l 2,82,83
 1198 424 1198 424 1198 384 c 0,84,85
 1198 338 1198 338 1218 302 c 0,86,87
 1242 256 1242 256 1284 256 c 0,88,89
 1324 256 1324 256 1348 302 c 0,90,91
 1370 342 1370 342 1370 384 c 0,75,76
422 600 m 0,92,93
 422 644 422 644 396 676 c 128,-1,94
 370 708 370 708 326 708 c 0,95,96
 286 708 286 708 257 675 c 128,-1,97
 228 642 228 642 228 600 c 0,98,99
 228 560 228 560 259 526 c 128,-1,100
 290 492 290 492 326 492 c 0,101,102
 366 492 366 492 394 526 c 128,-1,103
 422 560 422 560 422 600 c 0,92,93
EndSplineSet
EndChar

StartChar: tm_e
Encoding: 2958 2958 56
Width: 1246
GlyphClass: 2
Flags: W
LayerCount: 2
Fore
SplineSet
1182 782 m 1,0,-1
 1004 782 l 1,1,-1
 1004 0 l 1,2,-1
 832 0 l 1,3,-1
 832 782 l 1,4,-1
 528 782 l 2,5,6
 394 782 394 782 304 696 c 128,-1,7
 214 610 214 610 196 476 c 1,8,9
 206 494 206 494 248 520 c 0,10,11
 308 556 308 556 388 556 c 0,12,13
 494 556 494 556 571 477 c 128,-1,14
 648 398 648 398 648 290 c 0,15,16
 648 160 648 160 582 78 c 0,17,18
 508 -10 508 -10 382 -10 c 0,19,20
 228 -10 228 -10 148 124 c 0,21,22
 82 234 82 234 82 400 c 0,23,24
 82 606 82 606 210 744 c 128,-1,25
 338 882 338 882 542 882 c 2,26,-1
 1182 882 l 1,27,-1
 1182 782 l 1,0,-1
486 274 m 256,28,29
 486 340 486 340 450 390 c 0,30,31
 410 448 410 448 348 448 c 256,32,33
 286 448 286 448 248 393 c 128,-1,34
 210 338 210 338 210 274 c 0,35,36
 210 208 210 208 246 158 c 0,37,38
 286 100 286 100 348 100 c 256,39,40
 410 100 410 100 450 158 c 0,41,42
 486 208 486 208 486 274 c 256,28,29
EndSplineSet
EndChar

StartChar: tm_ee
Encoding: 2959 2959 57
Width: 1260
GlyphClass: 2
Flags: W
LayerCount: 2
Fore
SplineSet
1182 782 m 1,0,-1
 1004 782 l 1,1,-1
 1004 -68 l 1,2,-1
 484 -414 l 1,3,-1
 484 -340 l 1,4,-1
 832 0 l 1,5,-1
 832 782 l 1,6,-1
 528 782 l 2,7,8
 394 782 394 782 304 696 c 128,-1,9
 214 610 214 610 196 476 c 1,10,11
 206 494 206 494 248 520 c 0,12,13
 308 556 308 556 388 556 c 0,14,15
 494 556 494 556 571 477 c 128,-1,16
 648 398 648 398 648 290 c 0,17,18
 648 160 648 160 582 78 c 0,19,20
 508 -10 508 -10 382 -10 c 0,21,22
 228 -10 228 -10 148 124 c 0,23,24
 82 234 82 234 82 400 c 0,25,26
 82 606 82 606 210 744 c 128,-1,27
 338 882 338 882 542 882 c 2,28,-1
 1182 882 l 1,29,-1
 1182 782 l 1,0,-1
486 274 m 256,30,31
 486 340 486 340 450 390 c 0,32,33
 410 448 410 448 348 448 c 256,34,35
 286 448 286 448 248 393 c 128,-1,36
 210 338 210 338 210 274 c 0,37,38
 210 208 210 208 246 158 c 0,39,40
 286 100 286 100 348 100 c 256,41,42
 410 100 410 100 450 158 c 0,43,44
 486 208 486 208 486 274 c 256,30,31
EndSplineSet
EndChar

StartChar: tm_ai
Encoding: 2960 2960 58
Width: 1580
GlyphClass: 2
Flags: W
LayerCount: 2
Fore
SplineSet
1500 534 m 0,0,1
 1500 326 1500 326 1377 218 c 128,-1,2
 1254 110 1254 110 1044 110 c 2,3,-1
 516 108 l 2,4,5
 266 108 266 108 266 -116 c 0,6,7
 266 -212 266 -212 330 -266 c 0,8,9
 388 -316 388 -316 486 -316 c 0,10,11
 606 -316 606 -316 678 -238 c 0,12,13
 732 -178 732 -178 732 -118 c 2,14,-1
 732 52 l 1,15,-1
 920 52 l 1,16,-1
 920 -112 l 2,17,18
 920 -312 920 -312 1128 -312 c 0,19,20
 1318 -312 1318 -312 1318 -156 c 0,21,22
 1318 -24 1318 -24 1204 -24 c 1,23,-1
 1204 58 l 1,24,-1
 1230 58 l 2,25,26
 1340 58 1340 58 1406 10 c 0,27,28
 1482 -46 1482 -46 1482 -152 c 0,29,30
 1482 -274 1482 -274 1384 -348 c 0,31,32
 1296 -414 1296 -414 1170 -414 c 0,33,34
 892 -414 892 -414 818 -212 c 1,35,36
 758 -414 758 -414 460 -414 c 0,37,38
 302 -414 302 -414 204 -340 c 0,39,40
 94 -258 94 -258 94 -104 c 0,41,42
 94 56 94 56 200 136 c 0,43,44
 294 208 294 208 458 208 c 2,45,-1
 1042 208 l 2,46,47
 1202 208 1202 208 1270 296 c 0,48,49
 1328 372 1328 372 1328 536 c 0,50,51
 1328 784 1328 784 1124 784 c 0,52,53
 1022 784 1022 784 970 690 c 0,54,55
 926 614 926 614 926 504 c 2,56,-1
 926 312 l 1,57,-1
 742 312 l 1,58,-1
 742 534 l 2,59,60
 742 664 742 664 628 742 c 1,61,62
 544 786 544 786 454 786 c 0,63,64
 358 786 358 786 302 758 c 0,65,66
 286 750 286 750 240 704 c 1,67,68
 306 722 306 722 322 722 c 0,69,70
 424 722 424 722 483 660 c 128,-1,71
 542 598 542 598 542 496 c 0,72,73
 542 382 542 382 464 312 c 0,74,75
 406 260 406 260 310 260 c 0,76,77
 206 260 206 260 144 350 c 0,78,79
 90 430 90 430 90 538 c 0,80,81
 90 696 90 696 193 792 c 128,-1,82
 296 888 296 888 454 888 c 0,83,84
 788 888 788 888 874 704 c 1,85,86
 950 888 950 888 1178 888 c 0,87,88
 1334 888 1334 888 1420 788 c 0,89,90
 1500 694 1500 694 1500 534 c 0,0,1
388 494 m 0,91,92
 388 542 388 542 363 582 c 128,-1,93
 338 622 338 622 292 622 c 0,94,95
 248 622 248 622 222 581 c 128,-1,96
 196 540 196 540 196 494 c 0,97,98
 196 444 196 444 218 408 c 0,99,100
 246 366 246 366 292 366 c 0,101,102
 336 366 336 366 364 410 c 0,103,104
 388 448 388 448 388 494 c 0,91,92
EndSplineSet
EndChar

StartChar: tm_o
Encoding: 2962 2962 59
Width: 1372
GlyphClass: 2
Flags: W
LayerCount: 2
Fore
SplineSet
1306 388 m 0,0,1
 1306 234 1306 234 1250 130 c 0,2,3
 1178 0 1178 0 1038 0 c 0,4,5
 948 0 948 0 888 70 c 0,6,7
 822 146 822 146 826 242 c 2,8,-1
 828 282 l 1,9,10
 804 216 804 216 804 150 c 0,11,12
 804 38 804 38 863 -27 c 128,-1,13
 922 -92 922 -92 1032 -92 c 2,14,-1
 1106 -92 l 1,15,-1
 1106 -194 l 1,16,-1
 1074 -194 l 2,17,18
 996 -194 996 -194 980 -278 c 1,19,20
 980 -396 980 -396 868 -466 c 0,21,22
 772 -528 772 -528 648 -528 c 0,23,24
 518 -528 518 -528 432 -468 c 0,25,26
 334 -400 334 -400 334 -276 c 0,27,28
 334 -180 334 -180 394 -132 c 1,29,-1
 470 -196 l 1,30,31
 440 -232 440 -232 440 -296 c 256,32,33
 440 -360 440 -360 500 -398 c 0,34,35
 552 -430 552 -430 620 -430 c 0,36,37
 724 -430 724 -430 772 -384 c 0,38,39
 796 -362 796 -362 824 -272 c 0,40,41
 846 -200 846 -200 904 -170 c 1,42,43
 810 -146 810 -146 754 -46 c 0,44,45
 702 44 702 44 702 148 c 0,46,47
 702 388 702 388 898 504 c 1,48,-1
 950 434 l 1,49,50
 902 370 902 370 902 248 c 0,51,52
 902 122 902 122 1010 122 c 0,53,54
 1142 122 1142 122 1142 376 c 0,55,56
 1142 566 1142 566 996 680 c 0,57,58
 862 786 862 786 668 786 c 2,59,-1
 622 786 l 2,60,61
 390 786 390 786 264 642 c 0,62,63
 170 536 170 536 170 382 c 0,64,65
 170 288 170 288 194 252 c 1,66,-1
 194 260 l 1,67,-1
 192 268 l 1,68,69
 192 366 192 366 240 426 c 0,70,71
 290 494 290 494 386 494 c 0,72,73
 492 494 492 494 544 408 c 0,74,75
 582 346 582 346 582 258 c 0,76,77
 582 146 582 146 522 76 c 128,-1,78
 462 6 462 6 352 6 c 0,79,80
 220 6 220 6 140 126 c 0,81,82
 70 230 70 230 70 370 c 0,83,84
 70 614 70 614 240 764 c 0,85,86
 398 904 398 904 652 904 c 2,87,-1
 718 904 l 2,88,89
 952 904 952 904 1122 764 c 0,90,91
 1306 616 1306 616 1306 388 c 0,0,1
458 258 m 0,92,93
 458 306 458 306 438 342 c 0,94,95
 414 386 414 386 370 386 c 0,96,97
 342 386 342 386 306 350 c 1,98,-1
 292 322 l 2,99,100
 280 298 280 298 280 258 c 0,101,102
 280 212 280 212 302 174 c 0,103,104
 326 130 326 130 370 130 c 0,105,106
 410 130 410 130 436 176 c 0,107,108
 458 214 458 214 458 258 c 0,92,93
EndSplineSet
EndChar

StartChar: tm_oo
Encoding: 2963 2963 60
Width: 1372
GlyphClass: 2
Flags: W
LayerCount: 2
Fore
SplineSet
1306 388 m 0,0,1
 1306 234 1306 234 1250 130 c 0,2,3
 1178 0 1178 0 1038 0 c 0,4,5
 948 0 948 0 888 70 c 0,6,7
 822 146 822 146 826 242 c 2,8,-1
 828 282 l 1,9,10
 804 216 804 216 804 150 c 0,11,12
 804 38 804 38 863 -27 c 128,-1,13
 922 -92 922 -92 1032 -92 c 2,14,-1
 1106 -92 l 1,15,-1
 1106 -194 l 1,16,-1
 1074 -194 l 2,17,18
 996 -194 996 -194 980 -278 c 1,19,20
 980 -398 980 -398 862 -468 c 0,21,22
 762 -528 762 -528 636 -528 c 256,23,24
 510 -528 510 -528 424 -476 c 0,25,26
 320 -414 320 -414 320 -296 c 0,27,28
 320 -200 320 -200 386 -143 c 128,-1,29
 452 -86 452 -86 548 -86 c 0,30,31
 668 -86 668 -86 736 -164 c 0,32,33
 786 -222 786 -222 786 -296 c 1,34,-1
 690 -296 l 1,35,36
 654 -192 654 -192 550 -192 c 0,37,38
 426 -192 426 -192 426 -306 c 0,39,40
 426 -364 426 -364 480 -400 c 0,41,42
 528 -430 528 -430 590 -430 c 0,43,44
 724 -430 724 -430 774 -386 c 0,45,46
 796 -368 796 -368 820 -286 c 1,47,48
 832 -206 832 -206 904 -170 c 1,49,50
 810 -146 810 -146 754 -46 c 0,51,52
 702 44 702 44 702 148 c 0,53,54
 702 388 702 388 898 504 c 1,55,-1
 950 434 l 1,56,57
 902 370 902 370 902 248 c 0,58,59
 902 122 902 122 1010 122 c 0,60,61
 1142 122 1142 122 1142 376 c 0,62,63
 1142 566 1142 566 996 680 c 0,64,65
 862 786 862 786 668 786 c 2,66,-1
 622 786 l 2,67,68
 390 786 390 786 264 642 c 0,69,70
 170 536 170 536 170 382 c 0,71,72
 170 288 170 288 194 252 c 1,73,-1
 194 260 l 1,74,-1
 192 268 l 1,75,76
 192 366 192 366 240 426 c 0,77,78
 290 494 290 494 386 494 c 0,79,80
 492 494 492 494 544 408 c 0,81,82
 582 346 582 346 582 258 c 0,83,84
 582 146 582 146 522 76 c 128,-1,85
 462 6 462 6 352 6 c 0,86,87
 220 6 220 6 140 126 c 0,88,89
 70 230 70 230 70 370 c 0,90,91
 70 614 70 614 240 764 c 0,92,93
 398 904 398 904 652 904 c 2,94,-1
 718 904 l 2,95,96
 952 904 952 904 1122 764 c 0,97,98
 1306 616 1306 616 1306 388 c 0,0,1
458 258 m 0,99,100
 458 306 458 306 438 342 c 0,101,102
 414 386 414 386 370 386 c 0,103,104
 342 386 342 386 306 350 c 1,105,-1
 292 322 l 2,106,107
 280 298 280 298 280 258 c 0,108,109
 280 212 280 212 302 174 c 0,110,111
 326 130 326 130 370 130 c 0,112,113
 410 130 410 130 436 176 c 0,114,115
 458 214 458 214 458 258 c 0,99,100
EndSplineSet
EndChar

StartChar: tm_au
Encoding: 2964 2964 61
Width: 2994
GlyphClass: 2
Flags: W
LayerCount: 2
Fore
SplineSet
2918 782 m 1,0,-1
 2730 782 l 1,1,-1
 2730 0 l 1,2,-1
 2560 0 l 1,3,-1
 2560 782 l 1,4,-1
 2302 782 l 1,5,-1
 2302 0 l 1,6,-1
 2132 0 l 1,7,-1
 2132 396 l 2,8,9
 2132 782 2132 782 1802 782 c 0,10,11
 1680 782 1680 782 1590 686 c 0,12,13
 1508 596 1508 596 1492 470 c 1,14,-1
 1544 516 l 1,15,16
 1608 556 1608 556 1684 556 c 0,17,18
 1796 556 1796 556 1872 476 c 128,-1,19
 1948 396 1948 396 1948 284 c 0,20,21
 1948 160 1948 160 1880 78 c 0,22,23
 1806 -10 1806 -10 1686 -10 c 0,24,25
 1562 -10 1562 -10 1480 80 c 0,26,27
 1382 188 1382 188 1382 404 c 0,28,29
 1382 586 1382 586 1502 734 c 0,30,31
 1634 898 1634 898 1842 898 c 0,32,33
 2086 898 2086 898 2206 740 c 1,34,-1
 2206 882 l 1,35,-1
 2918 882 l 1,36,-1
 2918 782 l 1,0,-1
1306 388 m 0,37,38
 1306 234 1306 234 1250 130 c 0,39,40
 1178 0 1178 0 1038 0 c 0,41,42
 948 0 948 0 888 70 c 0,43,44
 822 146 822 146 826 242 c 2,45,-1
 828 282 l 1,46,47
 804 216 804 216 804 150 c 0,48,49
 804 38 804 38 863 -27 c 128,-1,50
 922 -92 922 -92 1032 -92 c 2,51,-1
 1106 -92 l 1,52,-1
 1106 -194 l 1,53,-1
 1074 -194 l 2,54,55
 996 -194 996 -194 980 -278 c 1,56,57
 980 -396 980 -396 868 -466 c 0,58,59
 772 -528 772 -528 648 -528 c 0,60,61
 518 -528 518 -528 432 -468 c 0,62,63
 334 -400 334 -400 334 -276 c 0,64,65
 334 -180 334 -180 394 -132 c 1,66,-1
 470 -196 l 1,67,68
 440 -232 440 -232 440 -296 c 256,69,70
 440 -360 440 -360 500 -398 c 0,71,72
 552 -430 552 -430 620 -430 c 0,73,74
 724 -430 724 -430 772 -384 c 0,75,76
 796 -362 796 -362 824 -272 c 0,77,78
 846 -200 846 -200 904 -170 c 1,79,80
 810 -146 810 -146 754 -46 c 0,81,82
 702 44 702 44 702 148 c 0,83,84
 702 388 702 388 898 504 c 1,85,-1
 950 434 l 1,86,87
 902 370 902 370 902 248 c 0,88,89
 902 122 902 122 1010 122 c 0,90,91
 1142 122 1142 122 1142 376 c 0,92,93
 1142 566 1142 566 996 680 c 0,94,95
 862 786 862 786 668 786 c 2,96,-1
 622 786 l 2,97,98
 390 786 390 786 264 642 c 0,99,100
 170 536 170 536 170 382 c 0,101,102
 170 288 170 288 194 252 c 1,103,-1
 194 260 l 1,104,-1
 192 268 l 1,105,106
 192 366 192 366 240 426 c 0,107,108
 290 494 290 494 386 494 c 0,109,110
 492 494 492 494 544 408 c 0,111,112
 582 346 582 346 582 258 c 0,113,114
 582 146 582 146 522 76 c 128,-1,115
 462 6 462 6 352 6 c 0,116,117
 220 6 220 6 140 126 c 0,118,119
 70 230 70 230 70 370 c 0,120,121
 70 614 70 614 240 764 c 0,122,123
 398 904 398 904 652 904 c 2,124,-1
 718 904 l 2,125,126
 952 904 952 904 1122 764 c 0,127,128
 1306 616 1306 616 1306 388 c 0,37,38
1784 274 m 256,129,130
 1784 340 1784 340 1748 390 c 0,131,132
 1708 448 1708 448 1646 448 c 256,133,134
 1584 448 1584 448 1546 393 c 128,-1,135
 1508 338 1508 338 1508 274 c 0,136,137
 1508 208 1508 208 1544 158 c 0,138,139
 1584 100 1584 100 1646 100 c 256,140,141
 1708 100 1708 100 1748 158 c 0,142,143
 1784 208 1784 208 1784 274 c 256,129,130
458 258 m 0,144,145
 458 306 458 306 438 342 c 0,146,147
 414 386 414 386 370 386 c 0,148,149
 342 386 342 386 306 350 c 1,150,-1
 292 322 l 2,151,152
 280 298 280 298 280 258 c 0,153,154
 280 212 280 212 302 174 c 0,155,156
 326 130 326 130 370 130 c 0,157,158
 410 130 410 130 436 176 c 0,159,160
 458 214 458 214 458 258 c 0,144,145
EndSplineSet
EndChar

StartChar: tm_ka
Encoding: 2965 2965 62
Width: 1280
GlyphClass: 2
Flags: W
LayerCount: 2
Fore
SplineSet
1210 280 m 0,0,1
 1210 142 1210 142 1106 66 c 0,2,3
 1016 0 1016 0 872 0 c 0,4,5
 734 0 734 0 652 74 c 1,6,7
 548 0 548 0 380 0 c 0,8,9
 252 0 252 0 162 72 c 0,10,11
 66 150 66 150 66 274 c 0,12,13
 66 472 66 472 248 522 c 1,14,-1
 248 882 l 1,15,-1
 1076 882 l 1,16,-1
 1076 782 l 1,17,-1
 766 782 l 1,18,-1
 766 532 l 1,19,-1
 934 532 l 2,20,21
 1060 532 1060 532 1135 466 c 128,-1,22
 1210 400 1210 400 1210 280 c 0,0,1
1038 292 m 0,23,24
 1038 356 1038 356 999 393 c 128,-1,25
 960 430 960 430 896 430 c 2,26,-1
 766 430 l 1,27,-1
 766 304 l 2,28,29
 766 218 766 218 720 148 c 1,30,31
 764 104 764 104 854 104 c 0,32,33
 932 104 932 104 985 159 c 128,-1,34
 1038 214 1038 214 1038 292 c 0,23,24
594 532 m 1,35,-1
 594 782 l 1,36,-1
 348 782 l 1,37,-1
 348 532 l 1,38,-1
 594 532 l 1,35,-1
594 334 m 2,39,-1
 594 430 l 1,40,-1
 332 430 l 2,41,42
 168 430 168 430 168 270 c 0,43,44
 168 198 168 198 226 152 c 128,-1,45
 284 106 284 106 358 106 c 0,46,47
 462 106 462 106 528 168 c 128,-1,48
 594 230 594 230 594 334 c 2,39,-1
EndSplineSet
EndChar

StartChar: tm_nga
Encoding: 2969 2969 63
Width: 1534
GlyphClass: 2
Flags: W
LayerCount: 2
Fore
SplineSet
1446 0 m 1,0,-1
 468 0 l 1,1,-1
 468 102 l 1,2,-1
 750 102 l 2,3,4
 936 102 936 102 936 320 c 0,5,6
 936 484 936 484 762 484 c 0,7,8
 650 484 650 484 616 358 c 1,9,-1
 616 216 l 1,10,-1
 468 216 l 1,11,-1
 468 782 l 1,12,-1
 200 782 l 1,13,-1
 200 0 l 1,14,-1
 100 0 l 1,15,-1
 100 882 l 1,16,-1
 928 882 l 1,17,-1
 928 782 l 1,18,-1
 616 782 l 1,19,-1
 616 526 l 1,20,21
 696 588 696 588 800 588 c 0,22,23
 928 588 928 588 1010 516 c 128,-1,24
 1092 444 1092 444 1092 318 c 0,25,26
 1092 256 1092 256 1064 194 c 0,27,28
 1030 124 1030 124 980 102 c 1,29,-1
 1274 102 l 1,30,-1
 1274 882 l 1,31,-1
 1446 882 l 1,32,-1
 1446 0 l 1,0,-1
EndSplineSet
EndChar

StartChar: tm_ca
Encoding: 2970 2970 64
Width: 1180
GlyphClass: 2
Flags: W
LayerCount: 2
Fore
SplineSet
1114 430 m 1,0,-1
 766 430 l 1,1,-1
 766 304 l 2,2,3
 766 190 766 190 682 102 c 0,4,5
 584 0 584 0 380 0 c 0,6,7
 252 0 252 0 162 72 c 0,8,9
 66 150 66 150 66 274 c 0,10,11
 66 472 66 472 248 522 c 1,12,-1
 248 882 l 1,13,-1
 1076 882 l 1,14,-1
 1076 782 l 1,15,-1
 766 782 l 1,16,-1
 766 532 l 1,17,-1
 1114 532 l 1,18,-1
 1114 430 l 1,0,-1
594 532 m 1,19,-1
 594 782 l 1,20,-1
 348 782 l 1,21,-1
 348 532 l 1,22,-1
 594 532 l 1,19,-1
594 334 m 2,23,-1
 594 430 l 1,24,-1
 332 430 l 2,25,26
 168 430 168 430 168 270 c 0,27,28
 168 198 168 198 226 152 c 128,-1,29
 284 106 284 106 358 106 c 0,30,31
 462 106 462 106 528 168 c 128,-1,32
 594 230 594 230 594 334 c 2,23,-1
EndSplineSet
EndChar

StartChar: tm_ja
Encoding: 2972 2972 65
Width: 1588
GlyphClass: 2
Flags: W
LayerCount: 2
Fore
SplineSet
1500 534 m 0,0,1
 1500 326 1500 326 1377 218 c 128,-1,2
 1254 110 1254 110 1044 110 c 2,3,-1
 516 108 l 2,4,5
 266 108 266 108 266 -116 c 0,6,7
 266 -212 266 -212 330 -266 c 0,8,9
 388 -316 388 -316 486 -316 c 0,10,11
 594 -316 594 -316 642 -282 c 0,12,13
 704 -240 704 -240 754 -122 c 0,14,15
 840 76 840 76 1128 76 c 0,16,17
 1482 76 1482 76 1482 -186 c 0,18,19
 1482 -294 1482 -294 1408 -353 c 128,-1,20
 1334 -412 1334 -412 1224 -412 c 0,21,22
 1082 -412 1082 -412 1034 -276 c 1,23,24
 1020 -220 1020 -220 1020 -184 c 0,25,26
 1020 -64 1020 -64 1076 -20 c 1,27,28
 876 -20 876 -20 824 -200 c 0,29,30
 790 -318 790 -318 676 -370 c 0,31,32
 580 -414 580 -414 460 -414 c 0,33,34
 306 -414 306 -414 206 -338 c 0,35,36
 94 -254 94 -254 94 -104 c 0,37,38
 94 56 94 56 200 136 c 0,39,40
 294 208 294 208 458 208 c 2,41,-1
 1042 208 l 2,42,43
 1202 208 1202 208 1270 296 c 0,44,45
 1328 372 1328 372 1328 536 c 0,46,47
 1328 784 1328 784 1124 784 c 0,48,49
 1022 784 1022 784 970 690 c 0,50,51
 926 614 926 614 926 504 c 2,52,-1
 926 312 l 1,53,-1
 742 312 l 1,54,-1
 742 534 l 2,55,56
 742 664 742 664 628 742 c 1,57,58
 544 786 544 786 454 786 c 0,59,60
 358 786 358 786 302 758 c 0,61,62
 286 750 286 750 240 704 c 1,63,64
 306 722 306 722 322 722 c 0,65,66
 424 722 424 722 483 660 c 128,-1,67
 542 598 542 598 542 496 c 0,68,69
 542 382 542 382 464 312 c 0,70,71
 406 260 406 260 310 260 c 0,72,73
 206 260 206 260 144 350 c 0,74,75
 90 430 90 430 90 538 c 0,76,77
 90 696 90 696 193 792 c 128,-1,78
 296 888 296 888 454 888 c 0,79,80
 788 888 788 888 874 704 c 1,81,82
 950 888 950 888 1178 888 c 0,83,84
 1334 888 1334 888 1420 788 c 0,85,86
 1500 694 1500 694 1500 534 c 0,0,1
1312 -172 m 256,87,88
 1312 -122 1312 -122 1290 -82 c 0,89,90
 1262 -36 1262 -36 1216 -36 c 0,91,92
 1176 -36 1176 -36 1148 -76 c 1,93,94
 1122 -124 1122 -124 1122 -172 c 0,95,96
 1122 -222 1122 -222 1144 -262 c 0,97,98
 1170 -310 1170 -310 1216 -310 c 0,99,100
 1264 -310 1264 -310 1290 -262 c 0,101,102
 1312 -222 1312 -222 1312 -172 c 256,87,88
388 494 m 0,103,104
 388 542 388 542 363 582 c 128,-1,105
 338 622 338 622 292 622 c 0,106,107
 248 622 248 622 222 581 c 128,-1,108
 196 540 196 540 196 494 c 0,109,110
 196 444 196 444 218 408 c 0,111,112
 246 366 246 366 292 366 c 0,113,114
 336 366 336 366 364 410 c 0,115,116
 388 448 388 448 388 494 c 0,103,104
EndSplineSet
EndChar

StartChar: tm_nya
Encoding: 2974 2974 66
Width: 1814
GlyphClass: 2
Flags: W
LayerCount: 2
Fore
SplineSet
1726 230 m 0,0,1
 1726 -102 1726 -102 1476 -270 c 0,2,3
 1262 -414 1262 -414 910 -414 c 0,4,5
 528 -414 528 -414 308 -202 c 0,6,7
 82 14 82 14 82 392 c 0,8,9
 82 528 82 528 116 646 c 0,10,11
 158 790 158 790 230 872 c 1,12,-1
 302 800 l 1,13,14
 266 770 266 770 228 660 c 1,15,-1
 196 530 l 2,16,17
 184 482 184 482 184 398 c 0,18,19
 184 72 184 72 374 -117 c 128,-1,20
 564 -306 564 -306 892 -306 c 0,21,22
 1546 -306 1546 -306 1546 230 c 0,23,24
 1546 460 1546 460 1418 460 c 0,25,26
 1388 460 1388 460 1342 418 c 1,27,28
 1308 374 1308 374 1308 314 c 2,29,-1
 1308 0 l 1,30,-1
 1136 0 l 1,31,-1
 1136 782 l 1,32,-1
 824 782 l 2,33,34
 692 782 692 782 604 696 c 128,-1,35
 516 610 516 610 498 476 c 1,36,-1
 548 514 l 1,37,38
 604 548 604 548 674 548 c 0,39,40
 914 548 914 548 944 294 c 1,41,42
 944 166 944 166 876 80 c 0,43,44
 802 -12 802 -12 676 -12 c 0,45,46
 526 -12 526 -12 450 128 c 0,47,48
 388 242 388 242 388 404 c 0,49,50
 388 610 388 610 514 746 c 128,-1,51
 640 882 640 882 846 882 c 2,52,-1
 1446 882 l 1,53,-1
 1446 782 l 1,54,-1
 1308 782 l 1,55,-1
 1308 524 l 1,56,57
 1372 562 1372 562 1430 562 c 0,58,59
 1500 562 1500 562 1552 546 c 0,60,61
 1598 530 1598 530 1634 496 c 0,62,63
 1726 412 1726 412 1726 230 c 0,0,1
784 268 m 0,64,65
 784 332 784 332 748 389 c 128,-1,66
 712 446 712 446 652 446 c 256,67,68
 592 446 592 446 554 384 c 0,69,70
 522 332 522 332 522 268 c 256,71,72
 522 204 522 204 554 150 c 0,73,74
 592 90 592 90 652 90 c 0,75,76
 710 90 710 90 752 150 c 1,77,78
 784 208 784 208 784 268 c 0,64,65
EndSplineSet
EndChar

StartChar: tm_tta
Encoding: 2975 2975 67
Width: 1224
GlyphClass: 2
Flags: W
LayerCount: 2
Fore
SplineSet
1136 0 m 1,0,-1
 100 0 l 1,1,-1
 100 882 l 1,2,-1
 272 882 l 1,3,-1
 272 102 l 1,4,-1
 1136 102 l 1,5,-1
 1136 0 l 1,0,-1
EndSplineSet
EndChar

StartChar: tm_nna
Encoding: 2979 2979 68
Width: 2466
GlyphClass: 2
Flags: W
LayerCount: 2
Fore
SplineSet
2396 780 m 1,0,-1
 2232 780 l 1,1,-1
 2232 0 l 1,2,-1
 2060 0 l 1,3,-1
 2060 780 l 1,4,-1
 1922 780 l 2,5,6
 1814 780 1814 780 1712 732 c 1,7,8
 1868 582 1868 582 1868 370 c 0,9,10
 1868 232 1868 232 1818 130 c 0,11,12
 1756 2 1756 2 1628 2 c 0,13,14
 1502 2 1502 2 1440 130 c 0,15,16
 1392 228 1392 228 1392 370 c 0,17,18
 1392 574 1392 574 1524 718 c 1,19,20
 1400 792 1400 792 1288 792 c 0,21,22
 1194 792 1194 792 1070 732 c 1,23,24
 1228 586 1228 586 1228 370 c 0,25,26
 1228 230 1228 230 1178 130 c 0,27,28
 1114 2 1114 2 988 2 c 0,29,30
 816 2 816 2 764 240 c 0,31,32
 750 302 750 302 750 370 c 0,33,34
 750 560 750 560 882 716 c 1,35,36
 758 794 758 794 604 794 c 0,37,38
 454 794 454 794 343 707 c 128,-1,39
 232 620 232 620 194 474 c 1,40,41
 266 556 266 556 388 556 c 0,42,43
 502 556 502 556 576 474 c 128,-1,44
 650 392 650 392 650 278 c 0,45,46
 650 158 650 158 578 74 c 128,-1,47
 506 -10 506 -10 388 -10 c 0,48,49
 230 -10 230 -10 150 116 c 0,50,51
 82 222 82 222 82 390 c 0,52,53
 82 622 82 622 254 766 c 0,54,55
 416 902 416 902 654 902 c 0,56,57
 836 902 836 902 984 802 c 1,58,59
 1126 896 1126 896 1298 896 c 0,60,61
 1480 896 1480 896 1626 802 c 1,62,63
 1758 882 1758 882 1902 882 c 2,64,-1
 2396 882 l 1,65,-1
 2396 780 l 1,0,-1
1702 370 m 0,66,67
 1702 526 1702 526 1600 650 c 1,68,69
 1494 538 1494 538 1494 370 c 0,70,71
 1494 294 1494 294 1512 228 c 0,72,73
 1538 130 1538 130 1600 130 c 0,74,75
 1632 130 1632 130 1668 184 c 1,76,77
 1702 252 1702 252 1702 370 c 0,66,67
1062 370 m 0,78,79
 1062 524 1062 524 960 648 c 1,80,81
 854 542 854 542 854 370 c 0,82,83
 854 294 854 294 872 228 c 0,84,85
 898 130 898 130 960 130 c 0,86,87
 992 130 992 130 1028 184 c 1,88,89
 1062 252 1062 252 1062 370 c 0,78,79
486 274 m 256,90,91
 486 340 486 340 450 390 c 0,92,93
 410 448 410 448 348 448 c 256,94,95
 286 448 286 448 248 393 c 128,-1,96
 210 338 210 338 210 274 c 0,97,98
 210 208 210 208 246 158 c 0,99,100
 286 100 286 100 348 100 c 256,101,102
 410 100 410 100 450 158 c 0,103,104
 486 208 486 208 486 274 c 256,90,91
EndSplineSet
EndChar

StartChar: tm_ta
Encoding: 2980 2980 69
Width: 1304
GlyphClass: 2
Flags: W
LayerCount: 2
Fore
SplineSet
1218 192 m 0,0,1
 1218 -6 1218 -6 1058 -112 c 0,2,3
 972 -168 972 -168 830 -186 c 0,4,5
 782 -192 782 -192 736 -192 c 2,6,-1
 348 -192 l 2,7,8
 178 -192 178 -192 178 -286 c 0,9,10
 178 -344 178 -344 246 -344 c 0,11,12
 286 -344 286 -344 314 -369 c 128,-1,13
 342 -394 342 -394 342 -434 c 0,14,15
 342 -472 342 -472 313 -500 c 128,-1,16
 284 -528 284 -528 246 -528 c 0,17,18
 158 -528 158 -528 111 -471 c 128,-1,19
 64 -414 64 -414 64 -326 c 0,20,21
 64 -210 64 -210 160 -148 c 0,22,23
 238 -98 238 -98 364 -98 c 2,24,-1
 734 -98 l 2,25,26
 876 -98 876 -98 961 -22 c 128,-1,27
 1046 54 1046 54 1046 194 c 0,28,29
 1046 430 1046 430 834 430 c 2,30,-1
 766 430 l 1,31,-1
 766 304 l 2,32,33
 766 190 766 190 682 102 c 0,34,35
 584 0 584 0 380 0 c 0,36,37
 252 0 252 0 162 72 c 0,38,39
 66 150 66 150 66 274 c 0,40,41
 66 472 66 472 248 522 c 1,42,-1
 248 882 l 1,43,-1
 1076 882 l 1,44,-1
 1076 782 l 1,45,-1
 766 782 l 1,46,-1
 766 532 l 1,47,-1
 852 532 l 2,48,49
 1022 532 1022 532 1120 446 c 128,-1,50
 1218 360 1218 360 1218 192 c 0,0,1
594 532 m 1,51,-1
 594 782 l 1,52,-1
 348 782 l 1,53,-1
 348 532 l 1,54,-1
 594 532 l 1,51,-1
594 334 m 2,55,-1
 594 430 l 1,56,-1
 332 430 l 2,57,58
 168 430 168 430 168 270 c 0,59,60
 168 198 168 198 226 152 c 128,-1,61
 284 106 284 106 358 106 c 0,62,63
 462 106 462 106 528 168 c 128,-1,64
 594 230 594 230 594 334 c 2,55,-1
EndSplineSet
EndChar

StartChar: tm_na
Encoding: 2984 2984 70
Width: 1242
GlyphClass: 2
Flags: W
LayerCount: 2
Fore
SplineSet
1142 192 m 0,0,1
 1142 -6 1142 -6 982 -112 c 0,2,3
 860 -192 860 -192 662 -192 c 2,4,-1
 314 -192 l 2,5,6
 142 -192 142 -192 142 -286 c 0,7,8
 142 -344 142 -344 210 -344 c 0,9,10
 248 -344 248 -344 278 -370 c 128,-1,11
 308 -396 308 -396 308 -434 c 0,12,13
 308 -474 308 -474 279 -501 c 128,-1,14
 250 -528 250 -528 210 -528 c 0,15,16
 122 -528 122 -528 75 -471 c 128,-1,17
 28 -414 28 -414 28 -326 c 0,18,19
 28 -210 28 -210 124 -148 c 0,20,21
 202 -98 202 -98 330 -98 c 2,22,-1
 658 -98 l 2,23,24
 888 -98 888 -98 952 76 c 0,25,26
 972 132 972 132 972 194 c 0,27,28
 972 424 972 424 782 424 c 0,29,30
 642 424 642 424 642 286 c 2,31,-1
 642 0 l 1,32,-1
 468 0 l 1,33,-1
 468 782 l 1,34,-1
 200 782 l 1,35,-1
 200 0 l 1,36,-1
 100 0 l 1,37,-1
 100 882 l 1,38,-1
 976 882 l 1,39,-1
 976 782 l 1,40,-1
 642 782 l 1,41,-1
 642 466 l 1,42,43
 692 540 692 540 842 540 c 256,44,45
 992 540 992 540 1070 438 c 0,46,47
 1142 348 1142 348 1142 192 c 0,0,1
EndSplineSet
EndChar

StartChar: tm_nnna
Encoding: 2985 2985 71
Width: 1828
GlyphClass: 2
Flags: W
LayerCount: 2
Fore
SplineSet
1756 780 m 1,0,-1
 1592 780 l 1,1,-1
 1592 0 l 1,2,-1
 1420 0 l 1,3,-1
 1420 780 l 1,4,-1
 1280 780 l 2,5,6
 1180 780 1180 780 1072 732 c 1,7,8
 1228 582 1228 582 1228 370 c 0,9,10
 1228 230 1228 230 1178 130 c 0,11,12
 1114 2 1114 2 988 2 c 0,13,14
 816 2 816 2 764 240 c 0,15,16
 750 302 750 302 750 370 c 0,17,18
 750 560 750 560 882 716 c 1,19,20
 758 794 758 794 604 794 c 0,21,22
 454 794 454 794 343 707 c 128,-1,23
 232 620 232 620 194 474 c 1,24,25
 266 556 266 556 388 556 c 0,26,27
 502 556 502 556 576 474 c 128,-1,28
 650 392 650 392 650 278 c 0,29,30
 650 158 650 158 578 74 c 128,-1,31
 506 -10 506 -10 388 -10 c 0,32,33
 230 -10 230 -10 150 116 c 0,34,35
 82 222 82 222 82 390 c 0,36,37
 82 622 82 622 254 766 c 0,38,39
 416 902 416 902 654 902 c 0,40,41
 828 902 828 902 984 800 c 1,42,43
 1108 882 1108 882 1262 882 c 2,44,-1
 1756 882 l 1,45,-1
 1756 780 l 1,0,-1
1062 370 m 0,46,47
 1062 524 1062 524 960 648 c 1,48,49
 854 542 854 542 854 370 c 0,50,51
 854 294 854 294 872 228 c 0,52,53
 898 130 898 130 960 130 c 0,54,55
 992 130 992 130 1028 184 c 1,56,57
 1062 252 1062 252 1062 370 c 0,46,47
486 274 m 256,58,59
 486 340 486 340 450 390 c 0,60,61
 410 448 410 448 348 448 c 256,62,63
 286 448 286 448 248 393 c 128,-1,64
 210 338 210 338 210 274 c 0,65,66
 210 208 210 208 246 158 c 0,67,68
 286 100 286 100 348 100 c 256,69,70
 410 100 410 100 450 158 c 0,71,72
 486 208 486 208 486 274 c 256,58,59
EndSplineSet
EndChar

StartChar: tm_pa
Encoding: 2986 2986 72
Width: 1242
GlyphClass: 2
Flags: W
LayerCount: 2
Fore
SplineSet
1132 0 m 1,0,-1
 100 0 l 1,1,-1
 100 882 l 1,2,-1
 272 882 l 1,3,-1
 272 102 l 1,4,-1
 960 102 l 1,5,-1
 960 882 l 1,6,-1
 1132 882 l 1,7,-1
 1132 0 l 1,0,-1
EndSplineSet
EndChar

StartChar: tm_ma
Encoding: 2990 2990 73
Width: 1426
GlyphClass: 2
Flags: W
LayerCount: 2
Fore
SplineSet
1344 378 m 0,0,1
 1344 202 1344 202 1232 101 c 128,-1,2
 1120 0 1120 0 942 0 c 2,3,-1
 100 0 l 1,4,-1
 100 882 l 1,5,-1
 272 882 l 1,6,-1
 272 102 l 1,7,-1
 604 102 l 1,8,-1
 604 644 l 2,9,10
 604 888 604 888 864 888 c 0,11,12
 1058 888 1058 888 1204 730 c 0,13,14
 1344 574 1344 574 1344 378 c 0,0,1
1242 380 m 0,15,16
 1242 524 1242 524 1136 648 c 0,17,18
 1026 780 1026 780 886 780 c 0,19,20
 778 780 778 780 778 660 c 2,21,-1
 778 102 l 1,22,-1
 912 102 l 2,23,24
 1242 102 1242 102 1242 380 c 0,15,16
EndSplineSet
EndChar

StartChar: tm_ya
Encoding: 2991 2991 74
Width: 1450
GlyphClass: 2
Flags: W
LayerCount: 2
Fore
SplineSet
1366 0 m 1,0,-1
 530 0 l 1,1,-1
 530 124 l 1,2,3
 472 -4 472 -4 328 -4 c 0,4,5
 100 -4 100 -4 100 282 c 2,6,-1
 100 882 l 1,7,-1
 200 882 l 1,8,-1
 200 280 l 2,9,10
 200 190 200 190 222 150 c 0,11,12
 252 96 252 96 334 96 c 0,13,14
 430 96 430 96 486 236 c 0,15,16
 530 348 530 348 530 458 c 2,17,-1
 530 882 l 1,18,-1
 702 882 l 1,19,-1
 702 102 l 1,20,-1
 1194 102 l 1,21,-1
 1194 882 l 1,22,-1
 1366 882 l 1,23,-1
 1366 0 l 1,0,-1
EndSplineSet
EndChar

StartChar: tm_ra
Encoding: 2992 2992 75
Width: 940
GlyphClass: 2
Flags: W
LayerCount: 2
Fore
SplineSet
854 782 m 1,0,-1
 642 782 l 1,1,-1
 642 -68 l 1,2,-1
 120 -414 l 1,3,-1
 120 -340 l 1,4,-1
 468 0 l 1,5,-1
 468 782 l 1,6,-1
 200 782 l 1,7,-1
 200 0 l 1,8,-1
 100 0 l 1,9,-1
 100 882 l 1,10,-1
 854 882 l 1,11,-1
 854 782 l 1,0,-1
EndSplineSet
EndChar

StartChar: tm_rra
Encoding: 2993 2993 76
Width: 1246
GlyphClass: 2
Flags: W
LayerCount: 2
Fore
SplineSet
1168 380 m 0,0,1
 1168 102 1168 102 1016 -45 c 128,-1,2
 864 -192 864 -192 584 -192 c 2,3,-1
 314 -192 l 2,4,5
 142 -192 142 -192 142 -286 c 0,6,7
 142 -344 142 -344 210 -344 c 0,8,9
 248 -344 248 -344 278 -370 c 128,-1,10
 308 -396 308 -396 308 -434 c 0,11,12
 308 -474 308 -474 279 -501 c 128,-1,13
 250 -528 250 -528 210 -528 c 0,14,15
 122 -528 122 -528 75 -471 c 128,-1,16
 28 -414 28 -414 28 -326 c 0,17,18
 28 -210 28 -210 124 -148 c 0,19,20
 202 -98 202 -98 330 -98 c 2,21,-1
 580 -98 l 2,22,23
 998 -98 998 -98 998 378 c 0,24,25
 998 784 998 784 786 784 c 0,26,27
 646 784 646 784 646 564 c 2,28,-1
 646 0 l 1,29,-1
 474 0 l 1,30,-1
 474 574 l 2,31,32
 474 784 474 784 334 784 c 0,33,34
 200 784 200 784 200 574 c 2,35,-1
 200 0 l 1,36,-1
 100 0 l 1,37,-1
 100 588 l 2,38,39
 100 740 100 740 174 818 c 0,40,41
 240 886 240 886 342 886 c 0,42,43
 546 886 546 886 582 728 c 1,44,45
 642 884 642 884 810 884 c 0,46,47
 1168 884 1168 884 1168 380 c 0,0,1
EndSplineSet
EndChar

StartChar: tm_la
Encoding: 2994 2994 77
Width: 1588
GlyphClass: 2
Flags: W
LayerCount: 2
Fore
SplineSet
1506 488 m 0,0,1
 1506 298 1506 298 1412 156 c 0,2,3
 1304 -8 1304 -8 1124 -8 c 0,4,5
 820 -8 820 -8 820 322 c 2,6,-1
 820 468 l 2,7,8
 820 614 820 614 746 700 c 0,9,10
 666 788 666 788 522 788 c 0,11,12
 388 788 388 788 300 694 c 0,13,14
 222 612 222 612 194 474 c 1,15,16
 266 556 266 556 388 556 c 0,17,18
 502 556 502 556 576 474 c 128,-1,19
 650 392 650 392 650 278 c 0,20,21
 650 158 650 158 578 74 c 128,-1,22
 506 -10 506 -10 388 -10 c 0,23,24
 230 -10 230 -10 150 116 c 0,25,26
 82 222 82 222 82 390 c 0,27,28
 82 600 82 600 208 744 c 0,29,30
 340 898 340 898 546 898 c 0,31,32
 744 898 744 898 869 781 c 128,-1,33
 994 664 994 664 994 466 c 2,34,-1
 994 348 l 2,35,36
 994 222 994 222 1014 174 c 0,37,38
 1044 102 1044 102 1142 102 c 0,39,40
 1268 102 1268 102 1342 238 c 0,41,42
 1404 350 1404 350 1404 488 c 0,43,44
 1404 676 1404 676 1310 774 c 0,45,46
 1290 794 1290 794 1180 842 c 0,47,48
 1114 870 1114 870 1114 940 c 0,49,50
 1114 982 1114 982 1174 982 c 0,51,52
 1200 982 1200 982 1218 972 c 0,53,54
 1506 816 1506 816 1506 488 c 0,0,1
486 274 m 256,55,56
 486 340 486 340 450 390 c 0,57,58
 410 448 410 448 348 448 c 256,59,60
 286 448 286 448 248 393 c 128,-1,61
 210 338 210 338 210 274 c 0,62,63
 210 208 210 208 246 158 c 0,64,65
 286 100 286 100 348 100 c 256,66,67
 410 100 410 100 450 158 c 0,68,69
 486 208 486 208 486 274 c 256,55,56
EndSplineSet
EndChar

StartChar: tm_lla
Encoding: 2995 2995 78
Width: 1678
GlyphClass: 2
Flags: W
LayerCount: 2
Fore
SplineSet
1620 782 m 1,0,-1
 1432 782 l 1,1,-1
 1432 0 l 1,2,-1
 1262 0 l 1,3,-1
 1262 782 l 1,4,-1
 1004 782 l 1,5,-1
 1004 0 l 1,6,-1
 834 0 l 1,7,-1
 834 396 l 2,8,9
 834 782 834 782 504 782 c 0,10,11
 382 782 382 782 292 686 c 0,12,13
 210 596 210 596 194 470 c 1,14,-1
 246 516 l 1,15,16
 310 556 310 556 386 556 c 0,17,18
 498 556 498 556 574 476 c 128,-1,19
 650 396 650 396 650 284 c 0,20,21
 650 160 650 160 582 78 c 0,22,23
 508 -10 508 -10 388 -10 c 0,24,25
 264 -10 264 -10 182 80 c 0,26,27
 84 188 84 188 84 404 c 0,28,29
 84 586 84 586 204 734 c 0,30,31
 336 898 336 898 544 898 c 0,32,33
 788 898 788 898 908 740 c 1,34,-1
 908 882 l 1,35,-1
 1620 882 l 1,36,-1
 1620 782 l 1,0,-1
486 274 m 256,37,38
 486 340 486 340 450 390 c 0,39,40
 410 448 410 448 348 448 c 256,41,42
 286 448 286 448 248 393 c 128,-1,43
 210 338 210 338 210 274 c 0,44,45
 210 208 210 208 246 158 c 0,46,47
 286 100 286 100 348 100 c 256,48,49
 410 100 410 100 450 158 c 0,50,51
 486 208 486 208 486 274 c 256,37,38
EndSplineSet
EndChar

StartChar: tm_llla
Encoding: 2996 2996 79
Width: 1406
GlyphClass: 2
Flags: W
LayerCount: 2
Fore
SplineSet
1344 378 m 0,0,1
 1344 202 1344 202 1232 101 c 128,-1,2
 1120 0 1120 0 942 0 c 2,3,-1
 778 0 l 1,4,-1
 778 -64 l 2,5,6
 778 -140 778 -140 882 -140 c 2,7,-1
 1012 -140 l 1,8,-1
 1012 -242 l 1,9,-1
 858 -242 l 2,10,11
 796 -242 796 -242 760 -284 c 1,12,-1
 728 -368 l 2,13,14
 668 -528 668 -528 414 -528 c 0,15,16
 290 -528 290 -528 210 -476 c 0,17,18
 116 -414 116 -414 116 -296 c 0,19,20
 116 -212 116 -212 168 -160 c 128,-1,21
 220 -108 220 -108 310 -108 c 0,22,23
 360 -108 360 -108 408 -136 c 128,-1,24
 456 -164 456 -164 456 -214 c 0,25,26
 456 -272 456 -272 406 -272 c 0,27,28
 372 -272 372 -272 357 -242 c 128,-1,29
 342 -212 342 -212 300 -212 c 0,30,31
 220 -212 220 -212 220 -294 c 0,32,33
 220 -426 220 -426 398 -426 c 0,34,35
 566 -426 566 -426 604 -324 c 2,36,-1
 634 -244 l 1,37,38
 658 -204 658 -204 708 -204 c 1,39,40
 604 -188 604 -188 604 -74 c 2,41,-1
 604 0 l 1,42,-1
 100 0 l 1,43,-1
 100 882 l 1,44,-1
 272 882 l 1,45,-1
 272 102 l 1,46,-1
 604 102 l 1,47,-1
 604 644 l 2,48,49
 604 888 604 888 864 888 c 0,50,51
 1058 888 1058 888 1204 730 c 0,52,53
 1344 574 1344 574 1344 378 c 0,0,1
1242 380 m 0,54,55
 1242 524 1242 524 1136 648 c 0,56,57
 1026 780 1026 780 886 780 c 0,58,59
 778 780 778 780 778 660 c 2,60,-1
 778 102 l 1,61,-1
 912 102 l 2,62,63
 1242 102 1242 102 1242 380 c 0,54,55
EndSplineSet
EndChar

StartChar: tm_va
Encoding: 2997 2997 80
Width: 1548
GlyphClass: 2
Flags: W
LayerCount: 2
Fore
SplineSet
1482 0 m 1,0,-1
 762 0 l 1,1,-1
 762 72 l 1,2,3
 860 200 860 200 860 418 c 0,4,5
 860 580 860 580 764 681 c 128,-1,6
 668 782 668 782 506 782 c 0,7,8
 384 782 384 782 298 691 c 128,-1,9
 212 600 212 600 194 476 c 1,10,-1
 248 518 l 1,11,12
 320 556 320 556 388 556 c 0,13,14
 500 556 500 556 575 475 c 128,-1,15
 650 394 650 394 650 280 c 0,16,17
 650 160 650 160 578 75 c 128,-1,18
 506 -10 506 -10 388 -10 c 0,19,20
 242 -10 242 -10 156 116 c 0,21,22
 82 224 82 224 82 380 c 0,23,24
 82 596 82 596 208 742 c 0,25,26
 340 898 340 898 552 898 c 0,27,28
 758 898 758 898 895 759 c 128,-1,29
 1032 620 1032 620 1032 412 c 0,30,31
 1032 222 1032 222 954 102 c 1,32,-1
 1310 102 l 1,33,-1
 1310 882 l 1,34,-1
 1482 882 l 1,35,-1
 1482 0 l 1,0,-1
486 274 m 256,36,37
 486 340 486 340 450 390 c 0,38,39
 410 448 410 448 348 448 c 256,40,41
 286 448 286 448 248 393 c 128,-1,42
 210 338 210 338 210 274 c 0,43,44
 210 208 210 208 246 158 c 0,45,46
 286 100 286 100 348 100 c 256,47,48
 410 100 410 100 450 158 c 0,49,50
 486 208 486 208 486 274 c 256,36,37
EndSplineSet
EndChar

StartChar: tm_ssa
Encoding: 2999 2999 81
Width: 1982
GlyphClass: 2
Flags: W
LayerCount: 2
Fore
SplineSet
1906 0 m 1,0,-1
 1602 0 l 1,1,-1
 1450 -374 l 1,2,-1
 1296 -374 l 1,3,-1
 1448 0 l 1,4,-1
 762 0 l 1,5,-1
 762 72 l 1,6,7
 860 200 860 200 860 418 c 0,8,9
 860 580 860 580 764 681 c 128,-1,10
 668 782 668 782 506 782 c 0,11,12
 384 782 384 782 298 691 c 128,-1,13
 212 600 212 600 194 476 c 1,14,-1
 248 518 l 1,15,16
 320 556 320 556 388 556 c 0,17,18
 500 556 500 556 575 475 c 128,-1,19
 650 394 650 394 650 280 c 0,20,21
 650 160 650 160 578 75 c 128,-1,22
 506 -10 506 -10 388 -10 c 0,23,24
 242 -10 242 -10 156 116 c 0,25,26
 82 224 82 224 82 380 c 0,27,28
 82 596 82 596 208 742 c 0,29,30
 340 898 340 898 552 898 c 0,31,32
 758 898 758 898 895 759 c 128,-1,33
 1032 620 1032 620 1032 412 c 0,34,35
 1032 222 1032 222 954 102 c 1,36,-1
 1490 102 l 1,37,-1
 1536 214 l 1,38,-1
 1494 208 l 1,39,40
 1382 208 1382 208 1288 284 c 0,41,42
 1166 382 1166 382 1166 556 c 0,43,44
 1166 718 1166 718 1274 812 c 0,45,46
 1354 882 1354 882 1472 882 c 0,47,48
 1634 882 1634 882 1734 792 c 0,49,50
 1820 714 1820 714 1820 602 c 0,51,52
 1820 542 1820 542 1804 486 c 0,53,54
 1792 448 1792 448 1750 358 c 1,55,-1
 1906 458 l 1,56,-1
 1906 0 l 1,0,-1
1660 578 m 0,57,58
 1660 760 1660 760 1446 760 c 0,59,60
 1322 760 1322 760 1284 628 c 0,61,62
 1274 592 1274 592 1274 544 c 0,63,64
 1274 434 1274 434 1350 366 c 0,65,66
 1416 308 1416 308 1504 308 c 0,67,68
 1548 308 1548 308 1580 324 c 1,69,-1
 1646 498 l 2,70,71
 1660 534 1660 534 1660 578 c 0,57,58
1800 102 m 1,72,-1
 1800 286 l 1,73,-1
 1700 240 l 1,74,-1
 1644 102 l 1,75,-1
 1800 102 l 1,72,-1
486 274 m 256,76,77
 486 340 486 340 450 390 c 0,78,79
 410 448 410 448 348 448 c 256,80,81
 286 448 286 448 248 393 c 128,-1,82
 210 338 210 338 210 274 c 0,83,84
 210 208 210 208 246 158 c 0,85,86
 286 100 286 100 348 100 c 256,87,88
 410 100 410 100 450 158 c 0,89,90
 486 208 486 208 486 274 c 256,76,77
EndSplineSet
EndChar

StartChar: tm_sa
Encoding: 3000 3000 82
Width: 2042
GlyphClass: 2
Flags: W
LayerCount: 2
Fore
SplineSet
1972 488 m 0,0,1
 1972 298 1972 298 1878 156 c 0,2,3
 1770 -8 1770 -8 1590 -8 c 0,4,5
 1286 -8 1286 -8 1286 322 c 2,6,-1
 1286 480 l 2,7,8
 1286 630 1286 630 1264 688 c 0,9,10
 1234 768 1234 768 1152 768 c 0,11,12
 1044 768 1044 768 1014 638 c 0,13,14
 1002 588 1002 588 1002 484 c 2,15,-1
 1002 -2 l 1,16,-1
 830 -2 l 1,17,-1
 830 474 l 2,18,19
 830 620 830 620 746 701 c 128,-1,20
 662 782 662 782 516 782 c 0,21,22
 394 782 394 782 308 686 c 0,23,24
 232 602 232 602 210 474 c 1,25,26
 276 556 276 556 402 556 c 0,27,28
 510 556 510 556 587 472 c 128,-1,29
 664 388 664 388 664 278 c 0,30,31
 664 158 664 158 592 74 c 128,-1,32
 520 -10 520 -10 402 -10 c 0,33,34
 248 -10 248 -10 168 118 c 0,35,36
 98 228 98 228 98 390 c 0,37,38
 98 596 98 596 218 742 c 0,39,40
 346 898 346 898 548 898 c 0,41,42
 842 898 842 898 948 702 c 1,43,44
 996 886 996 886 1178 886 c 0,45,46
 1368 886 1368 886 1426 756 c 0,47,48
 1458 684 1458 684 1458 484 c 2,49,-1
 1458 348 l 2,50,51
 1458 224 1458 224 1480 174 c 0,52,53
 1512 102 1512 102 1608 102 c 0,54,55
 1734 102 1734 102 1808 238 c 0,56,57
 1870 350 1870 350 1870 488 c 0,58,59
 1870 676 1870 676 1776 774 c 0,60,61
 1756 794 1756 794 1646 842 c 0,62,63
 1580 870 1580 870 1580 940 c 0,64,65
 1580 982 1580 982 1640 982 c 0,66,67
 1666 982 1666 982 1684 972 c 0,68,69
 1972 816 1972 816 1972 488 c 0,0,1
502 274 m 256,70,71
 502 340 502 340 466 390 c 0,72,73
 426 448 426 448 364 448 c 256,74,75
 302 448 302 448 264 393 c 128,-1,76
 226 338 226 338 226 274 c 0,77,78
 226 208 226 208 262 158 c 0,79,80
 302 100 302 100 364 100 c 256,81,82
 426 100 426 100 466 158 c 0,83,84
 502 208 502 208 502 274 c 256,70,71
EndSplineSet
EndChar

StartChar: tm_ha
Encoding: 3001 3001 83
Width: 2326
GlyphClass: 2
Flags: W
LayerCount: 2
Fore
SplineSet
2244 380 m 0,0,1
 2244 102 2244 102 2092 -45 c 128,-1,2
 1940 -192 1940 -192 1660 -192 c 2,3,-1
 388 -192 l 2,4,5
 218 -192 218 -192 218 -286 c 0,6,7
 218 -344 218 -344 284 -344 c 0,8,9
 322 -344 322 -344 352 -370 c 128,-1,10
 382 -396 382 -396 382 -434 c 0,11,12
 382 -474 382 -474 353 -501 c 128,-1,13
 324 -528 324 -528 284 -528 c 0,14,15
 196 -528 196 -528 149 -471 c 128,-1,16
 102 -414 102 -414 102 -326 c 0,17,18
 102 -208 102 -208 198 -148 c 0,19,20
 278 -98 278 -98 404 -98 c 2,21,-1
 1656 -98 l 2,22,23
 2072 -98 2072 -98 2072 378 c 0,24,25
 2072 784 2072 784 1862 784 c 0,26,27
 1722 784 1722 784 1722 564 c 2,28,-1
 1722 0 l 1,29,-1
 1550 0 l 1,30,-1
 1550 574 l 2,31,32
 1550 784 1550 784 1410 784 c 0,33,34
 1276 784 1276 784 1276 574 c 2,35,-1
 1276 0 l 1,36,-1
 752 0 l 1,37,-1
 752 72 l 1,38,39
 850 200 850 200 850 418 c 0,40,41
 850 580 850 580 754 681 c 128,-1,42
 658 782 658 782 496 782 c 0,43,44
 374 782 374 782 288 691 c 128,-1,45
 202 600 202 600 184 476 c 1,46,-1
 238 518 l 1,47,48
 310 556 310 556 378 556 c 0,49,50
 490 556 490 556 565 475 c 128,-1,51
 640 394 640 394 640 280 c 0,52,53
 640 160 640 160 568 75 c 128,-1,54
 496 -10 496 -10 378 -10 c 0,55,56
 232 -10 232 -10 146 116 c 0,57,58
 72 224 72 224 72 380 c 0,59,60
 72 594 72 594 198 742 c 0,61,62
 332 898 332 898 542 898 c 0,63,64
 748 898 748 898 885 759 c 128,-1,65
 1022 620 1022 620 1022 412 c 0,66,67
 1022 222 1022 222 944 102 c 1,68,-1
 1176 102 l 1,69,-1
 1176 588 l 2,70,71
 1176 740 1176 740 1250 818 c 0,72,73
 1316 886 1316 886 1418 886 c 0,74,75
 1622 886 1622 886 1658 728 c 1,76,77
 1718 884 1718 884 1886 884 c 0,78,79
 2244 884 2244 884 2244 380 c 0,0,1
476 274 m 256,80,81
 476 340 476 340 440 390 c 0,82,83
 400 448 400 448 338 448 c 256,84,85
 276 448 276 448 238 393 c 128,-1,86
 200 338 200 338 200 274 c 0,87,88
 200 206 200 206 234 156 c 0,89,90
 274 100 274 100 338 100 c 0,91,92
 400 100 400 100 440 158 c 0,93,94
 476 208 476 208 476 274 c 256,80,81
EndSplineSet
EndChar

StartChar: tm_aakaar
Encoding: 3006 3006 84
Width: 928
GlyphClass: 2
Flags: W
LayerCount: 2
Fore
SplineSet
892 782 m 1,0,-1
 642 782 l 1,1,-1
 642 0 l 1,2,-1
 468 0 l 1,3,-1
 468 782 l 1,4,-1
 200 782 l 1,5,-1
 200 0 l 1,6,-1
 100 0 l 1,7,-1
 100 882 l 1,8,-1
 892 882 l 1,9,-1
 892 782 l 1,0,-1
EndSplineSet
EndChar

StartChar: tm_ikaar
Encoding: 3007 3007 85
Width: 110
GlyphClass: 2
Flags: W
LayerCount: 2
Fore
SplineSet
96 0 m 1,0,-1
 -4 0 l 1,1,-1
 -4 1058 l 2,2,3
 -4 1194 -4 1194 -83 1284 c 128,-1,4
 -162 1374 -162 1374 -296 1374 c 0,5,6
 -414 1374 -414 1374 -485 1300 c 128,-1,7
 -556 1226 -556 1226 -556 1108 c 0,8,9
 -556 932 -556 932 -404 882 c 1,10,-1
 -558 884 l 1,11,12
 -666 974 -666 974 -666 1150 c 0,13,14
 -666 1314 -666 1314 -560 1424 c 128,-1,15
 -454 1534 -454 1534 -290 1534 c 0,16,17
 -106 1534 -106 1534 0 1394 c 0,18,19
 96 1268 96 1268 96 1078 c 2,20,-1
 96 0 l 1,0,-1
EndSplineSet
EndChar

StartChar: tm_iikaar
Encoding: 3008 3008 86
Width: 156
GlyphClass: 4
Flags: W
LayerCount: 2
Fore
SplineSet
120 1316 m 0,0,1
 120 1230 120 1230 61 1179 c 128,-1,2
 2 1128 2 1128 -84 1128 c 0,3,4
 -166 1128 -166 1128 -224 1168 c 0,5,6
 -290 1214 -290 1214 -290 1292 c 0,7,8
 -290 1344 -290 1344 -270 1362 c 1,9,10
 -344 1350 -344 1350 -386 1276 c 0,11,12
 -420 1212 -420 1212 -420 1130 c 0,13,14
 -420 1050 -420 1050 -360 973 c 128,-1,15
 -300 896 -300 896 -224 878 c 1,16,-1
 -392 878 l 1,17,18
 -528 974 -528 974 -528 1148 c 0,19,20
 -528 1318 -528 1318 -427 1426 c 128,-1,21
 -326 1534 -326 1534 -158 1534 c 0,22,23
 -46 1534 -46 1534 30 1482 c 0,24,25
 120 1422 120 1422 120 1316 c 0,0,1
-4 1292 m 1,26,27
 -4 1314 -4 1314 -34 1348 c 1,28,29
 -64 1372 -64 1372 -102 1372 c 0,30,31
 -134 1372 -134 1372 -167 1348 c 128,-1,32
 -200 1324 -200 1324 -200 1292 c 0,33,34
 -202 1258 -202 1258 -169 1236 c 128,-1,35
 -136 1214 -136 1214 -102 1214 c 0,36,37
 -58 1214 -58 1214 -30 1236 c 1,38,39
 -14 1256 -14 1256 -4 1292 c 1,26,27
EndSplineSet
EndChar

StartChar: tm_ukaar
Encoding: 3009 3009 87
Width: 760
GlyphClass: 4
Flags: W
LayerCount: 2
Fore
SplineSet
688 392 m 1,0,-1
 120 392 l 1,1,-1
 120 778 l 1,2,-1
 -392 778 l 1,3,-1
 -392 892 l 1,4,-1
 688 892 l 1,5,-1
 688 392 l 1,0,-1
532 504 m 1,6,-1
 532 778 l 1,7,-1
 282 778 l 1,8,-1
 282 504 l 1,9,-1
 532 504 l 1,6,-1
EndSplineSet
EndChar

StartChar: tm_uukaar
Encoding: 3010 3010 88
Width: 1210
GlyphClass: 4
Flags: W
LayerCount: 2
Fore
SplineSet
1148 530 m 2,0,1
 1148 -60 1148 -60 464 -60 c 0,2,3
 324 -60 324 -60 168 38 c 0,4,5
 24 130 24 130 -58 256 c 1,6,-1
 12 322 l 1,7,8
 174 72 174 72 464 72 c 0,9,10
 782 72 782 72 902 214 c 0,11,12
 960 282 960 282 982 412 c 1,13,-1
 988 506 l 1,14,-1
 988 756 l 2,15,16
 988 918 988 918 888 1048 c 0,17,18
 782 1190 782 1190 624 1190 c 0,19,20
 492 1190 492 1190 398 1106 c 128,-1,21
 304 1022 304 1022 304 890 c 1,22,-1
 714 890 l 1,23,-1
 714 390 l 1,24,-1
 148 390 l 1,25,-1
 148 776 l 1,26,-1
 -388 776 l 1,27,-1
 -388 890 l 1,28,-1
 148 890 l 1,29,30
 148 1102 148 1102 296 1216 c 0,31,32
 432 1322 432 1322 648 1322 c 0,33,34
 862 1322 862 1322 1005 1171 c 128,-1,35
 1148 1020 1148 1020 1148 804 c 2,36,-1
 1148 530 l 2,0,1
554 502 m 1,37,-1
 554 776 l 1,38,-1
 304 776 l 1,39,-1
 304 502 l 1,40,-1
 554 502 l 1,37,-1
EndSplineSet
EndChar

StartChar: tm_ekaar
Encoding: 3014 3014 89
Width: 1374
GlyphClass: 2
Flags: W
LayerCount: 2
Fore
SplineSet
1312 0 m 1,0,-1
 1210 0 l 1,1,-1
 1210 596 l 2,2,3
 1210 852 1210 852 1098 1010 c 0,4,5
 970 1192 970 1192 726 1192 c 0,6,7
 496 1192 496 1192 358 1030 c 0,8,9
 230 880 230 880 230 642 c 0,10,11
 230 348 230 348 372 200 c 0,12,13
 478 90 478 90 614 90 c 0,14,15
 674 90 674 90 708 104 c 1,16,17
 576 156 576 156 576 336 c 0,18,19
 576 450 576 450 649 531 c 128,-1,20
 722 612 722 612 834 612 c 0,21,22
 968 612 968 612 1038 520 c 0,23,24
 1094 448 1094 448 1094 362 c 0,25,26
 1094 184 1094 184 940 84 c 0,27,28
 806 -2 806 -2 620 -2 c 0,29,30
 358 -2 358 -2 202 188 c 0,31,32
 58 364 58 364 58 634 c 0,33,34
 58 964 58 964 272 1154 c 0,35,36
 454 1314 454 1314 690 1314 c 0,37,38
 980 1314 980 1314 1152 1108 c 0,39,40
 1312 914 1312 914 1312 618 c 2,41,-1
 1312 0 l 1,0,-1
940 334 m 0,42,43
 940 396 940 396 904 453 c 128,-1,44
 868 510 868 510 810 510 c 0,45,46
 750 510 750 510 712 450 c 0,47,48
 678 398 678 398 678 334 c 0,49,50
 678 268 678 268 710 216 c 0,51,52
 748 156 748 156 810 156 c 0,53,54
 870 156 870 156 908 218 c 0,55,56
 940 270 940 270 940 334 c 0,42,43
EndSplineSet
EndChar

StartChar: tm_eekaar
Encoding: 3015 3015 90
Width: 1200
GlyphClass: 2
Flags: W
LayerCount: 2
Fore
SplineSet
1134 362 m 0,0,1
 1134 182 1134 182 992 84 c 0,2,3
 868 -2 868 -2 682 -2 c 0,4,5
 372 -2 372 -2 215 170 c 128,-1,6
 58 342 58 342 58 658 c 256,7,8
 58 974 58 974 212 1142 c 0,9,10
 370 1318 370 1318 682 1318 c 0,11,12
 870 1318 870 1318 994 1230 c 0,13,14
 1134 1132 1134 1132 1134 952 c 0,15,16
 1134 870 1134 870 1076 796 c 0,17,18
 1002 702 1002 702 872 702 c 0,19,20
 758 702 758 702 686 783 c 128,-1,21
 614 864 614 864 614 980 c 0,22,23
 614 1166 614 1166 754 1208 c 1,24,-1
 700 1216 l 1,25,26
 464 1216 464 1216 340 1050 c 0,27,28
 230 902 230 902 230 658 c 0,29,30
 230 416 230 416 340 266 c 0,31,32
 466 100 466 100 700 100 c 0,33,34
 738 100 738 100 754 108 c 1,35,36
 614 148 614 148 614 336 c 0,37,38
 614 450 614 450 687 531 c 128,-1,39
 760 612 760 612 872 612 c 0,40,41
 980 612 980 612 1057 541 c 128,-1,42
 1134 470 1134 470 1134 362 c 0,0,1
980 982 m 0,43,44
 980 1046 980 1046 944 1103 c 128,-1,45
 908 1160 908 1160 848 1160 c 256,46,47
 788 1160 788 1160 750 1098 c 0,48,49
 718 1046 718 1046 718 982 c 256,50,51
 718 918 718 918 750 864 c 0,52,53
 788 804 788 804 848 804 c 0,54,55
 906 804 906 804 948 864 c 1,56,57
 980 922 980 922 980 982 c 0,43,44
980 334 m 0,58,59
 980 396 980 396 946 450 c 0,60,61
 906 510 906 510 848 510 c 256,62,63
 790 510 790 510 754 453 c 128,-1,64
 718 396 718 396 718 334 c 0,65,66
 718 270 718 270 750 216 c 0,67,68
 788 156 788 156 848 156 c 0,69,70
 906 156 906 156 948 216 c 1,71,72
 980 274 980 274 980 334 c 0,58,59
EndSplineSet
EndChar

StartChar: tm_aikaar
Encoding: 3016 3016 91
Width: 1782
GlyphClass: 2
Flags: W
LayerCount: 2
Fore
SplineSet
1710 442 m 0,0,1
 1710 272 1710 272 1628 154 c 0,2,3
 1542 28 1542 28 1384 -10 c 1,4,-1
 1326 102 l 1,5,6
 1540 152 1540 152 1540 450 c 0,7,8
 1540 588 1540 588 1452 684 c 128,-1,9
 1364 780 1364 780 1226 780 c 0,10,11
 1142 780 1142 780 1070 734 c 1,12,13
 1228 586 1228 586 1228 370 c 0,14,15
 1228 230 1228 230 1178 130 c 0,16,17
 1114 2 1114 2 988 2 c 0,18,19
 816 2 816 2 764 240 c 0,20,21
 750 302 750 302 750 370 c 0,22,23
 750 560 750 560 882 716 c 1,24,25
 758 794 758 794 604 794 c 0,26,27
 454 794 454 794 343 707 c 128,-1,28
 232 620 232 620 194 474 c 1,29,30
 266 556 266 556 388 556 c 0,31,32
 502 556 502 556 576 474 c 128,-1,33
 650 392 650 392 650 278 c 0,34,35
 650 158 650 158 578 74 c 128,-1,36
 506 -10 506 -10 388 -10 c 0,37,38
 230 -10 230 -10 150 116 c 0,39,40
 82 222 82 222 82 390 c 0,41,42
 82 622 82 622 254 766 c 0,43,44
 416 902 416 902 654 902 c 0,45,46
 834 902 834 902 982 802 c 1,47,48
 1112 892 1112 892 1254 892 c 0,49,50
 1452 892 1452 892 1581 766 c 128,-1,51
 1710 640 1710 640 1710 442 c 0,0,1
1062 370 m 0,52,53
 1062 524 1062 524 960 648 c 1,54,55
 854 542 854 542 854 370 c 0,56,57
 854 294 854 294 872 228 c 0,58,59
 898 130 898 130 960 130 c 0,60,61
 992 130 992 130 1028 184 c 1,62,63
 1062 252 1062 252 1062 370 c 0,52,53
486 274 m 256,64,65
 486 340 486 340 450 390 c 0,66,67
 410 448 410 448 348 448 c 256,68,69
 286 448 286 448 248 393 c 128,-1,70
 210 338 210 338 210 274 c 0,71,72
 210 208 210 208 246 158 c 0,73,74
 286 100 286 100 348 100 c 256,75,76
 410 100 410 100 450 158 c 0,77,78
 486 208 486 208 486 274 c 256,64,65
EndSplineSet
EndChar

StartChar: tm_okaar
Encoding: 3018 3018 92
Width: 2450
GlyphClass: 2
Flags: W
LayerCount: 2
Fore
SplineSet
2352 782 m 1,0,-1
 2102 782 l 1,1,-1
 2102 0 l 1,2,-1
 1928 0 l 1,3,-1
 1928 782 l 1,4,-1
 1660 782 l 1,5,-1
 1660 0 l 1,6,-1
 1560 0 l 1,7,-1
 1560 882 l 1,8,-1
 2352 882 l 1,9,-1
 2352 782 l 1,0,-1
1312 0 m 1,10,-1
 1210 0 l 1,11,-1
 1210 596 l 2,12,13
 1210 852 1210 852 1098 1010 c 0,14,15
 970 1192 970 1192 726 1192 c 0,16,17
 496 1192 496 1192 358 1030 c 0,18,19
 230 880 230 880 230 642 c 0,20,21
 230 348 230 348 372 200 c 0,22,23
 478 90 478 90 614 90 c 0,24,25
 674 90 674 90 708 104 c 1,26,27
 576 156 576 156 576 336 c 0,28,29
 576 450 576 450 649 531 c 128,-1,30
 722 612 722 612 834 612 c 0,31,32
 968 612 968 612 1038 520 c 0,33,34
 1094 448 1094 448 1094 362 c 0,35,36
 1094 184 1094 184 940 84 c 0,37,38
 806 -2 806 -2 620 -2 c 0,39,40
 358 -2 358 -2 202 188 c 0,41,42
 58 364 58 364 58 634 c 0,43,44
 58 964 58 964 272 1154 c 0,45,46
 454 1314 454 1314 690 1314 c 0,47,48
 980 1314 980 1314 1152 1108 c 0,49,50
 1312 914 1312 914 1312 618 c 2,51,-1
 1312 0 l 1,10,-1
940 334 m 0,52,53
 940 396 940 396 904 453 c 128,-1,54
 868 510 868 510 810 510 c 0,55,56
 750 510 750 510 712 450 c 0,57,58
 678 398 678 398 678 334 c 0,59,60
 678 268 678 268 710 216 c 0,61,62
 748 156 748 156 810 156 c 0,63,64
 870 156 870 156 908 218 c 0,65,66
 940 270 940 270 940 334 c 0,52,53
EndSplineSet
EndChar

StartChar: tm_ookaar
Encoding: 3019 3019 93
Width: 2176
GlyphClass: 2
Flags: W
LayerCount: 2
Fore
SplineSet
2072 782 m 1,0,-1
 1822 782 l 1,1,-1
 1822 0 l 1,2,-1
 1648 0 l 1,3,-1
 1648 782 l 1,4,-1
 1380 782 l 1,5,-1
 1380 0 l 1,6,-1
 1280 0 l 1,7,-1
 1280 882 l 1,8,-1
 2072 882 l 1,9,-1
 2072 782 l 1,0,-1
1134 362 m 0,10,11
 1134 182 1134 182 992 84 c 0,12,13
 868 -2 868 -2 682 -2 c 0,14,15
 372 -2 372 -2 215 170 c 128,-1,16
 58 342 58 342 58 658 c 256,17,18
 58 974 58 974 212 1142 c 0,19,20
 370 1318 370 1318 682 1318 c 0,21,22
 870 1318 870 1318 994 1230 c 0,23,24
 1134 1132 1134 1132 1134 952 c 0,25,26
 1134 870 1134 870 1076 796 c 0,27,28
 1002 702 1002 702 872 702 c 0,29,30
 758 702 758 702 686 783 c 128,-1,31
 614 864 614 864 614 980 c 0,32,33
 614 1166 614 1166 754 1208 c 1,34,-1
 700 1216 l 1,35,36
 464 1216 464 1216 340 1050 c 0,37,38
 230 902 230 902 230 658 c 0,39,40
 230 416 230 416 340 266 c 0,41,42
 466 100 466 100 700 100 c 0,43,44
 738 100 738 100 754 108 c 1,45,46
 614 148 614 148 614 336 c 0,47,48
 614 450 614 450 687 531 c 128,-1,49
 760 612 760 612 872 612 c 0,50,51
 980 612 980 612 1057 541 c 128,-1,52
 1134 470 1134 470 1134 362 c 0,10,11
980 982 m 0,53,54
 980 1046 980 1046 944 1103 c 128,-1,55
 908 1160 908 1160 848 1160 c 256,56,57
 788 1160 788 1160 750 1098 c 0,58,59
 718 1046 718 1046 718 982 c 256,60,61
 718 918 718 918 750 864 c 0,62,63
 788 804 788 804 848 804 c 0,64,65
 906 804 906 804 948 864 c 1,66,67
 980 922 980 922 980 982 c 0,53,54
980 334 m 0,68,69
 980 396 980 396 946 450 c 0,70,71
 906 510 906 510 848 510 c 256,72,73
 790 510 790 510 754 453 c 128,-1,74
 718 396 718 396 718 334 c 0,75,76
 718 270 718 270 750 216 c 0,77,78
 788 156 788 156 848 156 c 0,79,80
 906 156 906 156 948 216 c 1,81,82
 980 274 980 274 980 334 c 0,68,69
EndSplineSet
EndChar

StartChar: tm_aukaar
Encoding: 3020 3020 94
Width: 3034
GlyphClass: 2
Flags: W
LayerCount: 2
Fore
SplineSet
2980 782 m 1,0,-1
 2792 782 l 1,1,-1
 2792 0 l 1,2,-1
 2622 0 l 1,3,-1
 2622 782 l 1,4,-1
 2364 782 l 1,5,-1
 2364 0 l 1,6,-1
 2194 0 l 1,7,-1
 2194 396 l 2,8,9
 2194 782 2194 782 1864 782 c 0,10,11
 1742 782 1742 782 1652 686 c 0,12,13
 1570 596 1570 596 1554 470 c 1,14,-1
 1606 516 l 1,15,16
 1670 556 1670 556 1746 556 c 0,17,18
 1858 556 1858 556 1934 476 c 128,-1,19
 2010 396 2010 396 2010 284 c 0,20,21
 2010 160 2010 160 1942 78 c 0,22,23
 1868 -10 1868 -10 1748 -10 c 0,24,25
 1624 -10 1624 -10 1542 80 c 0,26,27
 1444 188 1444 188 1444 404 c 0,28,29
 1444 586 1444 586 1564 734 c 0,30,31
 1696 898 1696 898 1904 898 c 0,32,33
 2148 898 2148 898 2268 740 c 1,34,-1
 2268 882 l 1,35,-1
 2980 882 l 1,36,-1
 2980 782 l 1,0,-1
1312 0 m 1,37,-1
 1210 0 l 1,38,-1
 1210 596 l 2,39,40
 1210 852 1210 852 1098 1010 c 0,41,42
 970 1192 970 1192 726 1192 c 0,43,44
 496 1192 496 1192 358 1030 c 0,45,46
 230 880 230 880 230 642 c 0,47,48
 230 348 230 348 372 200 c 0,49,50
 478 90 478 90 614 90 c 0,51,52
 674 90 674 90 708 104 c 1,53,54
 576 156 576 156 576 336 c 0,55,56
 576 450 576 450 649 531 c 128,-1,57
 722 612 722 612 834 612 c 0,58,59
 968 612 968 612 1038 520 c 0,60,61
 1094 448 1094 448 1094 362 c 0,62,63
 1094 184 1094 184 940 84 c 0,64,65
 806 -2 806 -2 620 -2 c 0,66,67
 358 -2 358 -2 202 188 c 0,68,69
 58 364 58 364 58 634 c 0,70,71
 58 964 58 964 272 1154 c 0,72,73
 454 1314 454 1314 690 1314 c 0,74,75
 980 1314 980 1314 1152 1108 c 0,76,77
 1312 914 1312 914 1312 618 c 2,78,-1
 1312 0 l 1,37,-1
1846 274 m 256,79,80
 1846 340 1846 340 1810 390 c 0,81,82
 1770 448 1770 448 1708 448 c 256,83,84
 1646 448 1646 448 1608 393 c 128,-1,85
 1570 338 1570 338 1570 274 c 0,86,87
 1570 208 1570 208 1606 158 c 0,88,89
 1646 100 1646 100 1708 100 c 256,90,91
 1770 100 1770 100 1810 158 c 0,92,93
 1846 208 1846 208 1846 274 c 256,79,80
940 334 m 0,94,95
 940 396 940 396 904 453 c 128,-1,96
 868 510 868 510 810 510 c 0,97,98
 750 510 750 510 712 450 c 0,99,100
 678 398 678 398 678 334 c 0,101,102
 678 268 678 268 710 216 c 0,103,104
 748 156 748 156 810 156 c 0,105,106
 870 156 870 156 908 218 c 0,107,108
 940 270 940 270 940 334 c 0,94,95
EndSplineSet
EndChar

StartChar: tm_halant
Encoding: 3021 3021 95
Width: 2
GlyphClass: 4
Flags: W
LayerCount: 2
Fore
SplineSet
-412 1194 m 0,0,1
 -412 1144 -412 1144 -447 1108 c 128,-1,2
 -482 1072 -482 1072 -532 1072 c 256,3,4
 -582 1072 -582 1072 -617 1108 c 128,-1,5
 -652 1144 -652 1144 -652 1194 c 256,6,7
 -652 1244 -652 1244 -617 1279 c 128,-1,8
 -582 1314 -582 1314 -532 1314 c 0,9,10
 -484 1314 -484 1314 -448 1278 c 128,-1,11
 -412 1242 -412 1242 -412 1194 c 0,0,1
EndSplineSet
EndChar

StartChar: tm_au_lengthmk
Encoding: 3031 3031 96
Width: 1659
GlyphClass: 2
Flags: W
LayerCount: 2
Fore
SplineSet
1620 782 m 1,0,-1
 1432 782 l 1,1,-1
 1432 0 l 1,2,-1
 1262 0 l 1,3,-1
 1262 782 l 1,4,-1
 1004 782 l 1,5,-1
 1004 0 l 1,6,-1
 834 0 l 1,7,-1
 834 396 l 2,8,9
 834 782 834 782 504 782 c 0,10,11
 382 782 382 782 292 686 c 0,12,13
 210 596 210 596 194 470 c 1,14,-1
 246 516 l 1,15,16
 310 556 310 556 386 556 c 0,17,18
 498 556 498 556 574 476 c 128,-1,19
 650 396 650 396 650 284 c 0,20,21
 650 160 650 160 582 78 c 0,22,23
 508 -10 508 -10 388 -10 c 0,24,25
 264 -10 264 -10 182 80 c 0,26,27
 84 188 84 188 84 404 c 0,28,29
 84 586 84 586 204 734 c 0,30,31
 336 898 336 898 544 898 c 0,32,33
 788 898 788 898 908 740 c 1,34,-1
 908 882 l 1,35,-1
 1620 882 l 1,36,-1
 1620 782 l 1,0,-1
486 274 m 256,37,38
 486 340 486 340 450 390 c 0,39,40
 410 448 410 448 348 448 c 256,41,42
 286 448 286 448 248 393 c 128,-1,43
 210 338 210 338 210 274 c 0,44,45
 210 208 210 208 246 158 c 0,46,47
 286 100 286 100 348 100 c 256,48,49
 410 100 410 100 450 158 c 0,50,51
 486 208 486 208 486 274 c 256,37,38
EndSplineSet
EndChar

StartChar: tm_one
Encoding: 3047 3047 97
Width: 1376
GlyphClass: 2
Flags: W
LayerCount: 2
Fore
SplineSet
1266 286 m 0,0,1
 1268 174 1268 174 1175 94 c 128,-1,2
 1082 14 1082 14 968 12 c 0,3,4
 920 12 920 12 832 42 c 1,5,-1
 832 164 l 1,6,-1
 890 140 l 1,7,-1
 960 132 l 1,8,9
 1040 132 1040 132 1097 171 c 128,-1,10
 1154 210 1154 210 1156 286 c 0,11,12
 1158 370 1158 370 1104 419 c 128,-1,13
 1050 468 1050 468 964 468 c 2,14,-1
 792 468 l 1,15,-1
 792 286 l 2,16,17
 792 146 792 146 686 68 c 0,18,19
 592 -2 592 -2 446 -4 c 0,20,21
 282 -6 282 -6 162 94 c 0,22,23
 34 200 34 200 32 360 c 0,24,25
 32 438 32 438 78 504 c 0,26,27
 130 578 130 578 204 578 c 2,28,-1
 250 578 l 1,29,-1
 250 964 l 1,30,-1
 1110 964 l 1,31,-1
 1110 856 l 1,32,-1
 792 856 l 1,33,-1
 792 578 l 1,34,-1
 1012 578 l 2,35,36
 1120 578 1120 578 1192 487 c 128,-1,37
 1264 396 1264 396 1266 286 c 0,0,1
684 578 m 1,38,-1
 684 856 l 1,39,-1
 360 856 l 1,40,-1
 360 578 l 1,41,-1
 684 578 l 1,38,-1
684 336 m 2,42,-1
 684 468 l 1,43,-1
 250 468 l 2,44,45
 222 468 222 468 180 424 c 1,46,47
 152 384 152 384 152 336 c 0,48,49
 150 244 150 244 254 172 c 0,50,51
 350 106 350 106 446 106 c 0,52,53
 684 106 684 106 684 336 c 2,42,-1
EndSplineSet
EndChar

StartChar: tm_two
Encoding: 3048 3048 98
Width: 1672
GlyphClass: 2
Flags: W
LayerCount: 2
Fore
SplineSet
1574 -4 m 1,0,-1
 254 -4 l 2,1,2
 26 -4 26 -4 24 164 c 0,3,4
 24 244 24 244 88 292 c 0,5,6
 146 336 146 336 230 336 c 2,7,-1
 484 336 l 2,8,9
 584 336 584 336 674 412 c 0,10,11
 698 432 698 432 736 484 c 0,12,13
 738 490 738 490 752 516 c 0,14,15
 754 524 754 524 762 566 c 1,16,17
 762 702 762 702 678 778 c 128,-1,18
 594 854 594 854 456 856 c 0,19,20
 370 858 370 858 276 810 c 0,21,22
 158 750 158 750 152 656 c 0,23,24
 148 594 148 594 210 494 c 1,25,26
 284 452 284 452 284 406 c 0,27,28
 284 380 284 380 250 378 c 0,29,30
 164 374 164 374 102 430 c 0,31,32
 72 458 72 458 48 520 c 128,-1,33
 24 582 24 582 24 626 c 0,34,35
 22 800 22 800 170 890 c 0,36,37
 218 920 218 920 304 944 c 1,38,39
 418 964 418 964 460 964 c 0,40,41
 628 966 628 966 749 856 c 128,-1,42
 870 746 870 746 872 578 c 0,43,44
 874 434 874 434 736 326 c 0,45,46
 608 226 608 226 460 226 c 2,47,-1
 230 226 l 2,48,49
 122 226 122 226 122 164 c 0,50,51
 122 106 122 106 230 106 c 2,52,-1
 1574 106 l 1,53,-1
 1574 -4 l 1,0,-1
EndSplineSet
EndChar

StartChar: tm_three
Encoding: 3049 3049 99
Width: 1488
GlyphClass: 2
Flags: W
LayerCount: 2
Fore
SplineSet
1380 -4 m 1,0,-1
 464 -4 l 1,1,-1
 464 106 l 1,2,-1
 730 106 l 1,3,4
 898 152 898 152 898 360 c 0,5,6
 898 426 898 426 838 472 c 0,7,8
 786 512 786 512 716 514 c 0,9,10
 644 516 644 516 574 446 c 1,11,-1
 574 262 l 1,12,-1
 464 262 l 1,13,-1
 464 856 l 1,14,-1
 136 856 l 1,15,-1
 136 -4 l 1,16,-1
 28 -4 l 1,17,-1
 28 964 l 1,18,-1
 864 964 l 1,19,-1
 864 856 l 1,20,-1
 574 856 l 1,21,-1
 574 590 l 1,22,23
 640 644 640 644 730 646 c 0,24,25
 844 648 844 648 937 567 c 128,-1,26
 1030 486 1030 486 1032 372 c 0,27,28
 1034 194 1034 194 922 106 c 1,29,-1
 1380 104 l 1,30,-1
 1380 -4 l 1,0,-1
EndSplineSet
EndChar

StartChar: tm_four
Encoding: 3050 3050 100
Width: 1466
GlyphClass: 2
Flags: W
LayerCount: 2
Fore
SplineSet
1414 468 m 1,0,-1
 792 468 l 1,1,-1
 792 286 l 2,2,3
 792 146 792 146 686 68 c 0,4,5
 592 -2 592 -2 446 -4 c 0,6,7
 282 -6 282 -6 162 94 c 0,8,9
 34 200 34 200 32 360 c 0,10,11
 32 444 32 444 74 508 c 0,12,13
 124 578 124 578 204 578 c 2,14,-1
 250 578 l 1,15,-1
 250 964 l 1,16,-1
 1110 964 l 1,17,-1
 1110 856 l 1,18,-1
 792 856 l 1,19,-1
 792 578 l 1,20,-1
 1304 576 l 1,21,-1
 1304 958 l 1,22,-1
 1414 958 l 1,23,-1
 1414 468 l 1,0,-1
684 578 m 1,24,-1
 684 856 l 1,25,-1
 360 856 l 1,26,-1
 360 578 l 1,27,-1
 684 578 l 1,24,-1
684 336 m 2,28,-1
 684 468 l 1,29,-1
 250 468 l 2,30,31
 208 468 208 468 178 426 c 1,32,-1
 162 390 l 1,33,34
 162 366 162 366 152 336 c 1,35,36
 152 246 152 246 256 172 c 0,37,38
 350 106 350 106 446 106 c 0,39,40
 684 106 684 106 684 336 c 2,28,-1
EndSplineSet
EndChar

StartChar: tm_five
Encoding: 3051 3051 101
Width: 1762
GlyphClass: 2
Flags: W
LayerCount: 2
Fore
SplineSet
1640 94 m 0,0,1
 1642 -184 1642 -184 1392 -372 c 0,2,3
 1164 -544 1164 -544 878 -546 c 0,4,5
 540 -548 540 -548 296 -330 c 0,6,7
 42 -102 42 -102 32 226 c 2,8,-1
 30 290 l 2,9,10
 24 462 24 462 76 620 c 0,11,12
 144 830 144 830 262 926 c 0,13,14
 274 938 274 938 292 938 c 0,15,16
 340 938 340 938 342 888 c 1,17,-1
 336 868 l 1,18,19
 126 638 126 638 138 294 c 2,20,-1
 140 238 l 2,21,22
 152 -82 152 -82 370 -262 c 0,23,24
 566 -424 566 -424 868 -426 c 0,25,26
 1110 -428 1110 -428 1308 -292 c 0,27,28
 1530 -140 1530 -140 1532 94 c 0,29,30
 1534 214 1534 214 1472 320 c 0,31,32
 1402 444 1402 444 1290 446 c 0,33,34
 1152 448 1152 448 1074 296 c 1,35,-1
 1074 -4 l 1,36,-1
 964 -4 l 1,37,-1
 964 856 l 1,38,-1
 684 856 l 1,39,-1
 684 -4 l 1,40,-1
 578 -4 l 1,41,-1
 578 964 l 1,42,-1
 1352 964 l 1,43,-1
 1352 856 l 1,44,-1
 1074 856 l 1,45,-1
 1074 430 l 1,46,47
 1086 470 1086 470 1170 518 c 0,48,49
 1206 538 1206 538 1234 542 c 2,50,-1
 1300 550 l 1,51,52
 1446 550 1446 550 1554 412 c 1,53,54
 1638 278 1638 278 1640 94 c 0,0,1
EndSplineSet
EndChar

StartChar: tm_six
Encoding: 3052 3052 102
Width: 1992
GlyphClass: 2
Flags: W
LayerCount: 2
Fore
SplineSet
1862 476 m 1,0,-1
 1666 476 l 1,1,-1
 1666 -4 l 1,2,-1
 1556 -4 l 1,3,-1
 1556 476 l 1,4,-1
 1278 476 l 1,5,-1
 1278 -4 l 1,6,-1
 1170 -4 l 1,7,-1
 1170 90 l 2,8,9
 1170 218 1170 218 1156 286 c 1,10,11
 1158 370 1158 370 1104 419 c 128,-1,12
 1050 468 1050 468 964 468 c 2,13,-1
 792 468 l 1,14,-1
 792 286 l 2,15,16
 792 146 792 146 686 68 c 0,17,18
 592 -2 592 -2 446 -4 c 0,19,20
 282 -6 282 -6 162 94 c 0,21,22
 34 200 34 200 32 360 c 0,23,24
 32 438 32 438 78 504 c 0,25,26
 130 578 130 578 204 578 c 2,27,-1
 250 578 l 1,28,-1
 250 964 l 1,29,-1
 1110 964 l 1,30,-1
 1110 856 l 1,31,-1
 792 856 l 1,32,-1
 792 578 l 1,33,-1
 1012 578 l 2,34,35
 1094 578 1094 578 1170 508 c 1,36,-1
 1170 584 l 1,37,-1
 1862 584 l 1,38,-1
 1862 476 l 1,0,-1
684 578 m 1,39,-1
 684 856 l 1,40,-1
 360 856 l 1,41,-1
 360 578 l 1,42,-1
 684 578 l 1,39,-1
684 336 m 2,43,-1
 684 468 l 1,44,-1
 250 468 l 2,45,46
 222 468 222 468 180 424 c 1,47,48
 152 384 152 384 152 336 c 0,49,50
 150 244 150 244 254 172 c 0,51,52
 350 106 350 106 446 106 c 0,53,54
 684 106 684 106 684 336 c 2,43,-1
EndSplineSet
EndChar

StartChar: tm_seven
Encoding: 3053 3053 103
Width: 1488
GlyphClass: 2
Flags: W
LayerCount: 2
Fore
SplineSet
1430 832 m 1,0,-1
 1070 832 l 1,1,-1
 1070 -4 l 1,2,-1
 950 -4 l 1,3,-1
 950 832 l 1,4,-1
 536 832 l 2,5,6
 394 832 394 832 268 724 c 0,7,8
 254 712 254 712 180 604 c 1,9,-1
 156 538 l 1,10,-1
 148 468 l 1,11,12
 238 594 238 594 426 598 c 0,13,14
 560 600 560 600 644 521 c 128,-1,15
 728 442 728 442 730 308 c 0,16,17
 732 170 732 170 630 76 c 0,18,19
 544 -2 544 -2 442 -4 c 0,20,21
 254 -6 254 -6 138 134 c 0,22,23
 30 266 30 266 28 458 c 0,24,25
 26 666 26 666 176 810 c 128,-1,26
 326 954 326 954 536 954 c 2,27,-1
 1430 954 l 1,28,-1
 1430 832 l 1,0,-1
622 286 m 0,29,30
 622 348 622 348 562 413 c 128,-1,31
 502 478 502 478 442 480 c 0,32,33
 364 482 364 482 300 423 c 128,-1,34
 236 364 236 364 234 286 c 0,35,36
 232 220 232 220 290 156 c 1,37,38
 344 114 344 114 422 112 c 0,39,40
 504 110 504 110 563 158 c 128,-1,41
 622 206 622 206 622 286 c 0,29,30
EndSplineSet
EndChar

StartChar: tm_eight
Encoding: 3054 3054 104
Width: 2036
GlyphClass: 2
Flags: W
LayerCount: 2
Fore
SplineSet
1922 -320 m 1,0,-1
 1816 -320 l 1,1,-1
 1816 140 l 1,2,-1
 1494 140 l 1,3,4
 1384 -52 1384 -52 1170 -158 c 0,5,6
 974 -256 974 -256 738 -258 c 0,7,8
 522 -260 522 -260 296 -156 c 0,9,10
 26 -32 26 -32 24 164 c 0,11,12
 22 262 22 262 180 262 c 2,13,-1
 1420 262 l 1,14,15
 1452 360 1452 360 1454 468 c 0,16,17
 1458 614 1458 614 1353 737 c 128,-1,18
 1248 860 1248 860 1104 862 c 0,19,20
 1080 862 1080 862 1004 844 c 1,21,22
 978 844 978 844 920 790 c 0,23,24
 868 744 868 744 848 712 c 1,25,26
 842 684 842 684 830 626 c 1,27,28
 830 574 830 574 862 540 c 0,29,30
 942 452 942 452 978 436 c 0,31,32
 988 432 988 432 1026 406 c 0,33,34
 1058 382 1058 382 1070 382 c 0,35,36
 1076 382 1076 382 1082 388 c 1,37,38
 1080 360 1080 360 1094 334 c 0,39,40
 1098 328 1098 328 1116 304 c 1,41,42
 1114 300 1114 300 1110 298 c 0,43,44
 1094 284 1094 284 1074 284 c 0,45,46
 1052 284 1052 284 1018 300 c 2,47,-1
 950 332 l 2,48,49
 886 358 886 358 770 478 c 1,50,51
 716 552 716 552 714 648 c 0,52,53
 712 798 712 798 856 888 c 0,54,55
 974 962 974 962 1114 964 c 0,56,57
 1318 968 1318 968 1446 810 c 0,58,59
 1564 668 1564 668 1574 458 c 1,60,-1
 1568 356 l 2,61,62
 1566 336 1566 336 1560 312 c 2,63,-1
 1546 262 l 1,64,-1
 1816 262 l 1,65,-1
 1816 942 l 1,66,-1
 1922 942 l 1,67,-1
 1922 -320 l 1,0,-1
1360 140 m 1,68,-1
 144 140 l 1,69,70
 186 8 186 8 378 -76 c 0,71,72
 542 -148 542 -148 726 -148 c 0,73,74
 916 -148 916 -148 1080 -80 c 0,75,76
 1266 -4 1266 -4 1360 140 c 1,68,-1
EndSplineSet
EndChar

StartChar: tm_nine
Encoding: 3055 3055 105
Width: 1928
GlyphClass: 2
Flags: W
LayerCount: 2
Fore
SplineSet
1816 -4 m 1,0,-1
 1528 -4 l 1,1,-1
 1528 102 l 1,2,3
 1662 158 1662 158 1664 386 c 0,4,5
 1664 492 1664 492 1560 566 c 0,6,7
 1468 632 1468 632 1356 634 c 0,8,9
 1236 636 1236 636 1168 558 c 1,10,11
 1272 558 1272 558 1358 462 c 1,12,13
 1418 378 1418 378 1420 256 c 0,14,15
 1422 140 1422 140 1360 65 c 128,-1,16
 1298 -10 1298 -10 1184 -12 c 0,17,18
 1034 -14 1034 -14 960 86 c 1,19,-1
 938 126 l 2,20,21
 930 146 930 146 914 184 c 1,22,23
 900 240 900 240 898 316 c 0,24,25
 896 396 896 396 932 468 c 1,26,-1
 786 468 l 1,27,-1
 786 286 l 2,28,29
 786 146 786 146 676 68 c 0,30,31
 580 -2 580 -2 434 -4 c 0,32,33
 272 -6 272 -6 152 94 c 0,34,35
 24 200 24 200 24 360 c 0,36,37
 24 444 24 444 68 506 c 0,38,39
 118 578 118 578 196 578 c 2,40,-1
 242 578 l 1,41,-1
 242 964 l 1,42,-1
 1102 964 l 1,43,-1
 1102 856 l 1,44,-1
 786 856 l 1,45,-1
 786 578 l 1,46,-1
 998 578 l 1,47,48
 1138 748 1138 748 1378 750 c 0,49,50
 1540 752 1540 752 1663 621 c 128,-1,51
 1786 490 1786 490 1786 326 c 0,52,53
 1786 226 1786 226 1714 106 c 1,54,-1
 1804 106 l 1,55,-1
 1816 -4 l 1,0,-1
1296 282 m 1,56,57
 1278 470 1278 470 1098 472 c 0,58,59
 1078 472 1078 472 1040 422 c 1,60,61
 1016 374 1016 374 1016 304 c 0,62,63
 1016 108 1016 108 1176 106 c 0,64,65
 1296 104 1296 104 1296 282 c 1,56,57
676 578 m 1,66,-1
 676 856 l 1,67,-1
 352 856 l 1,68,-1
 352 578 l 1,69,-1
 676 578 l 1,66,-1
676 336 m 2,70,-1
 676 468 l 1,71,-1
 242 468 l 2,72,73
 200 468 200 468 170 426 c 1,74,-1
 154 390 l 1,75,76
 154 366 154 366 144 336 c 1,77,78
 144 246 144 246 246 174 c 0,79,80
 340 106 340 106 434 106 c 0,81,82
 676 106 676 106 676 336 c 2,70,-1
EndSplineSet
EndChar

StartChar: tm_ten
Encoding: 3056 3056 106
Width: 1638
GlyphClass: 2
Flags: W
LayerCount: 2
Fore
SplineSet
1526 522 m 0,0,1
 1526 362 1526 362 1470 226 c 0,2,3
 1408 72 1408 72 1286 -4 c 0,4,5
 1090 -126 1090 -126 850 -124 c 256,6,7
 610 -122 610 -122 534 0 c 0,8,9
 512 36 512 36 478 132 c 1,10,11
 434 72 434 72 353 31 c 128,-1,12
 272 -10 272 -10 198 -10 c 0,13,14
 28 -12 28 -12 28 140 c 2,15,-1
 28 964 l 1,16,-1
 136 964 l 1,17,-1
 136 204 l 2,18,19
 136 106 136 106 222 104 c 0,20,21
 304 102 304 102 372 174 c 0,22,23
 432 238 432 238 454 324 c 1,24,-1
 454 964 l 1,25,-1
 570 966 l 1,26,27
 566 850 566 850 570 598 c 0,28,29
 568 528 568 528 576 350 c 1,30,31
 592 186 592 186 622 110 c 0,32,33
 662 14 662 14 758 0 c 0,34,35
 828 -10 828 -10 892 -10 c 0,36,37
 1224 -10 1224 -10 1342 242 c 0,38,39
 1404 376 1404 376 1404 530 c 0,40,41
 1404 878 1404 878 1096 1078 c 0,42,43
 954 1170 954 1170 648 1186 c 1,44,-1
 644 1294 l 1,45,46
 1000 1260 1000 1260 1164 1162 c 0,47,48
 1284 1088 1284 1088 1350 1012 c 0,49,50
 1526 810 1526 810 1526 522 c 0,0,1
EndSplineSet
EndChar

StartChar: tm_hundred
Encoding: 3057 3057 107
Width: 1476
GlyphClass: 2
Flags: W
LayerCount: 2
Fore
SplineSet
1392 856 m 1,0,-1
 1116 856 l 1,1,-1
 1116 8 l 1,2,-1
 1006 12 l 1,3,-1
 1006 856 l 1,4,-1
 728 856 l 1,5,-1
 728 -4 l 1,6,-1
 620 -4 l 1,7,-1
 620 816 l 1,8,9
 530 838 530 838 444 838 c 0,10,11
 264 838 264 838 204 720 c 0,12,13
 164 640 164 640 164 436 c 256,14,15
 164 232 164 232 208 -4 c 1,16,-1
 100 -4 l 1,17,18
 58 242 58 242 56 446 c 0,19,20
 54 788 54 788 170 872 c 0,21,22
 256 934 256 934 456 934 c 0,23,24
 540 934 540 934 620 924 c 1,25,-1
 620 964 l 1,26,-1
 1392 964 l 1,27,-1
 1392 856 l 1,0,-1
EndSplineSet
EndChar

StartChar: tm_thousand
Encoding: 3058 3058 108
Width: 1682
GlyphClass: 2
Flags: W
LayerCount: 2
Fore
SplineSet
1606 48 m 0,0,1
 1606 -68 1606 -68 1542 -136 c 0,2,3
 1450 -232 1450 -232 1302 -288 c 0,4,5
 1166 -340 1166 -340 1024 -340 c 0,6,7
 952 -340 952 -340 807 -323 c 128,-1,8
 662 -306 662 -306 590 -306 c 0,9,10
 466 -306 466 -306 430 -368 c 1,11,12
 400 -450 400 -450 398 -452 c 0,13,14
 372 -504 372 -504 336 -508 c 0,15,16
 262 -516 262 -516 220 -434 c 0,17,18
 192 -380 192 -380 192 -362 c 0,19,20
 192 -324 192 -324 264 -240 c 0,21,22
 302 -196 302 -196 472 -196 c 0,23,24
 568 -196 568 -196 762 -210 c 128,-1,25
 956 -224 956 -224 1052 -224 c 0,26,27
 1212 -224 1212 -224 1272 -190 c 2,28,-1
 1434 -98 l 1,29,30
 1496 -52 1496 -52 1496 36 c 0,31,32
 1496 118 1496 118 1426 166 c 0,33,34
 1364 208 1364 208 1278 210 c 0,35,36
 1220 212 1220 212 1148 166 c 1,37,-1
 1148 -4 l 1,38,-1
 1028 -4 l 1,39,-1
 1028 468 l 1,40,-1
 796 468 l 1,41,-1
 796 286 l 2,42,43
 796 146 796 146 690 68 c 0,44,45
 596 -2 596 -2 450 -4 c 0,46,47
 286 -6 286 -6 166 94 c 0,48,49
 38 200 38 200 36 360 c 0,50,51
 36 444 36 444 78 508 c 0,52,53
 128 578 128 578 208 578 c 2,54,-1
 254 578 l 1,55,-1
 254 964 l 1,56,-1
 1114 964 l 1,57,-1
 1114 856 l 1,58,-1
 796 856 l 1,59,-1
 796 578 l 1,60,-1
 1258 578 l 1,61,-1
 1258 468 l 1,62,-1
 1148 468 l 1,63,-1
 1148 288 l 1,64,65
 1226 324 1226 324 1296 324 c 0,66,67
 1420 324 1420 324 1510 250 c 0,68,69
 1606 170 1606 170 1606 48 c 0,0,1
692 578 m 1,70,-1
 692 856 l 1,71,-1
 364 856 l 1,72,-1
 364 578 l 1,73,-1
 692 578 l 1,70,-1
692 336 m 2,74,-1
 692 468 l 1,75,-1
 254 468 l 2,76,77
 212 468 212 468 182 426 c 1,78,-1
 166 390 l 1,79,80
 166 366 166 366 156 336 c 1,81,82
 156 246 156 246 260 172 c 0,83,84
 354 106 354 106 450 106 c 0,85,86
 692 106 692 106 692 336 c 2,74,-1
EndSplineSet
EndChar

StartChar: zerowidthnonjoiner
Encoding: 8204 8204 109
Width: 0
GlyphClass: 2
Flags: W
LayerCount: 2
Fore
SplineSet
315 1225 m 1,0,-1
 -34 -516 l 1,1,-1
 -103 -516 l 1,2,-1
 244 1225 l 1,3,-1
 315 1225 l 1,0,-1
EndSplineSet
EndChar

StartChar: zerowidthjoiner
Encoding: 8205 8205 110
Width: 0
GlyphClass: 2
Flags: W
LayerCount: 2
Fore
SplineSet
415 997 m 1,0,-1
 363 953 l 1,1,-1
 270 1073 l 1,2,-1
 -24 -441 l 1,3,-1
 -87 -441 l 1,4,-1
 206 1073 l 1,5,-1
 65 953 l 1,6,-1
 32 997 l 1,7,-1
 210 1145 l 1,8,-1
 89 1292 l 1,9,-1
 140 1334 l 1,10,-1
 260 1185 l 1,11,-1
 437 1334 l 1,12,-1
 472 1292 l 1,13,-1
 294 1145 l 1,14,-1
 415 997 l 1,0,-1
EndSplineSet
EndChar

StartChar: u2013
Encoding: 8211 8211 111
Width: 722
GlyphClass: 2
Flags: W
LayerCount: 2
Fore
SplineSet
733 319 m 1,0,-1
 -12 319 l 1,1,-1
 -12 370 l 1,2,-1
 733 370 l 1,3,-1
 733 319 l 1,0,-1
EndSplineSet
EndChar

StartChar: u2014
Encoding: 8212 8212 112
Width: 1284
GlyphClass: 2
Flags: W
LayerCount: 2
Fore
SplineSet
1296 318 m 1,0,-1
 -13 319 l 1,1,-1
 -13 371 l 1,2,-1
 1296 370 l 1,3,-1
 1296 318 l 1,0,-1
EndSplineSet
EndChar

StartChar: u2018
Encoding: 65539 -1 113
Width: 382
GlyphClass: 2
Flags: W
LayerCount: 2
Fore
SplineSet
274 914 m 1,0,-1
 32 914 l 1,1,-1
 32 1156 l 2,2,3
 32 1274 32 1274 92 1358 c 0,4,5
 160 1450 160 1450 274 1450 c 1,6,-1
 274 1352 l 1,7,8
 128 1352 128 1352 128 1156 c 1,9,-1
 274 1156 l 1,10,-1
 274 914 l 1,0,-1
EndSplineSet
EndChar

StartChar: u2019
Encoding: 65540 -1 114
Width: 340
GlyphClass: 2
Flags: W
LayerCount: 2
Fore
SplineSet
274 1156 m 2,0,1
 274 1036 274 1036 214 956 c 0,2,3
 150 868 150 868 32 868 c 1,4,-1
 32 964 l 1,5,6
 176 964 176 964 176 1156 c 1,7,-1
 32 1156 l 1,8,-1
 32 1398 l 1,9,-1
 274 1398 l 1,10,-1
 274 1156 l 2,0,1
EndSplineSet
EndChar

StartChar: u201C
Encoding: 65541 -1 115
Width: 744
GlyphClass: 2
Flags: W
LayerCount: 2
Fore
SplineSet
634 914 m 1,0,-1
 392 914 l 1,1,-1
 392 1156 l 2,2,3
 392 1274 392 1274 452 1358 c 0,4,5
 520 1450 520 1450 634 1450 c 1,6,-1
 634 1352 l 1,7,8
 488 1352 488 1352 488 1156 c 1,9,-1
 634 1156 l 1,10,-1
 634 914 l 1,0,-1
274 914 m 1,11,-1
 32 914 l 1,12,-1
 32 1156 l 2,13,14
 32 1274 32 1274 92 1358 c 0,15,16
 160 1450 160 1450 274 1450 c 1,17,-1
 274 1352 l 1,18,19
 128 1352 128 1352 128 1156 c 1,20,-1
 274 1156 l 1,21,-1
 274 914 l 1,11,-1
EndSplineSet
EndChar

StartChar: u201D
Encoding: 65542 -1 116
Width: 704
GlyphClass: 2
Flags: W
LayerCount: 2
Fore
SplineSet
614 1156 m 2,0,1
 614 1036 614 1036 554 956 c 0,2,3
 490 868 490 868 372 868 c 1,4,-1
 372 964 l 1,5,6
 516 964 516 964 516 1156 c 1,7,-1
 372 1156 l 1,8,-1
 372 1398 l 1,9,-1
 614 1398 l 1,10,-1
 614 1156 l 2,0,1
274 1156 m 2,11,12
 274 1036 274 1036 214 956 c 0,13,14
 150 868 150 868 32 868 c 1,15,-1
 32 964 l 1,16,17
 176 964 176 964 176 1156 c 1,18,-1
 32 1156 l 1,19,-1
 32 1398 l 1,20,-1
 274 1398 l 1,21,-1
 274 1156 l 2,11,12
EndSplineSet
EndChar

StartChar: u2026
Encoding: 8230 8230 117
Width: 1283
GlyphClass: 2
Flags: W
LayerCount: 2
Fore
SplineSet
265 136 m 0,0,1
 298 136 298 136 320.5 114 c 128,-1,2
 343 92 343 92 343 58 c 0,3,4
 343 26 343 26 320.5 3 c 128,-1,5
 298 -20 298 -20 265 -20 c 0,6,7
 233 -20 233 -20 210 3 c 128,-1,8
 187 26 187 26 187 58 c 0,9,10
 187 92 187 92 210 114 c 128,-1,11
 233 136 233 136 265 136 c 0,0,1
638 136 m 256,12,13
 670 136 670 136 693 114 c 128,-1,14
 716 92 716 92 716 58 c 0,15,16
 716 26 716 26 692.5 3 c 128,-1,17
 669 -20 669 -20 638 -20 c 0,18,19
 606 -20 606 -20 583 3 c 128,-1,20
 560 26 560 26 560 58 c 0,21,22
 560 92 560 92 583 114 c 128,-1,23
 606 136 606 136 638 136 c 256,12,13
1010 136 m 0,24,25
 1043 136 1043 136 1066 114 c 128,-1,26
 1089 92 1089 92 1089 58 c 0,27,28
 1089 26 1089 26 1065.5 3 c 128,-1,29
 1042 -20 1042 -20 1010 -20 c 256,30,31
 978 -20 978 -20 955.5 3 c 128,-1,32
 933 26 933 26 933 58 c 0,33,34
 933 92 933 92 955.5 114 c 128,-1,35
 978 136 978 136 1010 136 c 0,24,25
EndSplineSet
EndChar

StartChar: u2212
Encoding: 8722 8722 118
Width: 974
GlyphClass: 2
Flags: W
LayerCount: 2
Fore
SplineSet
133 450 m 1,0,-1
 133 508 l 1,1,-1
 894 508 l 1,2,-1
 894 450 l 1,3,-1
 133 450 l 1,0,-1
EndSplineSet
EndChar

StartChar: u25CC
Encoding: 9676 9676 119
Width: 1167
GlyphClass: 2
Flags: W
LayerCount: 2
Fore
SplineSet
654 665 m 0,0,1
 626 665 626 665 612 679 c 128,-1,2
 598 693 598 693 598 724 c 0,3,4
 598 746 598 746 615 762.5 c 128,-1,5
 632 779 632 779 654 779 c 0,6,7
 683 779 683 779 697.5 765 c 128,-1,8
 712 751 712 751 712 724 c 0,9,10
 712 693 712 693 697.5 679 c 128,-1,11
 683 665 683 665 654 665 c 0,0,1
840 616 m 0,12,13
 811 616 811 616 796.5 630.5 c 128,-1,14
 782 645 782 645 782 674 c 0,15,16
 782 701 782 701 796.5 715 c 128,-1,17
 811 729 811 729 840 729 c 0,18,19
 862 729 862 729 879 713 c 128,-1,20
 896 697 896 697 896 674 c 0,21,22
 896 645 896 645 882 630.5 c 128,-1,23
 868 616 868 616 840 616 c 0,12,13
470 616 m 0,24,25
 442 616 442 616 428 630.5 c 128,-1,26
 414 645 414 645 414 674 c 0,27,28
 414 697 414 697 431 713 c 128,-1,29
 448 729 448 729 470 729 c 0,30,31
 494 729 494 729 510 713 c 128,-1,32
 526 697 526 697 526 674 c 0,33,34
 526 645 526 645 512.5 630.5 c 128,-1,35
 499 616 499 616 470 616 c 0,24,25
973 482 m 0,36,37
 951 482 951 482 933.5 498 c 128,-1,38
 916 514 916 514 916 538 c 0,39,40
 916 567 916 567 930.5 581 c 128,-1,41
 945 595 945 595 973 595 c 256,42,43
 1001 595 1001 595 1014.5 581 c 128,-1,44
 1028 567 1028 567 1028 538 c 0,45,46
 1028 514 1028 514 1012 498 c 128,-1,47
 996 482 996 482 973 482 c 0,36,37
336 482 m 0,48,49
 307 482 307 482 293 495.5 c 128,-1,50
 279 509 279 509 279 538 c 256,51,52
 279 567 279 567 293 581 c 128,-1,53
 307 595 307 595 336 595 c 0,54,55
 364 595 364 595 378 581 c 128,-1,56
 392 567 392 567 392 538 c 0,57,58
 392 514 392 514 375 498 c 128,-1,59
 358 482 358 482 336 482 c 0,48,49
1024 298 m 0,60,61
 994 298 994 298 979.5 311.5 c 128,-1,62
 965 325 965 325 965 354 c 0,63,64
 965 382 965 382 979.5 396 c 128,-1,65
 994 410 994 410 1024 410 c 0,66,67
 1046 410 1046 410 1063 393 c 128,-1,68
 1080 376 1080 376 1080 354 c 0,69,70
 1080 331 1080 331 1063 314.5 c 128,-1,71
 1046 298 1046 298 1024 298 c 0,60,61
287 298 m 0,72,73
 257 298 257 298 243 311.5 c 128,-1,74
 229 325 229 325 229 354 c 0,75,76
 229 382 229 382 243 396 c 128,-1,77
 257 410 257 410 287 410 c 0,78,79
 310 410 310 410 326.5 393 c 128,-1,80
 343 376 343 376 343 354 c 0,81,82
 343 331 343 331 326.5 314.5 c 128,-1,83
 310 298 310 298 287 298 c 0,72,73
973 112 m 256,84,85
 945 112 945 112 930.5 126.5 c 128,-1,86
 916 141 916 141 916 169 c 0,87,88
 916 193 916 193 933.5 209.5 c 128,-1,89
 951 226 951 226 973 226 c 0,90,91
 996 226 996 226 1012 209.5 c 128,-1,92
 1028 193 1028 193 1028 169 c 0,93,94
 1028 141 1028 141 1014.5 126.5 c 128,-1,95
 1001 112 1001 112 973 112 c 256,84,85
336 112 m 0,96,97
 307 112 307 112 293 126.5 c 128,-1,98
 279 141 279 141 279 169 c 0,99,100
 279 198 279 198 293 212 c 128,-1,101
 307 226 307 226 336 226 c 0,102,103
 358 226 358 226 375 209.5 c 128,-1,104
 392 193 392 193 392 169 c 0,105,106
 392 141 392 141 378 126.5 c 128,-1,107
 364 112 364 112 336 112 c 0,96,97
840 -22 m 0,108,109
 811 -22 811 -22 796.5 -8 c 128,-1,110
 782 6 782 6 782 34 c 0,111,112
 782 63 782 63 796.5 78 c 128,-1,113
 811 93 811 93 840 93 c 0,114,115
 863 93 863 93 879.5 75 c 128,-1,116
 896 57 896 57 896 34 c 256,117,118
 896 11 896 11 879 -5.5 c 128,-1,119
 862 -22 862 -22 840 -22 c 0,108,109
470 -22 m 0,120,121
 448 -22 448 -22 431 -5.5 c 128,-1,122
 414 11 414 11 414 34 c 256,123,124
 414 57 414 57 430.5 75 c 128,-1,125
 447 93 447 93 470 93 c 0,126,127
 495 93 495 93 510.5 75 c 128,-1,128
 526 57 526 57 526 34 c 256,129,130
 526 11 526 11 510 -5.5 c 128,-1,131
 494 -22 494 -22 470 -22 c 0,120,121
654 -72 m 0,132,133
 632 -72 632 -72 615 -55 c 128,-1,134
 598 -38 598 -38 598 -16 c 0,135,136
 598 14 598 14 612 28.5 c 128,-1,137
 626 43 626 43 654 43 c 0,138,139
 683 43 683 43 697.5 28.5 c 128,-1,140
 712 14 712 14 712 -16 c 0,141,142
 712 -44 712 -44 697.5 -58 c 128,-1,143
 683 -72 683 -72 654 -72 c 0,132,133
EndSplineSet
EndChar

StartChar: tm_k_ikaar
Encoding: 65543 -1 120
Width: 1526
GlyphClass: 2
Flags: W
LayerCount: 2
Fore
SplineSet
1456 0 m 1,0,-1
 1356 0 l 1,1,-1
 1356 1058 l 2,2,3
 1356 1196 1356 1196 1278 1285 c 128,-1,4
 1200 1374 1200 1374 1064 1374 c 0,5,6
 946 1374 946 1374 875 1300 c 128,-1,7
 804 1226 804 1226 804 1108 c 0,8,9
 804 932 804 932 956 882 c 1,10,-1
 1076 882 l 1,11,-1
 1076 782 l 1,12,-1
 766 782 l 1,13,-1
 766 532 l 1,14,-1
 934 532 l 2,15,16
 1060 532 1060 532 1135 466 c 128,-1,17
 1210 400 1210 400 1210 280 c 0,18,19
 1210 142 1210 142 1106 66 c 0,20,21
 1016 0 1016 0 872 0 c 0,22,23
 734 0 734 0 652 74 c 1,24,25
 548 0 548 0 380 0 c 0,26,27
 252 0 252 0 162 72 c 0,28,29
 66 150 66 150 66 274 c 0,30,31
 66 472 66 472 248 522 c 1,32,-1
 248 882 l 1,33,-1
 798 882 l 1,34,35
 694 970 694 970 694 1150 c 0,36,37
 694 1314 694 1314 800 1424 c 128,-1,38
 906 1534 906 1534 1070 1534 c 0,39,40
 1254 1534 1254 1534 1360 1394 c 0,41,42
 1456 1268 1456 1268 1456 1078 c 2,43,-1
 1456 0 l 1,0,-1
1038 292 m 0,44,45
 1038 356 1038 356 999 393 c 128,-1,46
 960 430 960 430 896 430 c 2,47,-1
 766 430 l 1,48,-1
 766 304 l 2,49,50
 766 218 766 218 720 148 c 1,51,52
 764 104 764 104 854 104 c 0,53,54
 932 104 932 104 985 159 c 128,-1,55
 1038 214 1038 214 1038 292 c 0,44,45
594 532 m 1,56,-1
 594 782 l 1,57,-1
 348 782 l 1,58,-1
 348 532 l 1,59,-1
 594 532 l 1,56,-1
594 334 m 2,60,-1
 594 430 l 1,61,-1
 332 430 l 2,62,63
 168 430 168 430 168 270 c 0,64,65
 168 198 168 198 226 152 c 128,-1,66
 284 106 284 106 358 106 c 0,67,68
 462 106 462 106 528 168 c 128,-1,69
 594 230 594 230 594 334 c 2,60,-1
EndSplineSet
Ligature2: "'psts' Post Base Substitutions lookup 8 subtable" tm_ka tm_ikaar
EndChar

StartChar: tm_ng_ikaar
Encoding: 65544 -1 121
Width: 1792
GlyphClass: 2
Flags: W
LayerCount: 2
Fore
SplineSet
1732 0 m 1,0,-1
 1632 0 l 1,1,-1
 1632 890 l 2,2,3
 1632 1106 1632 1106 1580 1216 c 0,4,5
 1506 1374 1506 1374 1316 1374 c 0,6,7
 1194 1374 1194 1374 1116 1274 c 0,8,9
 1042 1182 1042 1182 1042 1058 c 0,10,11
 1042 858 1042 858 1178 786 c 0,12,13
 1224 762 1224 762 1274 762 c 1,14,-1
 1274 882 l 1,15,-1
 1446 882 l 1,16,-1
 1446 0 l 1,17,-1
 468 0 l 1,18,-1
 468 102 l 1,19,-1
 750 102 l 2,20,21
 936 102 936 102 936 320 c 0,22,23
 936 484 936 484 762 484 c 0,24,25
 650 484 650 484 616 358 c 1,26,-1
 616 216 l 1,27,-1
 468 216 l 1,28,-1
 468 782 l 1,29,-1
 200 782 l 1,30,-1
 200 0 l 1,31,-1
 100 0 l 1,32,-1
 100 882 l 1,33,-1
 928 882 l 1,34,-1
 928 782 l 1,35,-1
 616 782 l 1,36,-1
 616 526 l 1,37,38
 696 588 696 588 800 588 c 0,39,40
 928 588 928 588 1010 516 c 128,-1,41
 1092 444 1092 444 1092 318 c 0,42,43
 1092 256 1092 256 1064 194 c 0,44,45
 1030 124 1030 124 980 102 c 1,46,-1
 1274 102 l 1,47,-1
 1274 676 l 1,48,49
 1120 676 1120 676 1026 804 c 0,50,51
 940 920 940 920 940 1078 c 0,52,53
 940 1260 940 1260 1038 1390 c 0,54,55
 1144 1534 1144 1534 1320 1534 c 0,56,57
 1732 1534 1732 1534 1732 906 c 2,58,-1
 1732 0 l 1,0,-1
EndSplineSet
Ligature2: "'psts' Post Base Substitutions lookup 8 subtable" tm_nga tm_ikaar
EndChar

StartChar: tm_c_ikaar
Encoding: 65545 -1 122
Width: 1366
GlyphClass: 2
Flags: W
LayerCount: 2
Fore
SplineSet
1296 0 m 1,0,-1
 1198 0 l 1,1,-1
 1198 1058 l 2,2,3
 1198 1196 1198 1196 1120 1285 c 128,-1,4
 1042 1374 1042 1374 906 1374 c 0,5,6
 788 1374 788 1374 717 1300 c 128,-1,7
 646 1226 646 1226 646 1108 c 0,8,9
 646 932 646 932 798 882 c 1,10,-1
 1076 882 l 1,11,-1
 1076 782 l 1,12,-1
 766 782 l 1,13,-1
 766 532 l 1,14,-1
 1042 532 l 1,15,-1
 1042 430 l 1,16,-1
 766 430 l 1,17,-1
 766 304 l 2,18,19
 766 190 766 190 682 102 c 0,20,21
 584 0 584 0 380 0 c 0,22,23
 252 0 252 0 162 72 c 0,24,25
 66 150 66 150 66 274 c 0,26,27
 66 472 66 472 248 522 c 1,28,-1
 248 882 l 1,29,-1
 640 882 l 1,30,31
 536 970 536 970 536 1150 c 0,32,33
 536 1314 536 1314 642 1424 c 128,-1,34
 748 1534 748 1534 912 1534 c 0,35,36
 1096 1534 1096 1534 1200 1394 c 0,37,38
 1296 1268 1296 1268 1296 1078 c 2,39,-1
 1296 0 l 1,0,-1
594 532 m 1,40,-1
 594 782 l 1,41,-1
 348 782 l 1,42,-1
 348 532 l 1,43,-1
 594 532 l 1,40,-1
594 334 m 2,44,-1
 594 430 l 1,45,-1
 332 430 l 2,46,47
 168 430 168 430 168 270 c 0,48,49
 168 198 168 198 226 152 c 128,-1,50
 284 106 284 106 358 106 c 0,51,52
 462 106 462 106 528 168 c 128,-1,53
 594 230 594 230 594 334 c 2,44,-1
EndSplineSet
Ligature2: "'psts' Post Base Substitutions lookup 8 subtable" tm_ca tm_ikaar
EndChar

StartChar: tm_j_ikaar
Encoding: 65546 -1 123
Width: 1818
GlyphClass: 2
Flags: W
LayerCount: 2
Fore
SplineSet
1740 0 m 1,0,-1
 1640 0 l 1,1,-1
 1640 1058 l 2,2,3
 1640 1202 1640 1202 1560 1288 c 128,-1,4
 1480 1374 1480 1374 1336 1374 c 0,5,6
 1216 1374 1216 1374 1138 1294 c 128,-1,7
 1060 1214 1060 1214 1060 1094 c 0,8,9
 1060 958 1060 958 1156 886 c 1,10,-1
 1178 888 l 1,11,12
 1334 888 1334 888 1420 788 c 0,13,14
 1500 694 1500 694 1500 534 c 0,15,16
 1500 326 1500 326 1377 218 c 128,-1,17
 1254 110 1254 110 1044 110 c 2,18,-1
 516 108 l 2,19,20
 266 108 266 108 266 -116 c 0,21,22
 266 -212 266 -212 330 -266 c 0,23,24
 388 -316 388 -316 486 -316 c 0,25,26
 594 -316 594 -316 642 -282 c 0,27,28
 704 -240 704 -240 754 -122 c 0,29,30
 840 76 840 76 1128 76 c 0,31,32
 1482 76 1482 76 1482 -186 c 0,33,34
 1482 -294 1482 -294 1408 -353 c 128,-1,35
 1334 -412 1334 -412 1224 -412 c 0,36,37
 1082 -412 1082 -412 1034 -276 c 1,38,39
 1020 -220 1020 -220 1020 -184 c 0,40,41
 1020 -64 1020 -64 1076 -20 c 1,42,43
 876 -20 876 -20 824 -200 c 0,44,45
 790 -318 790 -318 676 -370 c 0,46,47
 580 -414 580 -414 460 -414 c 0,48,49
 306 -414 306 -414 206 -338 c 0,50,51
 94 -254 94 -254 94 -104 c 0,52,53
 94 56 94 56 200 136 c 0,54,55
 294 208 294 208 458 208 c 2,56,-1
 1042 208 l 2,57,58
 1202 208 1202 208 1270 296 c 0,59,60
 1328 372 1328 372 1328 536 c 0,61,62
 1328 784 1328 784 1124 784 c 0,63,64
 1022 784 1022 784 970 690 c 0,65,66
 926 614 926 614 926 504 c 2,67,-1
 926 312 l 1,68,-1
 742 312 l 1,69,-1
 742 534 l 2,70,71
 742 664 742 664 628 742 c 1,72,73
 544 786 544 786 454 786 c 0,74,75
 358 786 358 786 302 758 c 0,76,77
 286 750 286 750 240 704 c 1,78,79
 306 722 306 722 322 722 c 0,80,81
 424 722 424 722 483 660 c 128,-1,82
 542 598 542 598 542 496 c 0,83,84
 542 382 542 382 464 312 c 0,85,86
 406 260 406 260 310 260 c 0,87,88
 206 260 206 260 144 350 c 0,89,90
 90 430 90 430 90 538 c 0,91,92
 90 696 90 696 193 792 c 128,-1,93
 296 888 296 888 454 888 c 0,94,95
 788 888 788 888 874 704 c 1,96,97
 928 834 928 834 1060 872 c 1,98,99
 958 950 958 950 958 1110 c 0,100,101
 958 1288 958 1288 1060 1408 c 0,102,103
 1170 1534 1170 1534 1344 1534 c 0,104,105
 1540 1534 1540 1534 1644 1400 c 0,106,107
 1740 1278 1740 1278 1740 1078 c 2,108,-1
 1740 0 l 1,0,-1
1312 -172 m 256,109,110
 1312 -122 1312 -122 1290 -82 c 0,111,112
 1262 -36 1262 -36 1216 -36 c 0,113,114
 1176 -36 1176 -36 1148 -76 c 1,115,116
 1122 -124 1122 -124 1122 -172 c 0,117,118
 1122 -222 1122 -222 1144 -262 c 0,119,120
 1170 -310 1170 -310 1216 -310 c 0,121,122
 1264 -310 1264 -310 1290 -262 c 0,123,124
 1312 -222 1312 -222 1312 -172 c 256,109,110
388 494 m 0,125,126
 388 542 388 542 363 582 c 128,-1,127
 338 622 338 622 292 622 c 0,128,129
 248 622 248 622 222 581 c 128,-1,130
 196 540 196 540 196 494 c 0,131,132
 196 444 196 444 218 408 c 0,133,134
 246 366 246 366 292 366 c 0,135,136
 336 366 336 366 364 410 c 0,137,138
 388 448 388 448 388 494 c 0,125,126
EndSplineSet
Ligature2: "'psts' Post Base Substitutions lookup 8 subtable" tm_ja tm_ikaar
EndChar

StartChar: tm_ny_ikaar
Encoding: 65547 -1 124
Width: 1948
GlyphClass: 2
Flags: W
LayerCount: 2
Fore
SplineSet
1866 4 m 1,0,-1
 1766 4 l 1,1,-1
 1766 1062 l 2,2,3
 1766 1196 1766 1196 1690 1286 c 0,4,5
 1608 1378 1608 1378 1476 1378 c 0,6,7
 1358 1378 1358 1378 1287 1304 c 128,-1,8
 1216 1230 1216 1230 1216 1112 c 0,9,10
 1216 926 1216 926 1370 882 c 1,11,-1
 1446 882 l 1,12,-1
 1446 782 l 1,13,-1
 1308 782 l 1,14,-1
 1308 524 l 1,15,16
 1372 562 1372 562 1430 562 c 0,17,18
 1500 562 1500 562 1552 546 c 0,19,20
 1598 530 1598 530 1634 496 c 0,21,22
 1726 412 1726 412 1726 230 c 0,23,24
 1726 -102 1726 -102 1476 -270 c 0,25,26
 1262 -414 1262 -414 910 -414 c 0,27,28
 528 -414 528 -414 308 -202 c 0,29,30
 82 14 82 14 82 392 c 0,31,32
 82 528 82 528 116 646 c 0,33,34
 158 790 158 790 230 872 c 1,35,-1
 302 800 l 1,36,37
 266 770 266 770 228 660 c 1,38,-1
 196 530 l 2,39,40
 184 482 184 482 184 398 c 0,41,42
 184 72 184 72 374 -117 c 128,-1,43
 564 -306 564 -306 892 -306 c 0,44,45
 1546 -306 1546 -306 1546 230 c 0,46,47
 1546 460 1546 460 1418 460 c 0,48,49
 1388 460 1388 460 1342 418 c 1,50,51
 1308 374 1308 374 1308 314 c 2,52,-1
 1308 0 l 1,53,-1
 1136 0 l 1,54,-1
 1136 782 l 1,55,-1
 824 782 l 2,56,57
 692 782 692 782 604 696 c 128,-1,58
 516 610 516 610 498 476 c 1,59,-1
 548 514 l 1,60,61
 604 548 604 548 674 548 c 0,62,63
 914 548 914 548 944 294 c 1,64,65
 944 166 944 166 876 80 c 0,66,67
 802 -12 802 -12 676 -12 c 0,68,69
 526 -12 526 -12 450 128 c 0,70,71
 388 242 388 242 388 404 c 0,72,73
 388 610 388 610 514 746 c 128,-1,74
 640 882 640 882 846 882 c 2,75,-1
 1216 882 l 1,76,77
 1106 974 1106 974 1106 1154 c 0,78,79
 1106 1318 1106 1318 1212 1428 c 128,-1,80
 1318 1538 1318 1538 1482 1538 c 0,81,82
 1666 1538 1666 1538 1770 1398 c 0,83,84
 1866 1272 1866 1272 1866 1082 c 2,85,-1
 1866 4 l 1,0,-1
784 268 m 0,86,87
 784 332 784 332 748 389 c 128,-1,88
 712 446 712 446 652 446 c 256,89,90
 592 446 592 446 554 384 c 0,91,92
 522 332 522 332 522 268 c 256,93,94
 522 204 522 204 554 150 c 0,95,96
 592 90 592 90 652 90 c 0,97,98
 710 90 710 90 752 150 c 1,99,100
 784 208 784 208 784 268 c 0,86,87
EndSplineSet
Ligature2: "'psts' Post Base Substitutions lookup 8 subtable" tm_nya tm_ikaar
EndChar

StartChar: tm_tt_ikaar
Encoding: 65548 -1 125
Width: 1344
GlyphClass: 2
Flags: W
LayerCount: 2
Fore
SplineSet
1282 0 m 1,0,-1
 1062 0 l 1,1,-1
 966 -412 l 1,2,-1
 790 -412 l 1,3,-1
 884 0 l 1,4,-1
 100 0 l 1,5,-1
 100 882 l 1,6,-1
 272 882 l 1,7,-1
 272 102 l 1,8,-1
 718 102 l 1,9,10
 632 136 632 136 576 244 c 0,11,12
 526 342 526 342 526 444 c 0,13,14
 526 612 526 612 622 730 c 0,15,16
 724 858 724 858 888 858 c 0,17,18
 1018 858 1018 858 1102 788 c 128,-1,19
 1186 718 1186 718 1186 590 c 0,20,21
 1186 546 1186 546 1174 494 c 2,22,-1
 1084 102 l 1,23,-1
 1282 102 l 1,24,-1
 1282 0 l 1,0,-1
1016 608 m 1,25,26
 1016 670 1016 670 977 713 c 128,-1,27
 938 756 938 756 872 756 c 0,28,29
 766 756 766 756 694 654 c 0,30,31
 628 562 628 562 628 452 c 0,32,33
 628 296 628 296 738 200 c 0,34,35
 814 134 814 134 910 120 c 1,36,-1
 1008 542 l 1,37,-1
 1016 608 l 1,25,26
EndSplineSet
Ligature2: "'psts' Post Base Substitutions lookup 8 subtable" tm_tta tm_ikaar
EndChar

StartChar: tm_nn_ikaar
Encoding: 65549 -1 126
Width: 2686
GlyphClass: 2
Flags: W
LayerCount: 2
Fore
SplineSet
2600 0 m 1,0,-1
 2500 0 l 1,1,-1
 2500 1058 l 2,2,3
 2500 1186 2500 1186 2434 1276 c 0,4,5
 2362 1374 2362 1374 2238 1374 c 0,6,7
 2120 1374 2120 1374 2050 1300 c 128,-1,8
 1980 1226 1980 1226 1980 1108 c 0,9,10
 1980 934 1980 934 2130 882 c 1,11,-1
 2394 882 l 1,12,-1
 2394 780 l 1,13,-1
 2232 780 l 1,14,-1
 2232 0 l 1,15,-1
 2060 0 l 1,16,-1
 2060 780 l 1,17,-1
 1922 780 l 2,18,19
 1814 780 1814 780 1712 732 c 1,20,21
 1868 582 1868 582 1868 370 c 0,22,23
 1868 232 1868 232 1818 130 c 0,24,25
 1756 2 1756 2 1628 2 c 0,26,27
 1502 2 1502 2 1440 130 c 0,28,29
 1392 228 1392 228 1392 370 c 0,30,31
 1392 574 1392 574 1524 718 c 1,32,33
 1400 792 1400 792 1288 792 c 0,34,35
 1194 792 1194 792 1070 732 c 1,36,37
 1228 586 1228 586 1228 370 c 0,38,39
 1228 230 1228 230 1178 130 c 0,40,41
 1114 2 1114 2 988 2 c 0,42,43
 816 2 816 2 764 240 c 0,44,45
 750 302 750 302 750 370 c 0,46,47
 750 560 750 560 882 716 c 1,48,49
 758 794 758 794 604 794 c 0,50,51
 454 794 454 794 343 707 c 128,-1,52
 232 620 232 620 194 474 c 1,53,54
 266 556 266 556 388 556 c 0,55,56
 502 556 502 556 576 474 c 128,-1,57
 650 392 650 392 650 278 c 0,58,59
 650 158 650 158 578 74 c 128,-1,60
 506 -10 506 -10 388 -10 c 0,61,62
 230 -10 230 -10 150 116 c 0,63,64
 82 222 82 222 82 390 c 0,65,66
 82 622 82 622 254 766 c 0,67,68
 416 902 416 902 654 902 c 0,69,70
 836 902 836 902 984 802 c 1,71,72
 1126 896 1126 896 1298 896 c 0,73,74
 1480 896 1480 896 1626 802 c 1,75,76
 1758 882 1758 882 1902 882 c 2,77,-1
 1972 882 l 1,78,79
 1868 970 1868 970 1868 1150 c 0,80,81
 1868 1314 1868 1314 1971 1424 c 128,-1,82
 2074 1534 2074 1534 2236 1534 c 0,83,84
 2408 1534 2408 1534 2510 1388 c 0,85,86
 2600 1258 2600 1258 2600 1078 c 2,87,-1
 2600 0 l 1,0,-1
1702 370 m 0,88,89
 1702 526 1702 526 1600 650 c 1,90,91
 1494 538 1494 538 1494 370 c 0,92,93
 1494 294 1494 294 1512 228 c 0,94,95
 1538 130 1538 130 1600 130 c 0,96,97
 1632 130 1632 130 1668 184 c 1,98,99
 1702 252 1702 252 1702 370 c 0,88,89
1062 370 m 0,100,101
 1062 524 1062 524 960 648 c 1,102,103
 854 542 854 542 854 370 c 0,104,105
 854 294 854 294 872 228 c 0,106,107
 898 130 898 130 960 130 c 0,108,109
 992 130 992 130 1028 184 c 1,110,111
 1062 252 1062 252 1062 370 c 0,100,101
486 274 m 256,112,113
 486 340 486 340 450 390 c 0,114,115
 410 448 410 448 348 448 c 256,116,117
 286 448 286 448 248 393 c 128,-1,118
 210 338 210 338 210 274 c 0,119,120
 210 208 210 208 246 158 c 0,121,122
 286 100 286 100 348 100 c 256,123,124
 410 100 410 100 450 158 c 0,125,126
 486 208 486 208 486 274 c 256,112,113
EndSplineSet
Ligature2: "'psts' Post Base Substitutions lookup 8 subtable" tm_nna tm_ikaar
EndChar

StartChar: tm_t_ikaar
Encoding: 65550 -1 127
Width: 1534
GlyphClass: 2
Flags: W
LayerCount: 2
Fore
SplineSet
1466 0 m 1,0,-1
 1366 0 l 1,1,-1
 1366 1058 l 2,2,3
 1366 1196 1366 1196 1288 1285 c 128,-1,4
 1210 1374 1210 1374 1074 1374 c 0,5,6
 956 1374 956 1374 885 1300 c 128,-1,7
 814 1226 814 1226 814 1108 c 0,8,9
 814 932 814 932 966 882 c 1,10,-1
 1076 882 l 1,11,-1
 1076 782 l 1,12,-1
 766 782 l 1,13,-1
 766 532 l 1,14,-1
 852 532 l 2,15,16
 1022 532 1022 532 1120 446 c 128,-1,17
 1218 360 1218 360 1218 192 c 0,18,19
 1218 -6 1218 -6 1058 -112 c 0,20,21
 972 -168 972 -168 830 -186 c 0,22,23
 782 -192 782 -192 736 -192 c 2,24,-1
 348 -192 l 2,25,26
 178 -192 178 -192 178 -286 c 0,27,28
 178 -344 178 -344 246 -344 c 0,29,30
 286 -344 286 -344 314 -369 c 128,-1,31
 342 -394 342 -394 342 -434 c 0,32,33
 342 -472 342 -472 313 -500 c 128,-1,34
 284 -528 284 -528 246 -528 c 0,35,36
 158 -528 158 -528 111 -471 c 128,-1,37
 64 -414 64 -414 64 -326 c 0,38,39
 64 -210 64 -210 160 -148 c 0,40,41
 238 -98 238 -98 364 -98 c 2,42,-1
 734 -98 l 2,43,44
 876 -98 876 -98 961 -22 c 128,-1,45
 1046 54 1046 54 1046 194 c 0,46,47
 1046 430 1046 430 834 430 c 2,48,-1
 766 430 l 1,49,-1
 766 304 l 2,50,51
 766 190 766 190 682 102 c 0,52,53
 584 0 584 0 380 0 c 0,54,55
 252 0 252 0 162 72 c 0,56,57
 66 150 66 150 66 274 c 0,58,59
 66 472 66 472 248 522 c 1,60,-1
 248 882 l 1,61,-1
 808 882 l 1,62,63
 704 970 704 970 704 1150 c 0,64,65
 704 1314 704 1314 810 1424 c 128,-1,66
 916 1534 916 1534 1080 1534 c 0,67,68
 1264 1534 1264 1534 1370 1394 c 0,69,70
 1466 1268 1466 1268 1466 1078 c 2,71,-1
 1466 0 l 1,0,-1
594 532 m 1,72,-1
 594 782 l 1,73,-1
 348 782 l 1,74,-1
 348 532 l 1,75,-1
 594 532 l 1,72,-1
594 334 m 2,76,-1
 594 430 l 1,77,-1
 332 430 l 2,78,79
 168 430 168 430 168 270 c 0,80,81
 168 198 168 198 226 152 c 128,-1,82
 284 106 284 106 358 106 c 0,83,84
 462 106 462 106 528 168 c 128,-1,85
 594 230 594 230 594 334 c 2,76,-1
EndSplineSet
Ligature2: "'psts' Post Base Substitutions lookup 8 subtable" tm_ta tm_ikaar
EndChar

StartChar: tm_n_ikaar
Encoding: 65551 -1 128
Width: 1462
GlyphClass: 2
Flags: W
LayerCount: 2
Fore
SplineSet
1376 0 m 1,0,-1
 1276 0 l 1,1,-1
 1276 1058 l 2,2,3
 1276 1192 1276 1192 1200 1282 c 0,4,5
 1118 1374 1118 1374 986 1374 c 0,6,7
 868 1374 868 1374 797 1300 c 128,-1,8
 726 1226 726 1226 726 1108 c 0,9,10
 726 934 726 934 876 882 c 1,11,-1
 928 882 l 1,12,-1
 928 782 l 1,13,-1
 642 782 l 1,14,-1
 642 466 l 1,15,16
 692 540 692 540 842 540 c 256,17,18
 992 540 992 540 1070 438 c 0,19,20
 1142 348 1142 348 1142 192 c 0,21,22
 1142 -6 1142 -6 982 -112 c 0,23,24
 860 -192 860 -192 662 -192 c 2,25,-1
 314 -192 l 2,26,27
 142 -192 142 -192 142 -286 c 0,28,29
 142 -344 142 -344 210 -344 c 0,30,31
 248 -344 248 -344 278 -370 c 128,-1,32
 308 -396 308 -396 308 -434 c 0,33,34
 308 -474 308 -474 279 -501 c 128,-1,35
 250 -528 250 -528 210 -528 c 0,36,37
 122 -528 122 -528 75 -471 c 128,-1,38
 28 -414 28 -414 28 -326 c 0,39,40
 28 -210 28 -210 124 -148 c 0,41,42
 202 -98 202 -98 330 -98 c 2,43,-1
 658 -98 l 2,44,45
 888 -98 888 -98 952 76 c 0,46,47
 972 132 972 132 972 194 c 0,48,49
 972 424 972 424 782 424 c 0,50,51
 642 424 642 424 642 286 c 2,52,-1
 642 0 l 1,53,-1
 468 0 l 1,54,-1
 468 782 l 1,55,-1
 200 782 l 1,56,-1
 200 0 l 1,57,-1
 100 0 l 1,58,-1
 100 882 l 1,59,-1
 720 882 l 1,60,61
 616 970 616 970 616 1150 c 0,62,63
 616 1314 616 1314 722 1424 c 128,-1,64
 828 1534 828 1534 992 1534 c 0,65,66
 1176 1534 1176 1534 1280 1394 c 0,67,68
 1376 1268 1376 1268 1376 1078 c 2,69,-1
 1376 0 l 1,0,-1
EndSplineSet
Ligature2: "'psts' Post Base Substitutions lookup 8 subtable" tm_na tm_ikaar
EndChar

StartChar: tm_nnn_ikaar
Encoding: 65552 -1 129
Width: 2048
GlyphClass: 2
Flags: W
LayerCount: 2
Fore
SplineSet
1964 0 m 1,0,-1
 1864 0 l 1,1,-1
 1864 1058 l 2,2,3
 1864 1186 1864 1186 1798 1276 c 0,4,5
 1726 1374 1726 1374 1602 1374 c 0,6,7
 1484 1374 1484 1374 1413 1300 c 128,-1,8
 1342 1226 1342 1226 1342 1108 c 0,9,10
 1342 932 1342 932 1494 882 c 1,11,-1
 1756 882 l 1,12,-1
 1756 780 l 1,13,-1
 1592 780 l 1,14,-1
 1592 0 l 1,15,-1
 1420 0 l 1,16,-1
 1420 780 l 1,17,-1
 1280 780 l 2,18,19
 1180 780 1180 780 1072 732 c 1,20,21
 1228 582 1228 582 1228 370 c 0,22,23
 1228 230 1228 230 1178 130 c 0,24,25
 1114 2 1114 2 988 2 c 0,26,27
 816 2 816 2 764 240 c 0,28,29
 750 302 750 302 750 370 c 0,30,31
 750 560 750 560 882 716 c 1,32,33
 758 794 758 794 604 794 c 0,34,35
 454 794 454 794 343 707 c 128,-1,36
 232 620 232 620 194 474 c 1,37,38
 266 556 266 556 388 556 c 0,39,40
 502 556 502 556 576 474 c 128,-1,41
 650 392 650 392 650 278 c 0,42,43
 650 158 650 158 578 74 c 128,-1,44
 506 -10 506 -10 388 -10 c 0,45,46
 230 -10 230 -10 150 116 c 0,47,48
 82 222 82 222 82 390 c 0,49,50
 82 622 82 622 254 766 c 0,51,52
 416 902 416 902 654 902 c 0,53,54
 828 902 828 902 984 800 c 1,55,56
 1108 882 1108 882 1262 882 c 2,57,-1
 1336 882 l 1,58,59
 1232 970 1232 970 1232 1150 c 0,60,61
 1232 1314 1232 1314 1335 1424 c 128,-1,62
 1438 1534 1438 1534 1600 1534 c 0,63,64
 1774 1534 1774 1534 1874 1388 c 0,65,66
 1964 1258 1964 1258 1964 1078 c 2,67,-1
 1964 0 l 1,0,-1
1062 370 m 0,68,69
 1062 524 1062 524 960 648 c 1,70,71
 854 542 854 542 854 370 c 0,72,73
 854 294 854 294 872 228 c 0,74,75
 898 130 898 130 960 130 c 0,76,77
 992 130 992 130 1028 184 c 1,78,79
 1062 252 1062 252 1062 370 c 0,68,69
486 274 m 256,80,81
 486 340 486 340 450 390 c 0,82,83
 410 448 410 448 348 448 c 256,84,85
 286 448 286 448 248 393 c 128,-1,86
 210 338 210 338 210 274 c 0,87,88
 210 208 210 208 246 158 c 0,89,90
 286 100 286 100 348 100 c 256,91,92
 410 100 410 100 450 158 c 0,93,94
 486 208 486 208 486 274 c 256,80,81
EndSplineSet
Ligature2: "'psts' Post Base Substitutions lookup 8 subtable" tm_nnna tm_ikaar
EndChar

StartChar: tm_p_ikaar
Encoding: 65553 -1 130
Width: 1486
GlyphClass: 2
Flags: W
LayerCount: 2
Fore
SplineSet
1400 0 m 1,0,-1
 1298 0 l 1,1,-1
 1298 890 l 2,2,3
 1298 1104 1298 1104 1246 1216 c 0,4,5
 1172 1374 1172 1374 984 1374 c 0,6,7
 858 1374 858 1374 783 1281 c 128,-1,8
 708 1188 708 1188 708 1058 c 0,9,10
 708 930 708 930 768 850 c 0,11,12
 836 762 836 762 960 762 c 1,13,-1
 960 882 l 1,14,-1
 1132 882 l 1,15,-1
 1132 0 l 1,16,-1
 100 0 l 1,17,-1
 100 882 l 1,18,-1
 272 882 l 1,19,-1
 272 102 l 1,20,-1
 960 102 l 1,21,-1
 960 676 l 1,22,23
 798 676 798 676 698 798 c 0,24,25
 606 912 606 912 606 1078 c 0,26,27
 606 1260 606 1260 704 1390 c 0,28,29
 812 1534 812 1534 988 1534 c 0,30,31
 1400 1534 1400 1534 1400 906 c 2,32,-1
 1400 0 l 1,0,-1
EndSplineSet
Ligature2: "'psts' Post Base Substitutions lookup 8 subtable" tm_pa tm_ikaar
EndChar

StartChar: tm_m_ikaar
Encoding: 65554 -1 131
Width: 1666
GlyphClass: 2
Flags: W
LayerCount: 2
Fore
SplineSet
1572 0 m 1,0,-1
 1472 0 l 1,1,-1
 1472 1058 l 2,2,3
 1472 1200 1472 1200 1390 1287 c 128,-1,4
 1308 1374 1308 1374 1168 1374 c 0,5,6
 1048 1374 1048 1374 970 1294 c 128,-1,7
 892 1214 892 1214 892 1094 c 0,8,9
 892 996 892 996 924 944 c 0,10,11
 944 910 944 910 1012 862 c 1,12,13
 1156 808 1156 808 1250 670 c 128,-1,14
 1344 532 1344 532 1344 378 c 0,15,16
 1344 202 1344 202 1232 101 c 128,-1,17
 1120 0 1120 0 942 0 c 2,18,-1
 100 0 l 1,19,-1
 100 882 l 1,20,-1
 272 882 l 1,21,-1
 272 102 l 1,22,-1
 604 102 l 1,23,-1
 604 644 l 2,24,25
 604 888 604 888 854 888 c 1,26,27
 790 958 790 958 790 1110 c 0,28,29
 790 1288 790 1288 892 1408 c 0,30,31
 1002 1534 1002 1534 1176 1534 c 0,32,33
 1366 1534 1366 1534 1474 1398 c 0,34,35
 1572 1272 1572 1272 1572 1078 c 2,36,-1
 1572 0 l 1,0,-1
1242 380 m 0,37,38
 1242 524 1242 524 1136 648 c 0,39,40
 1026 780 1026 780 886 780 c 0,41,42
 778 780 778 780 778 660 c 2,43,-1
 778 102 l 1,44,-1
 912 102 l 2,45,46
 1242 102 1242 102 1242 380 c 0,37,38
EndSplineSet
Ligature2: "'psts' Post Base Substitutions lookup 8 subtable" tm_ma tm_ikaar
EndChar

StartChar: tm_y_ikaar
Encoding: 65555 -1 132
Width: 1722
GlyphClass: 2
Flags: W
LayerCount: 2
Fore
SplineSet
1632 0 m 1,0,-1
 1532 0 l 1,1,-1
 1532 890 l 2,2,3
 1532 1106 1532 1106 1480 1216 c 0,4,5
 1406 1374 1406 1374 1216 1374 c 0,6,7
 1094 1374 1094 1374 1016 1274 c 0,8,9
 942 1182 942 1182 942 1058 c 0,10,11
 942 930 942 930 1002 850 c 0,12,13
 1070 762 1070 762 1194 762 c 1,14,-1
 1194 882 l 1,15,-1
 1366 882 l 1,16,-1
 1366 0 l 1,17,-1
 530 0 l 1,18,-1
 530 124 l 1,19,20
 472 -4 472 -4 328 -4 c 0,21,22
 100 -4 100 -4 100 282 c 2,23,-1
 100 882 l 1,24,-1
 200 882 l 1,25,-1
 200 280 l 2,26,27
 200 190 200 190 222 150 c 0,28,29
 252 96 252 96 334 96 c 0,30,31
 430 96 430 96 486 236 c 0,32,33
 530 348 530 348 530 458 c 2,34,-1
 530 882 l 1,35,-1
 702 882 l 1,36,-1
 702 102 l 1,37,-1
 1194 102 l 1,38,-1
 1194 676 l 1,39,40
 1032 676 1032 676 932 798 c 0,41,42
 840 912 840 912 840 1078 c 0,43,44
 840 1260 840 1260 938 1390 c 0,45,46
 1044 1534 1044 1534 1220 1534 c 0,47,48
 1632 1534 1632 1534 1632 906 c 2,49,-1
 1632 0 l 1,0,-1
EndSplineSet
Ligature2: "'psts' Post Base Substitutions lookup 8 subtable" tm_ya tm_ikaar
EndChar

StartChar: tm_r_ikaar
Encoding: 65556 -1 133
Width: 1144
GlyphClass: 2
Flags: W
LayerCount: 2
Fore
SplineSet
1066 -8 m 1,0,-1
 966 -8 l 1,1,-1
 966 1058 l 2,2,3
 966 1186 966 1186 900 1276 c 0,4,5
 828 1374 828 1374 704 1374 c 0,6,7
 586 1374 586 1374 516 1300 c 128,-1,8
 446 1226 446 1226 446 1108 c 0,9,10
 446 948 446 948 554 882 c 1,11,-1
 854 882 l 1,12,-1
 854 782 l 1,13,-1
 642 782 l 1,14,-1
 642 -68 l 1,15,-1
 120 -414 l 1,16,-1
 120 -340 l 1,17,-1
 468 0 l 1,18,-1
 468 782 l 1,19,-1
 200 782 l 1,20,-1
 200 0 l 1,21,-1
 100 0 l 1,22,-1
 100 882 l 1,23,-1
 418 882 l 1,24,25
 334 974 334 974 334 1150 c 0,26,27
 334 1314 334 1314 437 1424 c 128,-1,28
 540 1534 540 1534 702 1534 c 0,29,30
 874 1534 874 1534 976 1388 c 0,31,32
 1066 1258 1066 1258 1066 1078 c 2,33,-1
 1066 -8 l 1,0,-1
EndSplineSet
Ligature2: "'psts' Post Base Substitutions lookup 8 subtable" tm_ra tm_ikaar
EndChar

StartChar: tm_rr_ikaar
Encoding: 65557 -1 134
Width: 1472
GlyphClass: 2
Flags: W
LayerCount: 2
Fore
SplineSet
1394 0 m 1,0,-1
 1294 0 l 1,1,-1
 1294 1058 l 2,2,3
 1294 1202 1294 1202 1214 1288 c 128,-1,4
 1134 1374 1134 1374 992 1374 c 0,5,6
 870 1374 870 1374 792 1295 c 128,-1,7
 714 1216 714 1216 714 1094 c 0,8,9
 714 948 714 948 814 884 c 1,10,11
 1168 884 1168 884 1168 380 c 0,12,13
 1168 102 1168 102 1016 -45 c 128,-1,14
 864 -192 864 -192 584 -192 c 2,15,-1
 314 -192 l 2,16,17
 142 -192 142 -192 142 -286 c 0,18,19
 142 -344 142 -344 210 -344 c 0,20,21
 248 -344 248 -344 278 -370 c 128,-1,22
 308 -396 308 -396 308 -434 c 0,23,24
 308 -474 308 -474 279 -501 c 128,-1,25
 250 -528 250 -528 210 -528 c 0,26,27
 122 -528 122 -528 75 -471 c 128,-1,28
 28 -414 28 -414 28 -326 c 0,29,30
 28 -210 28 -210 124 -148 c 0,31,32
 202 -98 202 -98 330 -98 c 2,33,-1
 580 -98 l 2,34,35
 998 -98 998 -98 998 378 c 0,36,37
 998 784 998 784 786 784 c 0,38,39
 646 784 646 784 646 564 c 2,40,-1
 646 0 l 1,41,-1
 474 0 l 1,42,-1
 474 574 l 2,43,44
 474 784 474 784 334 784 c 0,45,46
 200 784 200 784 200 574 c 2,47,-1
 200 0 l 1,48,-1
 100 0 l 1,49,-1
 100 588 l 2,50,51
 100 740 100 740 174 818 c 0,52,53
 240 886 240 886 342 886 c 0,54,55
 546 886 546 886 582 728 c 1,56,57
 612 830 612 830 718 868 c 1,58,59
 612 950 612 950 612 1110 c 0,60,61
 612 1288 612 1288 714 1408 c 0,62,63
 824 1534 824 1534 998 1534 c 0,64,65
 1194 1534 1194 1534 1298 1400 c 0,66,67
 1394 1278 1394 1278 1394 1078 c 2,68,-1
 1394 0 l 1,0,-1
EndSplineSet
Ligature2: "'psts' Post Base Substitutions lookup 8 subtable" tm_rra tm_ikaar
EndChar

StartChar: tm_l_ikaar
Encoding: 65558 -1 135
Width: 1782
GlyphClass: 2
Flags: W
LayerCount: 2
Fore
SplineSet
1690 0 m 1,0,-1
 1590 0 l 1,1,-1
 1590 890 l 2,2,3
 1590 1106 1590 1106 1538 1216 c 0,4,5
 1464 1374 1464 1374 1274 1374 c 0,6,7
 1152 1374 1152 1374 1074 1274 c 0,8,9
 1000 1182 1000 1182 1000 1058 c 0,10,11
 1000 932 1000 932 1060 852 c 0,12,13
 1128 762 1128 762 1250 762 c 0,14,15
 1288 762 1288 762 1312 770 c 1,16,17
 1286 802 1286 802 1180 842 c 0,18,19
 1114 868 1114 868 1114 940 c 0,20,21
 1114 982 1114 982 1174 982 c 0,22,23
 1200 982 1200 982 1218 972 c 0,24,25
 1506 816 1506 816 1506 488 c 0,26,27
 1506 298 1506 298 1412 156 c 0,28,29
 1304 -8 1304 -8 1124 -8 c 0,30,31
 820 -8 820 -8 820 322 c 2,32,-1
 820 468 l 2,33,34
 820 614 820 614 746 700 c 0,35,36
 666 788 666 788 522 788 c 0,37,38
 388 788 388 788 300 694 c 0,39,40
 222 612 222 612 194 474 c 1,41,42
 266 556 266 556 388 556 c 0,43,44
 502 556 502 556 576 474 c 128,-1,45
 650 392 650 392 650 278 c 0,46,47
 650 158 650 158 578 74 c 128,-1,48
 506 -10 506 -10 388 -10 c 0,49,50
 230 -10 230 -10 150 116 c 0,51,52
 82 222 82 222 82 390 c 0,53,54
 82 600 82 600 208 744 c 0,55,56
 340 898 340 898 546 898 c 0,57,58
 744 898 744 898 869 781 c 128,-1,59
 994 664 994 664 994 466 c 2,60,-1
 994 348 l 2,61,62
 994 222 994 222 1014 174 c 0,63,64
 1044 102 1044 102 1142 102 c 0,65,66
 1268 102 1268 102 1342 238 c 0,67,68
 1404 350 1404 350 1404 488 c 0,69,70
 1404 616 1404 616 1360 698 c 1,71,72
 1310 676 1310 676 1250 676 c 0,73,74
 1124 676 1124 676 1024 762 c 0,75,76
 898 870 898 870 898 1078 c 0,77,78
 898 1262 898 1262 994 1390 c 0,79,80
 1100 1534 1100 1534 1278 1534 c 0,81,82
 1690 1534 1690 1534 1690 906 c 2,83,-1
 1690 0 l 1,0,-1
486 274 m 256,84,85
 486 340 486 340 450 390 c 0,86,87
 410 448 410 448 348 448 c 256,88,89
 286 448 286 448 248 393 c 128,-1,90
 210 338 210 338 210 274 c 0,91,92
 210 208 210 208 246 158 c 0,93,94
 286 100 286 100 348 100 c 256,95,96
 410 100 410 100 450 158 c 0,97,98
 486 208 486 208 486 274 c 256,84,85
EndSplineSet
Ligature2: "'psts' Post Base Substitutions lookup 8 subtable" tm_la tm_ikaar
EndChar

StartChar: tm_ll_ikaar
Encoding: 65559 -1 136
Width: 1888
GlyphClass: 2
Flags: W
LayerCount: 2
Fore
SplineSet
1810 0 m 1,0,-1
 1712 0 l 1,1,-1
 1712 1058 l 2,2,3
 1712 1186 1712 1186 1646 1276 c 0,4,5
 1574 1374 1574 1374 1450 1374 c 0,6,7
 1332 1374 1332 1374 1261 1300 c 128,-1,8
 1190 1226 1190 1226 1190 1108 c 0,9,10
 1190 934 1190 934 1340 882 c 1,11,-1
 1620 882 l 1,12,-1
 1620 782 l 1,13,-1
 1432 782 l 1,14,-1
 1432 0 l 1,15,-1
 1262 0 l 1,16,-1
 1262 782 l 1,17,-1
 1004 782 l 1,18,-1
 1004 0 l 1,19,-1
 834 0 l 1,20,-1
 834 396 l 2,21,22
 834 782 834 782 504 782 c 0,23,24
 380 782 380 782 294 688 c 0,25,26
 214 602 214 602 196 476 c 1,27,28
 208 496 208 496 248 520 c 0,29,30
 304 556 304 556 386 556 c 0,31,32
 498 556 498 556 574 476 c 128,-1,33
 650 396 650 396 650 284 c 0,34,35
 650 160 650 160 582 78 c 0,36,37
 508 -10 508 -10 388 -10 c 0,38,39
 264 -10 264 -10 182 80 c 0,40,41
 84 188 84 188 84 404 c 0,42,43
 84 586 84 586 204 734 c 0,44,45
 336 898 336 898 544 898 c 0,46,47
 788 898 788 898 908 740 c 1,48,-1
 908 882 l 1,49,-1
 1184 882 l 1,50,51
 1080 970 1080 970 1080 1150 c 0,52,53
 1080 1312 1080 1312 1183 1423 c 128,-1,54
 1286 1534 1286 1534 1446 1534 c 0,55,56
 1618 1534 1618 1534 1720 1388 c 0,57,58
 1810 1258 1810 1258 1810 1078 c 2,59,-1
 1810 0 l 1,0,-1
486 274 m 256,60,61
 486 340 486 340 450 390 c 0,62,63
 410 448 410 448 348 448 c 256,64,65
 286 448 286 448 248 393 c 128,-1,66
 210 338 210 338 210 274 c 0,67,68
 210 208 210 208 246 158 c 0,69,70
 286 100 286 100 348 100 c 256,71,72
 410 100 410 100 450 158 c 0,73,74
 486 208 486 208 486 274 c 256,60,61
EndSplineSet
Ligature2: "'psts' Post Base Substitutions lookup 8 subtable" tm_lla tm_ikaar
EndChar

StartChar: tm_lll_ikaar
Encoding: 65560 -1 137
Width: 1666
GlyphClass: 2
Flags: W
LayerCount: 2
Fore
SplineSet
1572 0 m 1,0,-1
 1472 0 l 1,1,-1
 1472 1058 l 2,2,3
 1472 1200 1472 1200 1390 1287 c 128,-1,4
 1308 1374 1308 1374 1168 1374 c 0,5,6
 1048 1374 1048 1374 970 1294 c 128,-1,7
 892 1214 892 1214 892 1094 c 0,8,9
 892 996 892 996 924 944 c 0,10,11
 944 910 944 910 1012 862 c 1,12,13
 1156 808 1156 808 1250 670 c 128,-1,14
 1344 532 1344 532 1344 378 c 0,15,16
 1344 202 1344 202 1232 101 c 128,-1,17
 1120 0 1120 0 942 0 c 2,18,-1
 778 0 l 1,19,-1
 778 -64 l 2,20,21
 778 -140 778 -140 882 -140 c 2,22,-1
 1012 -140 l 1,23,-1
 1012 -242 l 1,24,-1
 858 -242 l 2,25,26
 796 -242 796 -242 760 -284 c 1,27,-1
 728 -368 l 2,28,29
 668 -528 668 -528 414 -528 c 0,30,31
 290 -528 290 -528 210 -476 c 0,32,33
 116 -414 116 -414 116 -296 c 0,34,35
 116 -212 116 -212 168 -160 c 128,-1,36
 220 -108 220 -108 310 -108 c 0,37,38
 360 -108 360 -108 408 -136 c 128,-1,39
 456 -164 456 -164 456 -214 c 0,40,41
 456 -272 456 -272 406 -272 c 0,42,43
 372 -272 372 -272 357 -242 c 128,-1,44
 342 -212 342 -212 300 -212 c 0,45,46
 220 -212 220 -212 220 -294 c 0,47,48
 220 -426 220 -426 398 -426 c 0,49,50
 566 -426 566 -426 604 -324 c 2,51,-1
 634 -244 l 1,52,53
 658 -204 658 -204 708 -204 c 1,54,55
 604 -188 604 -188 604 -74 c 2,56,-1
 604 0 l 1,57,-1
 100 0 l 1,58,-1
 100 882 l 1,59,-1
 272 882 l 1,60,-1
 272 102 l 1,61,-1
 604 102 l 1,62,-1
 604 644 l 2,63,64
 604 888 604 888 854 888 c 1,65,66
 790 958 790 958 790 1110 c 0,67,68
 790 1288 790 1288 892 1408 c 0,69,70
 1002 1534 1002 1534 1176 1534 c 0,71,72
 1366 1534 1366 1534 1474 1398 c 0,73,74
 1572 1272 1572 1272 1572 1078 c 2,75,-1
 1572 0 l 1,0,-1
1242 380 m 0,76,77
 1242 524 1242 524 1136 648 c 0,78,79
 1026 780 1026 780 886 780 c 0,80,81
 778 780 778 780 778 660 c 2,82,-1
 778 102 l 1,83,-1
 912 102 l 2,84,85
 1242 102 1242 102 1242 380 c 0,76,77
EndSplineSet
Ligature2: "'psts' Post Base Substitutions lookup 8 subtable" tm_llla tm_ikaar
EndChar

StartChar: tm_v_ikaar
Encoding: 65561 -1 138
Width: 1828
GlyphClass: 2
Flags: W
LayerCount: 2
Fore
SplineSet
1750 0 m 1,0,-1
 1650 0 l 1,1,-1
 1650 890 l 2,2,3
 1650 1106 1650 1106 1598 1216 c 0,4,5
 1524 1374 1524 1374 1334 1374 c 0,6,7
 1212 1374 1212 1374 1134 1274 c 0,8,9
 1060 1182 1060 1182 1060 1058 c 0,10,11
 1060 932 1060 932 1120 852 c 0,12,13
 1188 762 1188 762 1310 762 c 1,14,-1
 1310 882 l 1,15,-1
 1482 882 l 1,16,-1
 1482 0 l 1,17,-1
 762 0 l 1,18,-1
 762 72 l 1,19,20
 860 200 860 200 860 418 c 0,21,22
 860 580 860 580 764 681 c 128,-1,23
 668 782 668 782 506 782 c 0,24,25
 384 782 384 782 298 691 c 128,-1,26
 212 600 212 600 194 476 c 1,27,-1
 248 518 l 1,28,29
 320 556 320 556 388 556 c 0,30,31
 500 556 500 556 575 475 c 128,-1,32
 650 394 650 394 650 280 c 0,33,34
 650 160 650 160 578 75 c 128,-1,35
 506 -10 506 -10 388 -10 c 0,36,37
 242 -10 242 -10 156 116 c 0,38,39
 82 224 82 224 82 380 c 0,40,41
 82 596 82 596 208 742 c 0,42,43
 340 898 340 898 552 898 c 0,44,45
 758 898 758 898 895 759 c 128,-1,46
 1032 620 1032 620 1032 412 c 0,47,48
 1032 222 1032 222 954 102 c 1,49,-1
 1310 102 l 1,50,-1
 1310 676 l 1,51,52
 1184 676 1184 676 1084 762 c 0,53,54
 958 870 958 870 958 1078 c 0,55,56
 958 1262 958 1262 1054 1390 c 0,57,58
 1160 1534 1160 1534 1338 1534 c 0,59,60
 1750 1534 1750 1534 1750 906 c 2,61,-1
 1750 0 l 1,0,-1
486 274 m 256,62,63
 486 340 486 340 450 390 c 0,64,65
 410 448 410 448 348 448 c 256,66,67
 286 448 286 448 248 393 c 128,-1,68
 210 338 210 338 210 274 c 0,69,70
 210 208 210 208 246 158 c 0,71,72
 286 100 286 100 348 100 c 256,73,74
 410 100 410 100 450 158 c 0,75,76
 486 208 486 208 486 274 c 256,62,63
EndSplineSet
Ligature2: "'psts' Post Base Substitutions lookup 8 subtable" tm_va tm_ikaar
EndChar

StartChar: tm_ss_ikaar
Encoding: 65562 -1 139
Width: 2164
GlyphClass: 2
Flags: W
LayerCount: 2
Fore
SplineSet
2098 0 m 1,0,-1
 1998 0 l 1,1,-1
 1998 1058 l 2,2,3
 1998 1200 1998 1200 1916 1287 c 128,-1,4
 1834 1374 1834 1374 1694 1374 c 0,5,6
 1574 1374 1574 1374 1496 1294 c 128,-1,7
 1418 1214 1418 1214 1418 1094 c 0,8,9
 1418 944 1418 944 1526 878 c 1,10,11
 1636 878 1636 878 1728 798 c 128,-1,12
 1820 718 1820 718 1820 602 c 0,13,14
 1820 542 1820 542 1804 486 c 0,15,16
 1792 448 1792 448 1750 358 c 1,17,-1
 1906 458 l 1,18,-1
 1906 0 l 1,19,-1
 1602 0 l 1,20,-1
 1450 -374 l 1,21,-1
 1296 -374 l 1,22,-1
 1448 0 l 1,23,-1
 762 0 l 1,24,-1
 762 72 l 1,25,26
 860 200 860 200 860 418 c 0,27,28
 860 580 860 580 764 681 c 128,-1,29
 668 782 668 782 506 782 c 0,30,31
 384 782 384 782 298 691 c 128,-1,32
 212 600 212 600 194 476 c 1,33,-1
 248 518 l 1,34,35
 320 556 320 556 388 556 c 0,36,37
 500 556 500 556 575 475 c 128,-1,38
 650 394 650 394 650 280 c 0,39,40
 650 160 650 160 578 75 c 128,-1,41
 506 -10 506 -10 388 -10 c 0,42,43
 242 -10 242 -10 156 116 c 0,44,45
 82 224 82 224 82 380 c 0,46,47
 82 596 82 596 208 742 c 0,48,49
 340 898 340 898 552 898 c 0,50,51
 758 898 758 898 895 759 c 128,-1,52
 1032 620 1032 620 1032 412 c 0,53,54
 1032 222 1032 222 954 102 c 1,55,-1
 1490 102 l 1,56,-1
 1536 214 l 1,57,-1
 1494 208 l 1,58,59
 1382 208 1382 208 1288 284 c 0,60,61
 1166 382 1166 382 1166 556 c 0,62,63
 1166 824 1166 824 1410 876 c 1,64,65
 1316 954 1316 954 1316 1110 c 0,66,67
 1316 1288 1316 1288 1418 1408 c 0,68,69
 1528 1534 1528 1534 1702 1534 c 0,70,71
 1892 1534 1892 1534 2000 1398 c 0,72,73
 2098 1272 2098 1272 2098 1078 c 2,74,-1
 2098 0 l 1,0,-1
1660 578 m 0,75,76
 1660 760 1660 760 1446 760 c 0,77,78
 1322 760 1322 760 1284 628 c 0,79,80
 1274 592 1274 592 1274 544 c 0,81,82
 1274 434 1274 434 1350 366 c 0,83,84
 1416 308 1416 308 1504 308 c 0,85,86
 1548 308 1548 308 1580 324 c 1,87,-1
 1646 498 l 2,88,89
 1660 534 1660 534 1660 578 c 0,75,76
1800 102 m 1,90,-1
 1800 286 l 1,91,-1
 1700 240 l 1,92,-1
 1644 102 l 1,93,-1
 1800 102 l 1,90,-1
486 274 m 256,94,95
 486 340 486 340 450 390 c 0,96,97
 410 448 410 448 348 448 c 256,98,99
 286 448 286 448 248 393 c 128,-1,100
 210 338 210 338 210 274 c 0,101,102
 210 208 210 208 246 158 c 0,103,104
 286 100 286 100 348 100 c 256,105,106
 410 100 410 100 450 158 c 0,107,108
 486 208 486 208 486 274 c 256,94,95
EndSplineSet
Ligature2: "'psts' Post Base Substitutions lookup 8 subtable" tm_ssa tm_ikaar
EndChar

StartChar: tm_s_ikaar
Encoding: 65563 -1 140
Width: 2246
GlyphClass: 2
Flags: W
LayerCount: 2
Fore
SplineSet
2176 0 m 1,0,-1
 2074 0 l 1,1,-1
 2074 890 l 2,2,3
 2074 1104 2074 1104 2022 1216 c 0,4,5
 1948 1374 1948 1374 1760 1374 c 0,6,7
 1634 1374 1634 1374 1556 1276 c 0,8,9
 1484 1186 1484 1186 1484 1058 c 0,10,11
 1484 942 1484 942 1540 858 c 0,12,13
 1606 762 1606 762 1716 762 c 2,14,-1
 1736 762 l 1,15,-1
 1782 766 l 1,16,-1
 1776 774 l 1,17,18
 1748 802 1748 802 1646 842 c 0,19,20
 1580 868 1580 868 1580 940 c 0,21,22
 1580 982 1580 982 1640 982 c 0,23,24
 1666 982 1666 982 1684 972 c 0,25,26
 1972 816 1972 816 1972 488 c 0,27,28
 1972 298 1972 298 1878 156 c 0,29,30
 1770 -8 1770 -8 1590 -8 c 0,31,32
 1286 -8 1286 -8 1286 322 c 2,33,-1
 1286 480 l 2,34,35
 1286 630 1286 630 1264 688 c 0,36,37
 1234 768 1234 768 1152 768 c 0,38,39
 1044 768 1044 768 1014 638 c 0,40,41
 1002 588 1002 588 1002 484 c 2,42,-1
 1002 -2 l 1,43,-1
 830 -2 l 1,44,-1
 830 474 l 2,45,46
 830 620 830 620 746 701 c 128,-1,47
 662 782 662 782 516 782 c 0,48,49
 394 782 394 782 308 686 c 0,50,51
 232 602 232 602 210 474 c 1,52,53
 276 556 276 556 402 556 c 0,54,55
 510 556 510 556 587 472 c 128,-1,56
 664 388 664 388 664 278 c 0,57,58
 664 158 664 158 592 74 c 128,-1,59
 520 -10 520 -10 402 -10 c 0,60,61
 248 -10 248 -10 168 118 c 0,62,63
 98 228 98 228 98 390 c 0,64,65
 98 596 98 596 218 742 c 0,66,67
 346 898 346 898 548 898 c 0,68,69
 842 898 842 898 948 702 c 1,70,71
 996 886 996 886 1178 886 c 0,72,73
 1368 886 1368 886 1426 756 c 0,74,75
 1458 684 1458 684 1458 484 c 2,76,-1
 1458 348 l 2,77,78
 1458 224 1458 224 1480 174 c 0,79,80
 1512 102 1512 102 1608 102 c 0,81,82
 1734 102 1734 102 1808 238 c 0,83,84
 1870 350 1870 350 1870 488 c 0,85,86
 1870 612 1870 612 1830 692 c 1,87,88
 1774 676 1774 676 1736 676 c 0,89,90
 1610 676 1610 676 1510 762 c 0,91,92
 1384 870 1384 870 1384 1078 c 0,93,94
 1384 1262 1384 1262 1480 1390 c 0,95,96
 1586 1534 1586 1534 1764 1534 c 0,97,98
 2176 1534 2176 1534 2176 906 c 2,99,-1
 2176 0 l 1,0,-1
502 274 m 256,100,101
 502 340 502 340 466 390 c 0,102,103
 426 448 426 448 364 448 c 256,104,105
 302 448 302 448 264 393 c 128,-1,106
 226 338 226 338 226 274 c 0,107,108
 226 208 226 208 262 158 c 0,109,110
 302 100 302 100 364 100 c 256,111,112
 426 100 426 100 466 158 c 0,113,114
 502 208 502 208 502 274 c 256,100,101
EndSplineSet
Ligature2: "'psts' Post Base Substitutions lookup 8 subtable" tm_sa tm_ikaar
EndChar

StartChar: tm_h_ikaar
Encoding: 65564 -1 141
Width: 2528
GlyphClass: 2
Flags: W
LayerCount: 2
Fore
SplineSet
2460 0 m 1,0,-1
 2360 0 l 1,1,-1
 2360 1058 l 2,2,3
 2360 1202 2360 1202 2280 1288 c 128,-1,4
 2200 1374 2200 1374 2058 1374 c 0,5,6
 1936 1374 1936 1374 1858 1295 c 128,-1,7
 1780 1216 1780 1216 1780 1094 c 0,8,9
 1780 948 1780 948 1880 884 c 1,10,11
 2244 884 2244 884 2244 380 c 0,12,13
 2244 102 2244 102 2092 -45 c 128,-1,14
 1940 -192 1940 -192 1660 -192 c 2,15,-1
 388 -192 l 2,16,17
 218 -192 218 -192 218 -286 c 0,18,19
 218 -344 218 -344 284 -344 c 0,20,21
 322 -344 322 -344 352 -370 c 128,-1,22
 382 -396 382 -396 382 -434 c 0,23,24
 382 -474 382 -474 353 -501 c 128,-1,25
 324 -528 324 -528 284 -528 c 0,26,27
 196 -528 196 -528 149 -471 c 128,-1,28
 102 -414 102 -414 102 -326 c 0,29,30
 102 -208 102 -208 198 -148 c 0,31,32
 278 -98 278 -98 404 -98 c 2,33,-1
 1656 -98 l 2,34,35
 2072 -98 2072 -98 2072 378 c 0,36,37
 2072 784 2072 784 1862 784 c 0,38,39
 1722 784 1722 784 1722 564 c 2,40,-1
 1722 0 l 1,41,-1
 1550 0 l 1,42,-1
 1550 574 l 2,43,44
 1550 784 1550 784 1410 784 c 0,45,46
 1276 784 1276 784 1276 574 c 2,47,-1
 1276 0 l 1,48,-1
 752 0 l 1,49,-1
 752 72 l 1,50,51
 850 200 850 200 850 418 c 0,52,53
 850 580 850 580 754 681 c 128,-1,54
 658 782 658 782 496 782 c 0,55,56
 374 782 374 782 288 691 c 128,-1,57
 202 600 202 600 184 476 c 1,58,-1
 238 518 l 1,59,60
 310 556 310 556 378 556 c 0,61,62
 490 556 490 556 565 475 c 128,-1,63
 640 394 640 394 640 280 c 0,64,65
 640 160 640 160 568 75 c 128,-1,66
 496 -10 496 -10 378 -10 c 0,67,68
 232 -10 232 -10 146 116 c 0,69,70
 72 224 72 224 72 380 c 0,71,72
 72 594 72 594 198 742 c 0,73,74
 332 898 332 898 542 898 c 0,75,76
 748 898 748 898 885 759 c 128,-1,77
 1022 620 1022 620 1022 412 c 0,78,79
 1022 222 1022 222 944 102 c 1,80,-1
 1176 102 l 1,81,-1
 1176 588 l 2,82,83
 1176 740 1176 740 1250 818 c 0,84,85
 1316 886 1316 886 1418 886 c 0,86,87
 1622 886 1622 886 1658 728 c 1,88,89
 1688 824 1688 824 1786 866 c 1,90,91
 1678 948 1678 948 1678 1110 c 0,92,93
 1678 1288 1678 1288 1780 1408 c 0,94,95
 1890 1534 1890 1534 2064 1534 c 0,96,97
 2260 1534 2260 1534 2364 1400 c 0,98,99
 2460 1278 2460 1278 2460 1078 c 2,100,-1
 2460 0 l 1,0,-1
476 274 m 256,101,102
 476 340 476 340 440 390 c 0,103,104
 400 448 400 448 338 448 c 256,105,106
 276 448 276 448 238 393 c 128,-1,107
 200 338 200 338 200 274 c 0,108,109
 200 206 200 206 234 156 c 0,110,111
 274 100 274 100 338 100 c 0,112,113
 400 100 400 100 440 158 c 0,114,115
 476 208 476 208 476 274 c 256,101,102
EndSplineSet
Ligature2: "'psts' Post Base Substitutions lookup 8 subtable" tm_ha tm_ikaar
EndChar

StartChar: tm_k_iikaar
Encoding: 65565 -1 142
Width: 1292
GlyphClass: 2
Flags: W
LayerCount: 2
Fore
SplineSet
1248 1316 m 0,0,1
 1248 1230 1248 1230 1190 1179 c 128,-1,2
 1132 1128 1132 1128 1044 1128 c 0,3,4
 960 1128 960 1128 902 1166 c 0,5,6
 838 1212 838 1212 838 1292 c 0,7,8
 838 1334 838 1334 856 1362 c 1,9,10
 780 1348 780 1348 740 1276 c 0,11,12
 706 1214 706 1214 706 1130 c 0,13,14
 706 1042 706 1042 768 972 c 0,15,16
 824 910 824 910 912 882 c 1,17,-1
 1076 882 l 1,18,-1
 1076 782 l 1,19,-1
 766 782 l 1,20,-1
 766 532 l 1,21,-1
 934 532 l 2,22,23
 1060 532 1060 532 1135 466 c 128,-1,24
 1210 400 1210 400 1210 280 c 0,25,26
 1210 142 1210 142 1106 66 c 0,27,28
 1016 0 1016 0 872 0 c 0,29,30
 734 0 734 0 652 74 c 1,31,32
 548 0 548 0 380 0 c 0,33,34
 252 0 252 0 162 72 c 0,35,36
 66 150 66 150 66 274 c 0,37,38
 66 472 66 472 248 522 c 1,39,-1
 248 882 l 1,40,-1
 732 882 l 1,41,42
 600 976 600 976 600 1148 c 0,43,44
 600 1332 600 1332 716 1440 c 0,45,46
 818 1534 818 1534 970 1534 c 0,47,48
 1082 1534 1082 1534 1158 1482 c 0,49,50
 1248 1422 1248 1422 1248 1316 c 0,0,1
1124 1292 m 1,51,52
 1124 1314 1124 1314 1094 1348 c 1,53,54
 1064 1372 1064 1372 1026 1372 c 0,55,56
 996 1372 996 1372 956 1348 c 1,57,58
 938 1332 938 1332 928 1292 c 1,59,60
 928 1214 928 1214 1026 1214 c 0,61,62
 1108 1214 1108 1214 1124 1292 c 1,51,52
1038 292 m 0,63,64
 1038 356 1038 356 999 393 c 128,-1,65
 960 430 960 430 896 430 c 2,66,-1
 766 430 l 1,67,-1
 766 304 l 2,68,69
 766 218 766 218 720 148 c 1,70,71
 764 104 764 104 854 104 c 0,72,73
 932 104 932 104 985 159 c 128,-1,74
 1038 214 1038 214 1038 292 c 0,63,64
594 532 m 1,75,-1
 594 782 l 1,76,-1
 348 782 l 1,77,-1
 348 532 l 1,78,-1
 594 532 l 1,75,-1
594 334 m 2,79,-1
 594 430 l 1,80,-1
 332 430 l 2,81,82
 168 430 168 430 168 270 c 0,83,84
 168 198 168 198 226 152 c 128,-1,85
 284 106 284 106 358 106 c 0,86,87
 462 106 462 106 528 168 c 128,-1,88
 594 230 594 230 594 334 c 2,79,-1
EndSplineSet
Ligature2: "'abvs' Above Base Substitutions lookup 6 subtable" tm_ka tm_iikaar
EndChar

StartChar: tm_ng_iikaar
Encoding: 65566 -1 143
Width: 1672
GlyphClass: 2
Flags: W
LayerCount: 2
Fore
SplineSet
1630 1316 m 0,0,1
 1630 1230 1630 1230 1572 1179 c 128,-1,2
 1514 1128 1514 1128 1426 1128 c 0,3,4
 1342 1128 1342 1128 1284 1166 c 0,5,6
 1220 1212 1220 1212 1220 1292 c 0,7,8
 1220 1344 1220 1344 1238 1362 c 1,9,10
 1152 1346 1152 1346 1094 1244 c 0,11,12
 1042 1154 1042 1154 1042 1058 c 0,13,14
 1042 858 1042 858 1178 786 c 0,15,16
 1224 762 1224 762 1274 762 c 1,17,-1
 1274 882 l 1,18,-1
 1446 882 l 1,19,-1
 1446 0 l 1,20,-1
 468 0 l 1,21,-1
 468 102 l 1,22,-1
 750 102 l 2,23,24
 936 102 936 102 936 320 c 0,25,26
 936 484 936 484 762 484 c 0,27,28
 650 484 650 484 616 358 c 1,29,-1
 616 216 l 1,30,-1
 468 216 l 1,31,-1
 468 782 l 1,32,-1
 200 782 l 1,33,-1
 200 0 l 1,34,-1
 100 0 l 1,35,-1
 100 882 l 1,36,-1
 928 882 l 1,37,-1
 928 782 l 1,38,-1
 616 782 l 1,39,-1
 616 526 l 1,40,41
 696 588 696 588 800 588 c 0,42,43
 928 588 928 588 1010 516 c 128,-1,44
 1092 444 1092 444 1092 318 c 0,45,46
 1092 256 1092 256 1064 194 c 0,47,48
 1030 124 1030 124 980 102 c 1,49,-1
 1274 102 l 1,50,-1
 1274 670 l 1,51,52
 1118 670 1118 670 1024 808 c 0,53,54
 940 928 940 928 940 1092 c 0,55,56
 940 1278 940 1278 1055 1406 c 128,-1,57
 1170 1534 1170 1534 1352 1534 c 0,58,59
 1464 1534 1464 1534 1540 1482 c 0,60,61
 1630 1422 1630 1422 1630 1316 c 0,0,1
1504 1292 m 1,62,63
 1504 1336 1504 1336 1442 1364 c 0,64,65
 1424 1372 1424 1372 1408 1372 c 0,66,67
 1374 1372 1374 1372 1345 1349 c 128,-1,68
 1316 1326 1316 1326 1310 1292 c 1,69,70
 1310 1256 1310 1256 1340 1235 c 128,-1,71
 1370 1214 1370 1214 1408 1214 c 0,72,73
 1492 1214 1492 1214 1504 1292 c 1,62,63
EndSplineSet
Ligature2: "'abvs' Above Base Substitutions lookup 6 subtable" tm_nga tm_iikaar
EndChar

StartChar: tm_c_iikaar
Encoding: 65567 -1 144
Width: 1144
GlyphClass: 2
Flags: W
LayerCount: 2
Fore
SplineSet
1186 1316 m 0,0,1
 1186 1230 1186 1230 1128 1179 c 128,-1,2
 1070 1128 1070 1128 982 1128 c 0,3,4
 898 1128 898 1128 840 1166 c 0,5,6
 776 1212 776 1212 776 1292 c 0,7,8
 776 1334 776 1334 794 1362 c 1,9,10
 718 1348 718 1348 678 1276 c 0,11,12
 644 1214 644 1214 644 1130 c 0,13,14
 644 944 644 944 852 882 c 1,15,-1
 1076 882 l 1,16,-1
 1076 782 l 1,17,-1
 766 782 l 1,18,-1
 766 532 l 1,19,-1
 1042 532 l 1,20,-1
 1042 430 l 1,21,-1
 766 430 l 1,22,-1
 766 304 l 2,23,24
 766 190 766 190 682 102 c 0,25,26
 584 0 584 0 380 0 c 0,27,28
 252 0 252 0 162 72 c 0,29,30
 66 150 66 150 66 274 c 0,31,32
 66 472 66 472 248 522 c 1,33,-1
 248 882 l 1,34,-1
 670 882 l 1,35,36
 538 976 538 976 538 1148 c 0,37,38
 538 1332 538 1332 654 1440 c 0,39,40
 756 1534 756 1534 908 1534 c 0,41,42
 1020 1534 1020 1534 1096 1482 c 0,43,44
 1186 1422 1186 1422 1186 1316 c 0,0,1
1062 1292 m 1,45,46
 1062 1314 1062 1314 1032 1348 c 1,47,48
 1002 1372 1002 1372 964 1372 c 0,49,50
 930 1372 930 1372 901 1349 c 128,-1,51
 872 1326 872 1326 866 1292 c 1,52,53
 866 1256 866 1256 896 1235 c 128,-1,54
 926 1214 926 1214 964 1214 c 0,55,56
 1046 1214 1046 1214 1062 1292 c 1,45,46
594 532 m 1,57,-1
 594 782 l 1,58,-1
 348 782 l 1,59,-1
 348 532 l 1,60,-1
 594 532 l 1,57,-1
594 334 m 2,61,-1
 594 430 l 1,62,-1
 332 430 l 2,63,64
 168 430 168 430 168 270 c 0,65,66
 168 198 168 198 226 152 c 128,-1,67
 284 106 284 106 358 106 c 0,68,69
 462 106 462 106 528 168 c 128,-1,70
 594 230 594 230 594 334 c 2,61,-1
EndSplineSet
Ligature2: "'abvs' Above Base Substitutions lookup 6 subtable" tm_ca tm_iikaar
EndChar

StartChar: tm_j_iikaar
Encoding: 65568 -1 145
Width: 1588
GlyphClass: 2
Flags: W
LayerCount: 2
Fore
SplineSet
1504 1316 m 0,0,1
 1504 1230 1504 1230 1445 1179 c 128,-1,2
 1386 1128 1386 1128 1300 1128 c 0,3,4
 1216 1128 1216 1128 1158 1166 c 0,5,6
 1094 1212 1094 1212 1094 1292 c 0,7,8
 1094 1344 1094 1344 1114 1362 c 1,9,10
 1038 1346 1038 1346 998 1274 c 0,11,12
 964 1214 964 1214 964 1130 c 0,13,14
 964 952 964 952 1154 886 c 1,15,-1
 1178 888 l 2,16,17
 1242 894 1242 894 1318 864 c 0,18,19
 1500 788 1500 788 1500 534 c 0,20,21
 1500 326 1500 326 1377 218 c 128,-1,22
 1254 110 1254 110 1044 110 c 2,23,-1
 516 108 l 2,24,25
 266 108 266 108 266 -116 c 0,26,27
 266 -212 266 -212 330 -266 c 0,28,29
 388 -316 388 -316 486 -316 c 0,30,31
 594 -316 594 -316 642 -282 c 0,32,33
 704 -240 704 -240 754 -122 c 0,34,35
 840 76 840 76 1128 76 c 0,36,37
 1482 76 1482 76 1482 -186 c 0,38,39
 1482 -294 1482 -294 1408 -353 c 128,-1,40
 1334 -412 1334 -412 1224 -412 c 0,41,42
 1082 -412 1082 -412 1034 -276 c 1,43,44
 1020 -220 1020 -220 1020 -184 c 0,45,46
 1020 -64 1020 -64 1076 -20 c 1,47,48
 876 -20 876 -20 824 -200 c 0,49,50
 790 -318 790 -318 676 -370 c 0,51,52
 580 -414 580 -414 460 -414 c 0,53,54
 306 -414 306 -414 206 -338 c 0,55,56
 94 -254 94 -254 94 -104 c 0,57,58
 94 56 94 56 200 136 c 0,59,60
 294 208 294 208 458 208 c 2,61,-1
 1042 208 l 2,62,63
 1202 208 1202 208 1270 296 c 0,64,65
 1328 372 1328 372 1328 536 c 0,66,67
 1328 784 1328 784 1124 784 c 0,68,69
 1022 784 1022 784 970 690 c 0,70,71
 926 614 926 614 926 504 c 2,72,-1
 926 312 l 1,73,-1
 742 312 l 1,74,-1
 742 534 l 2,75,76
 742 664 742 664 628 742 c 1,77,78
 544 786 544 786 454 786 c 0,79,80
 358 786 358 786 302 758 c 0,81,82
 286 750 286 750 240 704 c 1,83,84
 306 722 306 722 322 722 c 0,85,86
 424 722 424 722 483 660 c 128,-1,87
 542 598 542 598 542 496 c 0,88,89
 542 382 542 382 464 312 c 0,90,91
 406 260 406 260 310 260 c 0,92,93
 206 260 206 260 144 350 c 0,94,95
 90 430 90 430 90 538 c 0,96,97
 90 696 90 696 193 792 c 128,-1,98
 296 888 296 888 454 888 c 0,99,100
 788 888 788 888 874 704 c 1,101,102
 922 818 922 818 1026 860 c 1,103,104
 858 950 858 950 858 1148 c 0,105,106
 858 1332 858 1332 974 1440 c 0,107,108
 1076 1534 1076 1534 1226 1534 c 0,109,110
 1338 1534 1338 1534 1414 1482 c 0,111,112
 1504 1422 1504 1422 1504 1316 c 0,0,1
1380 1292 m 1,113,114
 1380 1314 1380 1314 1350 1348 c 1,115,116
 1320 1372 1320 1372 1282 1372 c 0,117,118
 1254 1372 1254 1372 1214 1348 c 1,119,120
 1196 1332 1196 1332 1186 1292 c 1,121,122
 1186 1256 1186 1256 1216 1235 c 128,-1,123
 1246 1214 1246 1214 1282 1214 c 0,124,125
 1364 1214 1364 1214 1380 1292 c 1,113,114
1312 -172 m 256,126,127
 1312 -122 1312 -122 1290 -82 c 0,128,129
 1262 -36 1262 -36 1216 -36 c 0,130,131
 1176 -36 1176 -36 1148 -76 c 1,132,133
 1122 -124 1122 -124 1122 -172 c 0,134,135
 1122 -222 1122 -222 1144 -262 c 0,136,137
 1170 -310 1170 -310 1216 -310 c 0,138,139
 1264 -310 1264 -310 1290 -262 c 0,140,141
 1312 -222 1312 -222 1312 -172 c 256,126,127
388 494 m 0,142,143
 388 542 388 542 363 582 c 128,-1,144
 338 622 338 622 292 622 c 0,145,146
 248 622 248 622 222 581 c 128,-1,147
 196 540 196 540 196 494 c 0,148,149
 196 444 196 444 218 408 c 0,150,151
 246 366 246 366 292 366 c 0,152,153
 336 366 336 366 364 410 c 0,154,155
 388 448 388 448 388 494 c 0,142,143
EndSplineSet
Ligature2: "'abvs' Above Base Substitutions lookup 6 subtable" tm_ja tm_iikaar
EndChar

StartChar: tm_ny_iikaar
Encoding: 65569 -1 146
Width: 1814
GlyphClass: 2
Flags: W
LayerCount: 2
Fore
SplineSet
1726 230 m 0,0,1
 1726 -102 1726 -102 1476 -270 c 0,2,3
 1262 -414 1262 -414 910 -414 c 0,4,5
 528 -414 528 -414 308 -202 c 0,6,7
 82 14 82 14 82 392 c 0,8,9
 82 528 82 528 116 646 c 0,10,11
 158 790 158 790 230 872 c 1,12,-1
 302 800 l 1,13,14
 266 770 266 770 228 660 c 1,15,-1
 196 530 l 2,16,17
 184 482 184 482 184 398 c 0,18,19
 184 72 184 72 374 -117 c 128,-1,20
 564 -306 564 -306 892 -306 c 0,21,22
 1546 -306 1546 -306 1546 230 c 0,23,24
 1546 460 1546 460 1418 460 c 0,25,26
 1388 460 1388 460 1342 418 c 1,27,28
 1308 374 1308 374 1308 314 c 2,29,-1
 1308 0 l 1,30,-1
 1136 0 l 1,31,-1
 1136 782 l 1,32,-1
 824 782 l 2,33,34
 692 782 692 782 604 696 c 128,-1,35
 516 610 516 610 498 476 c 1,36,-1
 548 514 l 1,37,38
 604 548 604 548 674 548 c 0,39,40
 914 548 914 548 944 294 c 1,41,42
 944 166 944 166 876 80 c 0,43,44
 802 -12 802 -12 676 -12 c 0,45,46
 526 -12 526 -12 450 128 c 0,47,48
 388 242 388 242 388 404 c 0,49,50
 388 610 388 610 514 746 c 128,-1,51
 640 882 640 882 846 882 c 2,52,-1
 1124 882 l 1,53,54
 994 972 994 972 994 1144 c 0,55,56
 994 1416 994 1416 1220 1504 c 0,57,58
 1286 1530 1286 1530 1364 1530 c 0,59,60
 1476 1530 1476 1530 1552 1478 c 0,61,62
 1642 1418 1642 1418 1642 1312 c 0,63,64
 1642 1226 1642 1226 1584 1175 c 128,-1,65
 1526 1124 1526 1124 1438 1124 c 0,66,67
 1346 1124 1346 1124 1289 1172 c 128,-1,68
 1232 1220 1232 1220 1232 1288 c 0,69,70
 1232 1330 1232 1330 1250 1358 c 1,71,72
 1178 1346 1178 1346 1136 1270 c 0,73,74
 1100 1206 1100 1206 1100 1126 c 0,75,76
 1100 940 1100 940 1306 882 c 1,77,-1
 1446 882 l 1,78,-1
 1446 782 l 1,79,-1
 1308 782 l 1,80,-1
 1308 524 l 1,81,82
 1372 562 1372 562 1430 562 c 0,83,84
 1500 562 1500 562 1552 546 c 0,85,86
 1598 530 1598 530 1634 496 c 0,87,88
 1726 412 1726 412 1726 230 c 0,0,1
1518 1288 m 1,89,90
 1518 1310 1518 1310 1488 1344 c 1,91,92
 1458 1368 1458 1368 1420 1368 c 0,93,94
 1384 1368 1384 1368 1353 1345 c 128,-1,95
 1322 1322 1322 1322 1322 1288 c 0,96,97
 1322 1210 1322 1210 1420 1210 c 0,98,99
 1502 1210 1502 1210 1518 1288 c 1,89,90
784 268 m 0,100,101
 784 332 784 332 748 389 c 128,-1,102
 712 446 712 446 652 446 c 256,103,104
 592 446 592 446 554 384 c 0,105,106
 522 332 522 332 522 268 c 256,107,108
 522 204 522 204 554 150 c 0,109,110
 592 90 592 90 652 90 c 0,111,112
 710 90 710 90 752 150 c 1,113,114
 784 208 784 208 784 268 c 0,100,101
EndSplineSet
Ligature2: "'abvs' Above Base Substitutions lookup 6 subtable" tm_nya tm_iikaar
EndChar

StartChar: tm_tt_iikaar
Encoding: 65570 -1 147
Width: 1344
GlyphClass: 2
Flags: W
LayerCount: 2
Fore
SplineSet
1284 0 m 1,0,-1
 100 0 l 1,1,-1
 100 882 l 1,2,-1
 272 882 l 1,3,-1
 272 102 l 1,4,-1
 714 102 l 1,5,6
 666 118 666 118 608 192 c 0,7,8
 526 296 526 296 526 450 c 0,9,10
 526 618 526 618 627 738 c 128,-1,11
 728 858 728 858 894 858 c 0,12,13
 1026 858 1026 858 1126 750 c 0,14,15
 1214 654 1214 654 1214 534 c 0,16,17
 1214 416 1214 416 1164 340 c 0,18,19
 1104 250 1104 250 992 250 c 0,20,21
 888 250 888 250 823 322 c 128,-1,22
 758 394 758 394 758 498 c 0,23,24
 758 592 758 592 804 658 c 0,25,26
 856 734 856 734 946 734 c 1,27,28
 920 756 920 756 866 756 c 0,29,30
 764 756 764 756 694 654 c 0,31,32
 628 562 628 562 628 456 c 0,33,34
 628 164 628 164 966 102 c 1,35,-1
 1284 102 l 1,36,-1
 1284 0 l 1,0,-1
1066 506 m 1,37,38
 1052 636 1052 636 946 636 c 0,39,40
 910 636 910 636 880 586 c 1,41,-1
 864 540 l 1,42,-1
 860 482 l 1,43,44
 872 352 872 352 978 352 c 0,45,46
 1014 352 1014 352 1046 402 c 1,47,-1
 1062 448 l 1,48,-1
 1066 506 l 1,37,38
EndSplineSet
Ligature2: "'abvs' Above Base Substitutions lookup 5 subtable" tm_tta tm_iikaar
EndChar

StartChar: tm_nn_iikaar
Encoding: 65571 -1 148
Width: 2466
GlyphClass: 2
Flags: W
LayerCount: 2
Fore
SplineSet
2516 1316 m 0,0,1
 2516 1230 2516 1230 2458 1179 c 128,-1,2
 2400 1128 2400 1128 2312 1128 c 0,3,4
 2228 1128 2228 1128 2170 1166 c 0,5,6
 2106 1212 2106 1212 2106 1292 c 0,7,8
 2106 1334 2106 1334 2124 1362 c 1,9,10
 2048 1348 2048 1348 2008 1276 c 0,11,12
 1974 1214 1974 1214 1974 1130 c 0,13,14
 1974 1042 1974 1042 2036 972 c 0,15,16
 2092 910 2092 910 2180 882 c 1,17,-1
 2394 882 l 1,18,-1
 2394 780 l 1,19,-1
 2232 780 l 1,20,-1
 2232 0 l 1,21,-1
 2060 0 l 1,22,-1
 2060 780 l 1,23,-1
 1922 780 l 2,24,25
 1814 780 1814 780 1712 732 c 1,26,27
 1868 582 1868 582 1868 370 c 0,28,29
 1868 232 1868 232 1818 130 c 0,30,31
 1756 2 1756 2 1628 2 c 0,32,33
 1502 2 1502 2 1440 130 c 0,34,35
 1392 228 1392 228 1392 370 c 0,36,37
 1392 574 1392 574 1524 718 c 1,38,39
 1400 792 1400 792 1288 792 c 0,40,41
 1194 792 1194 792 1070 732 c 1,42,43
 1228 586 1228 586 1228 370 c 0,44,45
 1228 230 1228 230 1178 130 c 0,46,47
 1114 2 1114 2 988 2 c 0,48,49
 816 2 816 2 764 240 c 0,50,51
 750 302 750 302 750 370 c 0,52,53
 750 560 750 560 882 716 c 1,54,55
 758 794 758 794 604 794 c 0,56,57
 454 794 454 794 343 707 c 128,-1,58
 232 620 232 620 194 474 c 1,59,60
 266 556 266 556 388 556 c 0,61,62
 502 556 502 556 576 474 c 128,-1,63
 650 392 650 392 650 278 c 0,64,65
 650 158 650 158 578 74 c 128,-1,66
 506 -10 506 -10 388 -10 c 0,67,68
 230 -10 230 -10 150 116 c 0,69,70
 82 222 82 222 82 390 c 0,71,72
 82 622 82 622 254 766 c 0,73,74
 416 902 416 902 654 902 c 0,75,76
 836 902 836 902 984 802 c 1,77,78
 1126 896 1126 896 1298 896 c 0,79,80
 1480 896 1480 896 1626 802 c 1,81,82
 1758 882 1758 882 1902 882 c 2,83,-1
 2000 882 l 1,84,85
 1868 976 1868 976 1868 1148 c 0,86,87
 1868 1332 1868 1332 1984 1440 c 0,88,89
 2086 1534 2086 1534 2238 1534 c 0,90,91
 2350 1534 2350 1534 2426 1482 c 0,92,93
 2516 1422 2516 1422 2516 1316 c 0,0,1
2392 1292 m 1,94,95
 2392 1314 2392 1314 2362 1348 c 1,96,97
 2332 1372 2332 1372 2294 1372 c 0,98,99
 2264 1372 2264 1372 2224 1348 c 1,100,101
 2206 1332 2206 1332 2196 1292 c 1,102,103
 2196 1214 2196 1214 2294 1214 c 0,104,105
 2376 1214 2376 1214 2392 1292 c 1,94,95
1702 370 m 0,106,107
 1702 526 1702 526 1600 650 c 1,108,109
 1494 538 1494 538 1494 370 c 0,110,111
 1494 294 1494 294 1512 228 c 0,112,113
 1538 130 1538 130 1600 130 c 0,114,115
 1632 130 1632 130 1668 184 c 1,116,117
 1702 252 1702 252 1702 370 c 0,106,107
1062 370 m 0,118,119
 1062 524 1062 524 960 648 c 1,120,121
 854 542 854 542 854 370 c 0,122,123
 854 294 854 294 872 228 c 0,124,125
 898 130 898 130 960 130 c 0,126,127
 992 130 992 130 1028 184 c 1,128,129
 1062 252 1062 252 1062 370 c 0,118,119
486 274 m 256,130,131
 486 340 486 340 450 390 c 0,132,133
 410 448 410 448 348 448 c 256,134,135
 286 448 286 448 248 393 c 128,-1,136
 210 338 210 338 210 274 c 0,137,138
 210 208 210 208 246 158 c 0,139,140
 286 100 286 100 348 100 c 256,141,142
 410 100 410 100 450 158 c 0,143,144
 486 208 486 208 486 274 c 256,130,131
EndSplineSet
Ligature2: "'abvs' Above Base Substitutions lookup 6 subtable" tm_nna tm_iikaar
EndChar

StartChar: tm_t_iikaar
Encoding: 65572 -1 149
Width: 1292
GlyphClass: 2
Flags: W
LayerCount: 2
Fore
SplineSet
1248 1316 m 0,0,1
 1248 1230 1248 1230 1190 1179 c 128,-1,2
 1132 1128 1132 1128 1044 1128 c 0,3,4
 960 1128 960 1128 902 1166 c 0,5,6
 838 1212 838 1212 838 1292 c 0,7,8
 838 1334 838 1334 856 1362 c 1,9,10
 780 1348 780 1348 740 1276 c 0,11,12
 706 1214 706 1214 706 1130 c 0,13,14
 706 1042 706 1042 768 972 c 0,15,16
 824 910 824 910 912 882 c 1,17,-1
 1076 882 l 1,18,-1
 1076 782 l 1,19,-1
 766 782 l 1,20,-1
 766 532 l 1,21,-1
 852 532 l 2,22,23
 1022 532 1022 532 1120 446 c 128,-1,24
 1218 360 1218 360 1218 192 c 0,25,26
 1218 -6 1218 -6 1058 -112 c 0,27,28
 972 -168 972 -168 830 -186 c 0,29,30
 782 -192 782 -192 736 -192 c 2,31,-1
 348 -192 l 2,32,33
 178 -192 178 -192 178 -286 c 0,34,35
 178 -344 178 -344 246 -344 c 0,36,37
 286 -344 286 -344 314 -369 c 128,-1,38
 342 -394 342 -394 342 -434 c 0,39,40
 342 -472 342 -472 313 -500 c 128,-1,41
 284 -528 284 -528 246 -528 c 0,42,43
 158 -528 158 -528 111 -471 c 128,-1,44
 64 -414 64 -414 64 -326 c 0,45,46
 64 -210 64 -210 160 -148 c 0,47,48
 238 -98 238 -98 364 -98 c 2,49,-1
 734 -98 l 2,50,51
 876 -98 876 -98 961 -22 c 128,-1,52
 1046 54 1046 54 1046 194 c 0,53,54
 1046 430 1046 430 834 430 c 2,55,-1
 766 430 l 1,56,-1
 766 304 l 2,57,58
 766 190 766 190 682 102 c 0,59,60
 584 0 584 0 380 0 c 0,61,62
 252 0 252 0 162 72 c 0,63,64
 66 150 66 150 66 274 c 0,65,66
 66 472 66 472 248 522 c 1,67,-1
 248 882 l 1,68,-1
 732 882 l 1,69,70
 600 976 600 976 600 1148 c 0,71,72
 600 1332 600 1332 716 1440 c 0,73,74
 818 1534 818 1534 970 1534 c 0,75,76
 1082 1534 1082 1534 1158 1482 c 0,77,78
 1248 1422 1248 1422 1248 1316 c 0,0,1
1124 1292 m 1,79,80
 1124 1314 1124 1314 1094 1348 c 1,81,82
 1064 1372 1064 1372 1026 1372 c 0,83,84
 996 1372 996 1372 956 1348 c 1,85,86
 938 1332 938 1332 928 1292 c 1,87,88
 928 1214 928 1214 1026 1214 c 0,89,90
 1108 1214 1108 1214 1124 1292 c 1,79,80
594 532 m 1,91,-1
 594 782 l 1,92,-1
 348 782 l 1,93,-1
 348 532 l 1,94,-1
 594 532 l 1,91,-1
594 334 m 2,95,-1
 594 430 l 1,96,-1
 332 430 l 2,97,98
 168 430 168 430 168 270 c 0,99,100
 168 198 168 198 226 152 c 128,-1,101
 284 106 284 106 358 106 c 0,102,103
 462 106 462 106 528 168 c 128,-1,104
 594 230 594 230 594 334 c 2,95,-1
EndSplineSet
Ligature2: "'abvs' Above Base Substitutions lookup 6 subtable" tm_ta tm_iikaar
EndChar

StartChar: tm_n_iikaar
Encoding: 65573 -1 150
Width: 1242
GlyphClass: 2
Flags: W
LayerCount: 2
Fore
SplineSet
1168 1316 m 0,0,1
 1168 1230 1168 1230 1110 1179 c 128,-1,2
 1052 1128 1052 1128 964 1128 c 0,3,4
 880 1128 880 1128 822 1166 c 0,5,6
 758 1212 758 1212 758 1292 c 0,7,8
 758 1334 758 1334 776 1362 c 1,9,10
 700 1348 700 1348 660 1276 c 0,11,12
 626 1214 626 1214 626 1130 c 0,13,14
 626 944 626 944 834 882 c 1,15,-1
 976 882 l 1,16,-1
 976 782 l 1,17,-1
 642 782 l 1,18,-1
 642 466 l 1,19,20
 692 540 692 540 842 540 c 256,21,22
 992 540 992 540 1070 438 c 0,23,24
 1142 348 1142 348 1142 192 c 0,25,26
 1142 -6 1142 -6 982 -112 c 0,27,28
 860 -192 860 -192 662 -192 c 2,29,-1
 314 -192 l 2,30,31
 142 -192 142 -192 142 -286 c 0,32,33
 142 -344 142 -344 210 -344 c 0,34,35
 248 -344 248 -344 278 -370 c 128,-1,36
 308 -396 308 -396 308 -434 c 0,37,38
 308 -474 308 -474 279 -501 c 128,-1,39
 250 -528 250 -528 210 -528 c 0,40,41
 122 -528 122 -528 75 -471 c 128,-1,42
 28 -414 28 -414 28 -326 c 0,43,44
 28 -210 28 -210 124 -148 c 0,45,46
 202 -98 202 -98 330 -98 c 2,47,-1
 658 -98 l 2,48,49
 888 -98 888 -98 952 76 c 0,50,51
 972 132 972 132 972 194 c 0,52,53
 972 424 972 424 782 424 c 0,54,55
 642 424 642 424 642 286 c 2,56,-1
 642 0 l 1,57,-1
 468 0 l 1,58,-1
 468 782 l 1,59,-1
 200 782 l 1,60,-1
 200 0 l 1,61,-1
 100 0 l 1,62,-1
 100 882 l 1,63,-1
 652 882 l 1,64,65
 520 976 520 976 520 1148 c 0,66,67
 520 1332 520 1332 636 1440 c 0,68,69
 738 1534 738 1534 890 1534 c 0,70,71
 1002 1534 1002 1534 1078 1482 c 0,72,73
 1168 1422 1168 1422 1168 1316 c 0,0,1
1044 1292 m 1,74,75
 1044 1314 1044 1314 1014 1348 c 1,76,77
 984 1372 984 1372 946 1372 c 0,78,79
 916 1372 916 1372 876 1348 c 1,80,81
 858 1332 858 1332 848 1292 c 1,82,83
 848 1214 848 1214 946 1214 c 0,84,85
 1028 1214 1028 1214 1044 1292 c 1,74,75
EndSplineSet
Ligature2: "'abvs' Above Base Substitutions lookup 6 subtable" tm_na tm_iikaar
EndChar

StartChar: tm_nnn_iikaar
Encoding: 65574 -1 151
Width: 1836
GlyphClass: 2
Flags: W
LayerCount: 2
Fore
SplineSet
1864 1316 m 0,0,1
 1864 1230 1864 1230 1805 1179 c 128,-1,2
 1746 1128 1746 1128 1660 1128 c 0,3,4
 1576 1128 1576 1128 1518 1166 c 0,5,6
 1454 1212 1454 1212 1454 1292 c 0,7,8
 1454 1334 1454 1334 1472 1362 c 1,9,10
 1398 1350 1398 1350 1358 1276 c 0,11,12
 1324 1212 1324 1212 1324 1130 c 0,13,14
 1324 1042 1324 1042 1386 972 c 0,15,16
 1442 910 1442 910 1530 882 c 1,17,-1
 1756 882 l 1,18,-1
 1756 780 l 1,19,-1
 1594 780 l 1,20,-1
 1594 0 l 1,21,-1
 1422 0 l 1,22,-1
 1422 780 l 1,23,-1
 1280 780 l 2,24,25
 1180 780 1180 780 1072 732 c 1,26,27
 1228 582 1228 582 1228 370 c 0,28,29
 1228 230 1228 230 1178 130 c 0,30,31
 1114 2 1114 2 988 2 c 0,32,33
 816 2 816 2 764 240 c 0,34,35
 750 302 750 302 750 370 c 0,36,37
 750 560 750 560 882 716 c 1,38,39
 758 794 758 794 604 794 c 0,40,41
 454 794 454 794 343 707 c 128,-1,42
 232 620 232 620 194 474 c 1,43,44
 266 556 266 556 388 556 c 0,45,46
 502 556 502 556 576 474 c 128,-1,47
 650 392 650 392 650 278 c 0,48,49
 650 158 650 158 578 74 c 128,-1,50
 506 -10 506 -10 388 -10 c 0,51,52
 230 -10 230 -10 150 116 c 0,53,54
 82 222 82 222 82 390 c 0,55,56
 82 622 82 622 254 766 c 0,57,58
 416 902 416 902 654 902 c 0,59,60
 828 902 828 902 984 800 c 1,61,62
 1108 882 1108 882 1262 882 c 2,63,-1
 1348 882 l 1,64,65
 1216 976 1216 976 1216 1148 c 0,66,67
 1216 1332 1216 1332 1332 1440 c 0,68,69
 1434 1534 1434 1534 1586 1534 c 0,70,71
 1698 1534 1698 1534 1774 1482 c 0,72,73
 1864 1422 1864 1422 1864 1316 c 0,0,1
1740 1292 m 1,74,75
 1740 1314 1740 1314 1710 1348 c 1,76,77
 1680 1372 1680 1372 1642 1372 c 0,78,79
 1612 1372 1612 1372 1572 1348 c 1,80,81
 1554 1332 1554 1332 1544 1292 c 1,82,83
 1544 1258 1544 1258 1576 1236 c 128,-1,84
 1608 1214 1608 1214 1642 1214 c 0,85,86
 1724 1214 1724 1214 1740 1292 c 1,74,75
1062 370 m 0,87,88
 1062 524 1062 524 960 648 c 1,89,90
 854 542 854 542 854 370 c 0,91,92
 854 294 854 294 872 228 c 0,93,94
 898 130 898 130 960 130 c 0,95,96
 992 130 992 130 1028 184 c 1,97,98
 1062 252 1062 252 1062 370 c 0,87,88
486 274 m 256,99,100
 486 340 486 340 450 390 c 0,101,102
 410 448 410 448 348 448 c 256,103,104
 286 448 286 448 248 393 c 128,-1,105
 210 338 210 338 210 274 c 0,106,107
 210 208 210 208 246 158 c 0,108,109
 286 100 286 100 348 100 c 256,110,111
 410 100 410 100 450 158 c 0,112,113
 486 208 486 208 486 274 c 256,99,100
EndSplineSet
Ligature2: "'abvs' Above Base Substitutions lookup 6 subtable" tm_nnna tm_iikaar
EndChar

StartChar: tm_p_iikaar
Encoding: 65575 -1 152
Width: 1234
GlyphClass: 2
Flags: W
LayerCount: 2
Fore
SplineSet
1296 1316 m 0,0,1
 1296 1230 1296 1230 1238 1179 c 128,-1,2
 1180 1128 1180 1128 1092 1128 c 0,3,4
 1008 1128 1008 1128 950 1166 c 0,5,6
 886 1212 886 1212 886 1292 c 0,7,8
 886 1334 886 1334 904 1362 c 1,9,10
 818 1346 818 1346 760 1244 c 0,11,12
 708 1154 708 1154 708 1058 c 0,13,14
 708 930 708 930 768 850 c 0,15,16
 836 762 836 762 960 762 c 1,17,-1
 960 882 l 1,18,-1
 1132 882 l 1,19,-1
 1132 0 l 1,20,-1
 100 0 l 1,21,-1
 100 882 l 1,22,-1
 272 882 l 1,23,-1
 272 102 l 1,24,-1
 960 102 l 1,25,-1
 960 676 l 1,26,27
 830 676 830 676 732 762 c 0,28,29
 606 874 606 874 606 1092 c 0,30,31
 606 1278 606 1278 721 1406 c 128,-1,32
 836 1534 836 1534 1018 1534 c 0,33,34
 1130 1534 1130 1534 1206 1482 c 0,35,36
 1296 1422 1296 1422 1296 1316 c 0,0,1
1172 1292 m 1,37,38
 1172 1314 1172 1314 1142 1348 c 1,39,40
 1112 1372 1112 1372 1074 1372 c 0,41,42
 1044 1372 1044 1372 1004 1348 c 1,43,44
 986 1332 986 1332 976 1292 c 1,45,46
 976 1214 976 1214 1074 1214 c 0,47,48
 1156 1214 1156 1214 1172 1292 c 1,37,38
EndSplineSet
Ligature2: "'abvs' Above Base Substitutions lookup 6 subtable" tm_pa tm_iikaar
EndChar

StartChar: tm_m_iikaar
Encoding: 65576 -1 153
Width: 1426
GlyphClass: 2
Flags: W
LayerCount: 2
Fore
SplineSet
1344 378 m 0,0,1
 1344 202 1344 202 1232 101 c 128,-1,2
 1120 0 1120 0 942 0 c 2,3,-1
 100 0 l 1,4,-1
 100 882 l 1,5,-1
 272 882 l 1,6,-1
 272 102 l 1,7,-1
 604 102 l 1,8,-1
 604 644 l 2,9,10
 604 852 604 852 792 884 c 1,11,12
 660 974 660 974 660 1148 c 0,13,14
 660 1332 660 1332 776 1440 c 0,15,16
 878 1534 878 1534 1030 1534 c 0,17,18
 1142 1534 1142 1534 1218 1482 c 0,19,20
 1308 1422 1308 1422 1308 1316 c 0,21,22
 1308 1230 1308 1230 1250 1179 c 128,-1,23
 1192 1128 1192 1128 1104 1128 c 0,24,25
 1020 1128 1020 1128 962 1166 c 0,26,27
 898 1212 898 1212 898 1292 c 0,28,29
 898 1334 898 1334 916 1362 c 1,30,31
 840 1348 840 1348 800 1276 c 0,32,33
 766 1214 766 1214 766 1130 c 0,34,35
 766 968 766 968 962 876 c 1,36,37
 1128 832 1128 832 1236 691 c 128,-1,38
 1344 550 1344 550 1344 378 c 0,0,1
1184 1292 m 1,39,40
 1184 1314 1184 1314 1154 1348 c 1,41,42
 1124 1372 1124 1372 1086 1372 c 0,43,44
 1056 1372 1056 1372 1016 1348 c 1,45,46
 998 1332 998 1332 988 1292 c 1,47,48
 988 1214 988 1214 1086 1214 c 0,49,50
 1168 1214 1168 1214 1184 1292 c 1,39,40
1242 380 m 0,51,52
 1242 524 1242 524 1136 648 c 0,53,54
 1026 780 1026 780 886 780 c 0,55,56
 778 780 778 780 778 660 c 2,57,-1
 778 102 l 1,58,-1
 912 102 l 2,59,60
 1242 102 1242 102 1242 380 c 0,51,52
EndSplineSet
Ligature2: "'abvs' Above Base Substitutions lookup 6 subtable" tm_ma tm_iikaar
EndChar

StartChar: tm_y_iikaar
Encoding: 65577 -1 154
Width: 1466
GlyphClass: 2
Flags: W
LayerCount: 2
Fore
SplineSet
1530 1316 m 0,0,1
 1530 1230 1530 1230 1472 1179 c 128,-1,2
 1414 1128 1414 1128 1326 1128 c 0,3,4
 1242 1128 1242 1128 1184 1166 c 0,5,6
 1120 1212 1120 1212 1120 1292 c 0,7,8
 1120 1344 1120 1344 1138 1362 c 1,9,10
 1052 1346 1052 1346 994 1244 c 0,11,12
 942 1154 942 1154 942 1058 c 0,13,14
 942 930 942 930 1002 850 c 0,15,16
 1070 762 1070 762 1194 762 c 1,17,-1
 1194 882 l 1,18,-1
 1366 882 l 1,19,-1
 1366 0 l 1,20,-1
 530 0 l 1,21,-1
 530 124 l 1,22,23
 472 -4 472 -4 328 -4 c 0,24,25
 100 -4 100 -4 100 282 c 2,26,-1
 100 882 l 1,27,-1
 200 882 l 1,28,-1
 200 280 l 2,29,30
 200 190 200 190 222 150 c 0,31,32
 252 96 252 96 334 96 c 0,33,34
 430 96 430 96 486 236 c 0,35,36
 530 348 530 348 530 458 c 2,37,-1
 530 882 l 1,38,-1
 702 882 l 1,39,-1
 702 102 l 1,40,-1
 1194 102 l 1,41,-1
 1194 676 l 1,42,43
 1064 676 1064 676 966 762 c 0,44,45
 840 874 840 874 840 1092 c 0,46,47
 840 1278 840 1278 955 1406 c 128,-1,48
 1070 1534 1070 1534 1252 1534 c 0,49,50
 1364 1534 1364 1534 1440 1482 c 0,51,52
 1530 1422 1530 1422 1530 1316 c 0,0,1
1404 1292 m 1,53,54
 1404 1336 1404 1336 1342 1364 c 0,55,56
 1324 1372 1324 1372 1308 1372 c 0,57,58
 1274 1372 1274 1372 1245 1349 c 128,-1,59
 1216 1326 1216 1326 1210 1292 c 1,60,61
 1210 1256 1210 1256 1240 1235 c 128,-1,62
 1270 1214 1270 1214 1308 1214 c 0,63,64
 1392 1214 1392 1214 1404 1292 c 1,53,54
EndSplineSet
Ligature2: "'abvs' Above Base Substitutions lookup 6 subtable" tm_ya tm_iikaar
EndChar

StartChar: tm_r_iikaar
Encoding: 65578 -1 155
Width: 940
GlyphClass: 2
Flags: W
LayerCount: 2
Fore
SplineSet
910 1316 m 0,0,1
 910 1230 910 1230 851 1179 c 128,-1,2
 792 1128 792 1128 706 1128 c 0,3,4
 622 1128 622 1128 564 1166 c 0,5,6
 500 1212 500 1212 500 1292 c 0,7,8
 500 1344 500 1344 520 1362 c 1,9,10
 444 1346 444 1346 404 1274 c 0,11,12
 370 1214 370 1214 370 1130 c 0,13,14
 370 1042 370 1042 432 972 c 0,15,16
 488 908 488 908 532 882 c 1,17,-1
 854 882 l 1,18,-1
 854 782 l 1,19,-1
 642 782 l 1,20,-1
 642 -68 l 1,21,-1
 120 -414 l 1,22,-1
 120 -340 l 1,23,-1
 468 0 l 1,24,-1
 468 782 l 1,25,-1
 200 782 l 1,26,-1
 200 0 l 1,27,-1
 100 0 l 1,28,-1
 100 882 l 1,29,-1
 370 882 l 1,30,31
 264 976 264 976 264 1148 c 0,32,33
 264 1332 264 1332 380 1440 c 0,34,35
 482 1534 482 1534 632 1534 c 0,36,37
 744 1534 744 1534 820 1482 c 0,38,39
 910 1422 910 1422 910 1316 c 0,0,1
786 1292 m 1,40,41
 786 1314 786 1314 756 1348 c 1,42,43
 726 1372 726 1372 688 1372 c 0,44,45
 660 1372 660 1372 620 1348 c 1,46,47
 602 1332 602 1332 592 1292 c 1,48,49
 592 1256 592 1256 622 1235 c 128,-1,50
 652 1214 652 1214 688 1214 c 0,51,52
 770 1214 770 1214 786 1292 c 1,40,41
EndSplineSet
Ligature2: "'abvs' Above Base Substitutions lookup 5 subtable" tm_ra tm_iikaar
EndChar

StartChar: tm_rr_iikaar
Encoding: 65579 -1 156
Width: 1246
GlyphClass: 2
Flags: W
LayerCount: 2
Fore
SplineSet
1188 1316 m 0,0,1
 1188 1230 1188 1230 1130 1179 c 128,-1,2
 1072 1128 1072 1128 984 1128 c 0,3,4
 900 1128 900 1128 842 1166 c 0,5,6
 778 1212 778 1212 778 1292 c 0,7,8
 778 1334 778 1334 796 1362 c 1,9,10
 720 1348 720 1348 680 1276 c 0,11,12
 646 1214 646 1214 646 1130 c 0,13,14
 646 1036 646 1036 704 974 c 0,15,16
 732 944 732 944 820 884 c 1,17,18
 1168 884 1168 884 1168 380 c 0,19,20
 1168 102 1168 102 1016 -45 c 128,-1,21
 864 -192 864 -192 584 -192 c 2,22,-1
 314 -192 l 2,23,24
 142 -192 142 -192 142 -286 c 0,25,26
 142 -344 142 -344 210 -344 c 0,27,28
 248 -344 248 -344 278 -370 c 128,-1,29
 308 -396 308 -396 308 -434 c 0,30,31
 308 -474 308 -474 279 -501 c 128,-1,32
 250 -528 250 -528 210 -528 c 0,33,34
 122 -528 122 -528 75 -471 c 128,-1,35
 28 -414 28 -414 28 -326 c 0,36,37
 28 -210 28 -210 124 -148 c 0,38,39
 202 -98 202 -98 330 -98 c 2,40,-1
 580 -98 l 2,41,42
 998 -98 998 -98 998 378 c 0,43,44
 998 784 998 784 786 784 c 0,45,46
 646 784 646 784 646 564 c 2,47,-1
 646 0 l 1,48,-1
 474 0 l 1,49,-1
 474 574 l 2,50,51
 474 784 474 784 334 784 c 0,52,53
 200 784 200 784 200 574 c 2,54,-1
 200 0 l 1,55,-1
 100 0 l 1,56,-1
 100 588 l 2,57,58
 100 740 100 740 174 818 c 0,59,60
 240 886 240 886 342 886 c 0,61,62
 546 886 546 886 582 728 c 1,63,64
 600 806 600 806 704 862 c 1,65,-1
 692 864 l 1,66,67
 540 968 540 968 540 1148 c 0,68,69
 540 1332 540 1332 656 1440 c 0,70,71
 758 1534 758 1534 910 1534 c 0,72,73
 1022 1534 1022 1534 1098 1482 c 0,74,75
 1188 1422 1188 1422 1188 1316 c 0,0,1
1064 1292 m 1,76,77
 1064 1314 1064 1314 1034 1348 c 1,78,79
 1004 1372 1004 1372 966 1372 c 0,80,81
 932 1372 932 1372 903 1349 c 128,-1,82
 874 1326 874 1326 868 1292 c 1,83,84
 868 1256 868 1256 898 1235 c 128,-1,85
 928 1214 928 1214 966 1214 c 0,86,87
 1048 1214 1048 1214 1064 1292 c 1,76,77
EndSplineSet
Ligature2: "'abvs' Above Base Substitutions lookup 6 subtable" tm_rra tm_iikaar
EndChar

StartChar: tm_l_iikaar
Encoding: 65580 -1 157
Width: 1578
GlyphClass: 2
Flags: W
LayerCount: 2
Fore
SplineSet
1586 1316 m 0,0,1
 1586 1230 1586 1230 1527 1179 c 128,-1,2
 1468 1128 1468 1128 1382 1128 c 0,3,4
 1298 1128 1298 1128 1240 1166 c 0,5,6
 1176 1212 1176 1212 1176 1292 c 0,7,8
 1176 1344 1176 1344 1196 1362 c 1,9,10
 1068 1338 1068 1338 1014 1154 c 0,11,12
 1000 1104 1000 1104 1000 1058 c 0,13,14
 1000 932 1000 932 1060 852 c 0,15,16
 1128 762 1128 762 1250 762 c 1,17,-1
 1312 770 l 1,18,19
 1286 802 1286 802 1180 842 c 0,20,21
 1114 868 1114 868 1114 940 c 0,22,23
 1114 982 1114 982 1174 982 c 0,24,25
 1200 982 1200 982 1218 972 c 0,26,27
 1506 816 1506 816 1506 488 c 0,28,29
 1506 298 1506 298 1412 156 c 0,30,31
 1304 -8 1304 -8 1124 -8 c 0,32,33
 820 -8 820 -8 820 322 c 2,34,-1
 820 468 l 2,35,36
 820 788 820 788 522 788 c 0,37,38
 388 788 388 788 300 694 c 0,39,40
 222 612 222 612 194 474 c 1,41,42
 266 556 266 556 388 556 c 0,43,44
 502 556 502 556 576 474 c 128,-1,45
 650 392 650 392 650 278 c 0,46,47
 650 158 650 158 578 74 c 128,-1,48
 506 -10 506 -10 388 -10 c 0,49,50
 230 -10 230 -10 150 116 c 0,51,52
 82 222 82 222 82 390 c 0,53,54
 82 600 82 600 208 744 c 0,55,56
 340 898 340 898 546 898 c 0,57,58
 744 898 744 898 869 781 c 128,-1,59
 994 664 994 664 994 466 c 2,60,-1
 994 348 l 2,61,62
 994 222 994 222 1014 174 c 0,63,64
 1044 102 1044 102 1142 102 c 0,65,66
 1268 102 1268 102 1342 238 c 0,67,68
 1404 350 1404 350 1404 488 c 0,69,70
 1404 610 1404 610 1360 698 c 1,71,72
 1310 676 1310 676 1250 676 c 0,73,74
 1124 676 1124 676 1024 760 c 0,75,76
 898 864 898 864 898 1092 c 0,77,78
 898 1282 898 1282 1008 1404 c 0,79,80
 1122 1534 1122 1534 1308 1534 c 0,81,82
 1420 1534 1420 1534 1496 1482 c 0,83,84
 1586 1422 1586 1422 1586 1316 c 0,0,1
1462 1292 m 1,85,86
 1462 1314 1462 1314 1432 1348 c 1,87,88
 1402 1372 1402 1372 1364 1372 c 0,89,90
 1334 1372 1334 1372 1294 1348 c 1,91,92
 1276 1332 1276 1332 1266 1292 c 1,93,94
 1266 1258 1266 1258 1298 1236 c 128,-1,95
 1330 1214 1330 1214 1364 1214 c 0,96,97
 1446 1214 1446 1214 1462 1292 c 1,85,86
486 274 m 256,98,99
 486 340 486 340 450 390 c 0,100,101
 410 448 410 448 348 448 c 256,102,103
 286 448 286 448 248 393 c 128,-1,104
 210 338 210 338 210 274 c 0,105,106
 210 208 210 208 246 158 c 0,107,108
 286 100 286 100 348 100 c 256,109,110
 410 100 410 100 450 158 c 0,111,112
 486 208 486 208 486 274 c 256,98,99
EndSplineSet
Ligature2: "'abvs' Above Base Substitutions lookup 5 subtable" tm_la tm_iikaar
EndChar

